<svg width="92" height="47" viewBox="0 0 92 47" fill="none" xmlns="http://www.w3.org/2000/svg">
<path d="M33.9712 2.65081C33.9712 2.87028 33.9275 3.04585 33.8839 3.22143C33.8402 3.397 33.7529 3.52868 33.6656 3.61646C33.5782 3.74814 33.4472 3.83593 33.3599 3.87982C33.2289 3.96761 33.098 4.0115 32.967 4.05539C33.1416 4.09929 33.2726 4.14318 33.4036 4.23097C33.5346 4.31875 33.6656 4.40654 33.7529 4.53822C33.8402 4.6699 33.9275 4.80158 34.0148 4.97715C34.0585 5.15272 34.1022 5.3283 34.1022 5.54776C34.1022 5.81112 34.0585 6.03059 33.9712 6.20616C33.8839 6.42562 33.7529 6.6012 33.5782 6.73288C33.4036 6.86456 33.1853 6.99623 32.9233 7.08402C32.6613 7.17181 32.3557 7.2157 31.9628 7.2157H30.6966V1.07066H31.8754C32.2247 1.07066 32.5304 1.11455 32.7923 1.20234C33.0543 1.29013 33.2726 1.37791 33.4472 1.50959C33.6219 1.64127 33.7529 1.81685 33.7965 1.99242C33.9275 2.21188 33.9712 2.43135 33.9712 2.65081ZM33.1853 2.69471C33.1853 2.38746 33.098 2.16799 32.8796 1.99242C32.6613 1.81685 32.3557 1.72906 31.9191 1.72906H31.5261V3.83593H31.9191C32.312 3.83593 32.6613 3.74814 32.8796 3.52868C33.098 3.30921 33.1853 3.04585 33.1853 2.69471ZM33.3163 5.54776C33.3163 5.19662 33.2289 4.93326 33.0106 4.75769C32.7923 4.58211 32.4867 4.45043 32.0937 4.45043H31.5698V6.6012H32.0501C32.4867 6.6012 32.836 6.51341 33.0543 6.33784C33.2289 6.16227 33.3163 5.89891 33.3163 5.54776ZM38.0754 7.25959H37.4204V6.77677C37.4204 6.82066 37.3768 6.86456 37.2894 6.95234C37.2458 7.04013 37.1585 7.08402 37.0711 7.12791C36.9838 7.17181 36.8528 7.25959 36.7219 7.30349C36.5909 7.34738 36.4599 7.39127 36.2852 7.39127C36.1106 7.39127 35.9359 7.34738 35.7613 7.30349C35.6303 7.25959 35.4993 7.17181 35.3683 7.04013C35.281 6.90845 35.1937 6.73288 35.1064 6.5573C35.0627 6.33784 35.0191 6.11837 35.0191 5.81112V3.00196H35.7613V5.76723C35.7613 6.11837 35.805 6.38173 35.9359 6.51341C36.0669 6.64509 36.2416 6.73288 36.4599 6.73288C36.6782 6.73288 36.8528 6.68898 36.9838 6.5573C37.1148 6.46952 37.2458 6.33784 37.3331 6.25005V2.95807H38.0754M41.5246 7.25959V4.49433C41.5246 4.14318 41.4809 3.87982 41.35 3.70425C41.219 3.52868 41.0443 3.48478 40.7824 3.48478C40.5641 3.48478 40.3894 3.52868 40.2584 3.66036C40.1274 3.74814 39.9965 3.87982 39.9091 3.96761V7.25959H39.2106V2.95807H39.8655V3.44089C39.8655 3.397 39.9091 3.3531 39.9965 3.26532C40.0401 3.17753 40.1274 3.13364 40.2148 3.08975C40.3021 3.04585 40.4331 2.95807 40.5641 2.91417C40.695 2.87028 40.826 2.82639 41.0007 2.82639C41.1753 2.82639 41.35 2.87028 41.5246 2.91417C41.6993 2.95807 41.8302 3.04585 41.9176 3.17753C42.0049 3.30921 42.0922 3.48478 42.1795 3.66036C42.2232 3.87982 42.2669 4.09929 42.2669 4.40654V7.2157M43.0964 5.19662C43.0964 4.75769 43.1401 4.40654 43.2711 4.09929C43.4021 3.79204 43.533 3.57257 43.7077 3.397C43.8823 3.22143 44.1006 3.08975 44.3189 3.00196C44.5372 2.91417 44.7556 2.87028 45.0175 2.87028C45.1485 2.87028 45.2795 2.87028 45.3668 2.91417C45.4541 2.95807 45.5415 2.95807 45.6288 3.00196V0.938983L46.371 0.851196V7.25959H45.7161V6.82066C45.7161 6.86455 45.6724 6.90845 45.6288 6.95234C45.5851 6.99624 45.4978 7.08402 45.4541 7.12791C45.3668 7.17181 45.2795 7.25959 45.1485 7.30349C45.0175 7.34738 44.8865 7.39127 44.7119 7.39127C44.4936 7.39127 44.3189 7.34738 44.1443 7.25959C43.9697 7.17181 43.795 7.04013 43.664 6.86456C43.533 6.68898 43.4021 6.46952 43.3584 6.16226C43.1401 5.89891 43.0964 5.59166 43.0964 5.19662ZM44.7992 6.73288C44.9302 6.73288 45.0175 6.73288 45.1048 6.68898C45.1922 6.64509 45.2795 6.64509 45.3232 6.5573C45.4105 6.51341 45.4541 6.46952 45.4978 6.42562C45.5415 6.38173 45.5851 6.33784 45.5851 6.29395V3.66036C45.5415 3.61646 45.4541 3.57257 45.3668 3.57257C45.2795 3.52868 45.1922 3.52868 45.0612 3.52868C44.8865 3.52868 44.7556 3.57257 44.5809 3.61646C44.4499 3.66036 44.3189 3.74814 44.188 3.87982C44.1006 4.0115 44.0133 4.18707 43.926 4.40654C43.8823 4.626 43.8387 4.88936 43.8387 5.15272C43.8387 5.45997 43.8823 5.72333 43.926 5.89891C43.9697 6.11837 44.057 6.25005 44.1443 6.38173C44.2316 6.51341 44.3189 6.6012 44.4499 6.64509C44.5809 6.68898 44.6682 6.73288 44.7992 6.73288ZM50.1696 4.40654C50.1696 4.58211 50.1696 4.75769 50.1696 4.88936C50.1696 5.02104 50.1259 5.15272 50.1259 5.24051H47.9428C47.9865 5.76723 48.0738 6.11837 48.2485 6.33784C48.4231 6.5573 48.7287 6.68898 49.078 6.68898C49.209 6.68898 49.2963 6.68898 49.4273 6.64509C49.5146 6.6012 49.602 6.6012 49.6893 6.5573C49.7766 6.51341 49.8203 6.46952 49.8639 6.42562C49.9076 6.38173 49.9513 6.33784 49.9949 6.33784L50.2569 6.86456C50.2132 6.90845 50.1696 6.95234 50.1259 6.99623C50.0822 7.04013 49.9949 7.12791 49.9076 7.17181C49.8203 7.2157 49.6893 7.25959 49.5147 7.30349C49.3837 7.34738 49.209 7.34738 48.9907 7.34738C48.7287 7.34738 48.4668 7.30349 48.2485 7.2157C48.0302 7.12791 47.8555 6.99623 47.6809 6.82066C47.5499 6.64509 47.4189 6.38173 47.3316 6.11837C47.2443 5.81112 47.2006 5.45997 47.2006 5.06494C47.2006 4.6699 47.2443 4.36265 47.3316 4.05539C47.4189 3.79204 47.5499 3.52868 47.6809 3.35311C47.8119 3.17753 47.9865 3.04585 48.2048 2.95807C48.3795 2.87028 48.5978 2.82639 48.8161 2.82639C49.209 2.82639 49.5583 2.95807 49.7766 3.22143C49.9949 3.48478 50.1696 3.87982 50.1696 4.40654ZM48.8161 3.44089C48.5541 3.44089 48.3358 3.52868 48.2048 3.74814C48.0738 3.96761 47.9428 4.27486 47.9428 4.6699H49.5147C49.5147 4.62601 49.5147 4.58211 49.5147 4.53822C49.5147 4.49433 49.5147 4.40654 49.5147 4.36265C49.5147 4.05539 49.471 3.83593 49.34 3.66036C49.209 3.52868 49.0344 3.44089 48.8161 3.44089ZM52.9639 3.83593C52.9202 3.79204 52.8329 3.70425 52.7019 3.61646C52.5709 3.52868 52.3963 3.48478 52.2217 3.48478C52.047 3.48478 51.8724 3.52868 51.785 3.61646C51.6977 3.70425 51.6541 3.79204 51.6541 3.92372C51.6541 4.09929 51.6977 4.23097 51.785 4.31875C51.8724 4.40654 52.0034 4.53822 52.2217 4.6699L52.4836 4.84547C52.7893 5.02104 53.0076 5.19662 53.1822 5.41608C53.3569 5.63555 53.4442 5.85501 53.4442 6.20616C53.4442 6.5573 53.3132 6.82066 53.0949 7.08402C52.8766 7.30349 52.5273 7.43517 52.0907 7.43517C51.916 7.43517 51.785 7.43517 51.6541 7.39127C51.5231 7.34738 51.3921 7.30349 51.3048 7.25959C51.2174 7.2157 51.1301 7.17181 51.0428 7.08402C50.9991 7.04013 50.9118 6.99623 50.8682 6.90845L51.2174 6.33784C51.2611 6.38173 51.3048 6.42562 51.3484 6.46952C51.3921 6.51341 51.4794 6.5573 51.5231 6.6012C51.6104 6.64509 51.6541 6.68898 51.7414 6.73288C51.8287 6.77677 51.916 6.77677 52.047 6.77677C52.2653 6.77677 52.44 6.73288 52.5273 6.64509C52.6583 6.5573 52.7019 6.42562 52.7019 6.29395C52.7019 6.20616 52.7019 6.11837 52.6583 6.03059C52.6146 5.9428 52.571 5.89891 52.5273 5.81112C52.4836 5.76723 52.3963 5.67944 52.3526 5.63555C52.2653 5.59166 52.178 5.50387 52.0907 5.45998L51.8287 5.2844C51.5667 5.10883 51.3484 4.93326 51.2174 4.75769C51.0865 4.58211 50.9991 4.31875 50.9991 4.0115C50.9991 3.83593 51.0428 3.70425 51.0865 3.57257C51.1301 3.44089 51.2174 3.30921 51.3484 3.22143C51.4794 3.13364 51.6104 3.04585 51.7414 3.00196C51.8724 2.95807 52.047 2.91417 52.2217 2.91417C52.3963 2.91417 52.5273 2.91417 52.6583 2.95807C52.7893 3.00196 52.8766 3.04585 52.9639 3.08975C53.0512 3.13364 53.1385 3.17753 53.1822 3.22143C53.2259 3.26532 53.2695 3.30921 53.3132 3.35311M56.5005 7.25959V4.49433C56.5005 4.14318 56.4568 3.87982 56.3695 3.74814C56.2822 3.57257 56.1075 3.52868 55.8892 3.52868C55.7582 3.52868 55.6709 3.52868 55.5836 3.57257C55.4963 3.61646 55.4089 3.66036 55.3216 3.70425C55.2343 3.74814 55.1906 3.79204 55.147 3.83593C55.1033 3.87982 55.0597 3.92371 55.016 3.96761V7.25959H54.2737V2.95807H54.9287V3.44089C54.9723 3.397 55.016 3.3531 55.0597 3.26532C55.1033 3.17753 55.1906 3.13364 55.278 3.08975C55.3653 3.04585 55.4526 2.95807 55.5836 2.91417C55.7146 2.87028 55.8456 2.87028 55.9765 2.87028C56.4568 2.87028 56.8061 3.04585 57.0244 3.44089C57.0681 3.397 57.1117 3.30921 57.1991 3.26532C57.2864 3.17753 57.3737 3.13364 57.461 3.08975C57.5484 3.04585 57.6793 3.00196 57.7667 2.95807C57.8976 2.91417 58.0286 2.91417 58.1596 2.91417C59.0328 2.91417 59.4695 3.44089 59.4695 4.45043V7.34738H58.7272V4.58211C58.7272 4.23097 58.6836 3.96761 58.5526 3.83593C58.4216 3.66036 58.2469 3.61646 57.985 3.61646C57.7667 3.61646 57.6357 3.66036 57.461 3.74814C57.33 3.83593 57.2427 3.92372 57.1554 4.0115C57.1554 4.0554 57.1554 4.14318 57.1991 4.23097C57.1991 4.31875 57.1991 4.36265 57.1991 4.45043V7.34738M61.2596 7.25959H60.561V2.95807H61.2596V7.25959ZM60.9103 1.94852C60.7793 1.94852 60.6483 1.90463 60.561 1.81685C60.4737 1.72906 60.43 1.59738 60.43 1.42181C60.43 1.29013 60.4737 1.15845 60.561 1.07066C60.6483 0.982876 60.7793 0.938983 60.9103 0.938983C61.0413 0.938983 61.1723 0.982876 61.2596 1.07066C61.3469 1.15845 61.3906 1.29013 61.3906 1.42181C61.3906 1.59738 61.3469 1.68517 61.2596 1.81685C61.1286 1.90463 61.0413 1.94852 60.9103 1.94852ZM64.6652 7.25959V4.49433C64.6652 4.14318 64.6215 3.87982 64.4905 3.70425C64.3595 3.52868 64.1849 3.48478 63.9229 3.48478C63.7046 3.48478 63.53 3.52868 63.399 3.66036C63.268 3.74814 63.137 3.87982 63.0497 3.96761V7.25959H62.3511V2.95807H63.006V3.44089C63.006 3.397 63.0497 3.3531 63.137 3.26532C63.1807 3.17753 63.268 3.13364 63.3553 3.08975C63.4426 3.04585 63.5736 2.95807 63.7046 2.91417C63.8356 2.87028 63.9666 2.82639 64.1412 2.82639C64.3159 2.82639 64.4905 2.87028 64.6652 2.91417C64.8398 2.95807 64.9708 3.04585 65.0581 3.17753C65.1454 3.30921 65.2328 3.48478 65.3201 3.66036C65.3638 3.87982 65.4074 4.09929 65.4074 4.40654V7.2157M67.1975 7.25959H66.4553V2.95807H67.1975V7.25959ZM66.8482 1.94852C66.7173 1.94852 66.5863 1.90463 66.4989 1.81685C66.4116 1.72906 66.368 1.59738 66.368 1.42181C66.368 1.29013 66.4116 1.15845 66.4989 1.07066C66.5863 0.982876 66.7173 0.938983 66.8482 0.938983C66.9792 0.938983 67.1102 0.982876 67.1975 1.07066C67.2849 1.15845 67.3285 1.29013 67.3285 1.42181C67.3285 1.59738 67.2849 1.68517 67.1975 1.81685C67.1102 1.90463 66.9792 1.94852 66.8482 1.94852ZM70.1228 3.83593C70.0792 3.79204 69.9919 3.70425 69.8609 3.61646C69.7299 3.52868 69.5553 3.48478 69.3806 3.48478C69.206 3.48478 69.0313 3.52868 68.944 3.61646C68.8567 3.70425 68.813 3.79204 68.813 3.92372C68.813 4.09929 68.8567 4.23097 68.944 4.31875C69.0313 4.40654 69.1623 4.53822 69.3806 4.6699L69.6426 4.84547C69.9482 5.02104 70.1665 5.19662 70.3412 5.41608C70.5158 5.63555 70.6031 5.85501 70.6031 6.20616C70.6031 6.5573 70.4721 6.82066 70.2538 7.08402C70.0355 7.30349 69.6862 7.43517 69.2496 7.43517C69.075 7.43517 68.944 7.43517 68.813 7.39127C68.682 7.34738 68.551 7.30349 68.4637 7.25959C68.3764 7.2157 68.2891 7.17181 68.2017 7.08402C68.1144 7.04013 68.0708 6.99623 68.0271 6.90845L68.3764 6.33784C68.4201 6.38173 68.4637 6.42562 68.5074 6.46952C68.551 6.51341 68.6384 6.5573 68.682 6.6012C68.7693 6.64509 68.813 6.68898 68.9003 6.73288C68.9877 6.77677 69.075 6.77677 69.206 6.77677C69.4243 6.77677 69.5989 6.73288 69.6862 6.64509C69.8172 6.5573 69.8609 6.42562 69.8609 6.29395C69.8609 6.20616 69.8609 6.11837 69.8172 6.03059C69.7736 5.9428 69.7299 5.89891 69.6862 5.81112C69.6426 5.76723 69.5552 5.67944 69.4679 5.63555C69.3806 5.59166 69.2933 5.50387 69.206 5.45998L68.944 5.2844C68.682 5.10883 68.4637 4.93326 68.3327 4.75769C68.2017 4.58211 68.1144 4.31875 68.1144 4.0115C68.1144 3.83593 68.1581 3.70425 68.2017 3.57257C68.2454 3.44089 68.3327 3.30921 68.4637 3.22143C68.5947 3.13364 68.7257 3.04585 68.8567 3.00196C68.9876 2.95807 69.1623 2.91417 69.3369 2.91417C69.5116 2.91417 69.6426 2.91417 69.7736 2.95807C69.9045 3.00196 69.9919 3.04585 70.0792 3.08975C70.1665 3.13364 70.2538 3.17753 70.2975 3.22143C70.3412 3.26532 70.3848 3.30921 70.4285 3.35311M73.2228 3.57257H72.3059V5.9428C72.3059 6.25005 72.3496 6.46952 72.4369 6.5573C72.5242 6.68898 72.6552 6.73288 72.8299 6.73288C72.9172 6.73288 73.0482 6.73288 73.0918 6.68898C73.1791 6.64509 73.2228 6.64509 73.2665 6.6012L73.3538 7.17181C73.3101 7.2157 73.2665 7.2157 73.1355 7.30349C73.0045 7.34738 72.8735 7.39127 72.6989 7.39127C72.3496 7.39127 72.044 7.30349 71.8693 7.08402C71.6947 6.86456 71.6073 6.5573 71.6073 6.07448V3.61646H71.0834V3.13364L71.6073 3.04585L71.6947 1.86074H72.3496V3.04585H73.3538M76.7157 4.40654C76.7157 4.58211 76.7157 4.75769 76.7157 4.88936C76.7157 5.02104 76.6721 5.15272 76.6721 5.24051H74.489C74.5327 5.76723 74.62 6.11837 74.7946 6.33784C74.9693 6.5573 75.2749 6.68898 75.6242 6.68898C75.7552 6.68898 75.8425 6.68898 75.9735 6.64509C76.0608 6.6012 76.1481 6.6012 76.2355 6.5573C76.3228 6.51341 76.3664 6.46952 76.4101 6.42562C76.4538 6.38173 76.4974 6.33784 76.5411 6.33784L76.8031 6.86456C76.7594 6.90845 76.7157 6.95234 76.6721 6.99623C76.6284 7.04013 76.5411 7.12791 76.4538 7.17181C76.3664 7.2157 76.2354 7.25959 76.0608 7.30349C75.9298 7.34738 75.7552 7.34738 75.5369 7.34738C75.2749 7.34738 75.0129 7.30349 74.7946 7.2157C74.5763 7.12791 74.4017 6.99623 74.227 6.82066C74.096 6.64509 73.965 6.38173 73.8777 6.11837C73.7904 5.81112 73.7467 5.45997 73.7467 5.06494C73.7467 4.6699 73.7904 4.36265 73.8777 4.05539C73.965 3.79204 74.096 3.52868 74.227 3.35311C74.358 3.17753 74.5326 3.04585 74.751 2.95807C74.9256 2.87028 75.1439 2.82639 75.3622 2.82639C75.7552 2.82639 76.1045 2.95807 76.3228 3.22143C76.6284 3.52868 76.7157 3.87982 76.7157 4.40654ZM75.3622 3.44089C75.1003 3.44089 74.9256 3.52868 74.751 3.74814C74.5763 3.96761 74.489 4.27486 74.489 4.6699H76.0608C76.0608 4.62601 76.0608 4.58211 76.0608 4.53822C76.0608 4.49433 76.0608 4.40654 76.0608 4.36265C76.0608 4.05539 76.0171 3.83593 75.8862 3.66036C75.7988 3.52868 75.6242 3.44089 75.3622 3.44089ZM79.5537 3.61646C79.5537 3.61646 79.5101 3.57257 79.4227 3.57257C79.3791 3.57257 79.2918 3.52868 79.2044 3.52868C78.9861 3.52868 78.8115 3.57257 78.6805 3.70425C78.5495 3.83593 78.4622 3.96761 78.4185 4.09929V7.25959H77.6763V2.95807H78.3312V3.52868C78.3749 3.44089 78.4185 3.3531 78.4622 3.26532C78.5058 3.17753 78.5495 3.13364 78.6368 3.04585C78.7242 3.00196 78.8115 2.91417 78.8988 2.91417C78.9861 2.87028 79.1171 2.87028 79.2481 2.87028C79.3354 2.87028 79.4227 2.87028 79.5101 2.91417C79.5537 2.91417 79.641 2.95807 79.641 2.95807M80.9945 7.25959H80.296V2.95807H80.9945V7.25959ZM80.6452 1.94852C80.5143 1.94852 80.3833 1.90463 80.296 1.81685C80.2086 1.72906 80.165 1.59738 80.165 1.42181C80.165 1.29013 80.2086 1.15845 80.296 1.07066C80.3833 0.982876 80.5143 0.938983 80.6452 0.938983C80.7762 0.938983 80.9072 0.982876 80.9945 1.07066C81.0819 1.15845 81.1255 1.29013 81.1255 1.42181C81.1255 1.59738 81.0819 1.68517 80.9945 1.81685C80.9072 1.90463 80.7762 1.94852 80.6452 1.94852ZM85.0987 7.25959H84.4438V6.77677C84.4438 6.82066 84.4001 6.86456 84.3128 6.95234C84.2692 7.04013 84.1818 7.08402 84.0945 7.12791C84.0072 7.17181 83.8762 7.25959 83.7452 7.30349C83.6142 7.34738 83.4832 7.39127 83.3086 7.39127C83.134 7.39127 82.9593 7.34738 82.7847 7.30349C82.6537 7.25959 82.5227 7.17181 82.3917 7.04013C82.3044 6.90845 82.2171 6.73288 82.1297 6.5573C82.0861 6.33784 82.0424 6.11837 82.0424 5.81112V3.00196H82.7847V5.76723C82.7847 6.11837 82.8283 6.38173 82.9593 6.51341C83.0903 6.64509 83.2649 6.73288 83.4832 6.73288C83.7015 6.73288 83.8762 6.68898 84.0072 6.5573C84.1382 6.46952 84.2691 6.33784 84.3565 6.25005V2.95807H85.0987M88.417 7.25959V4.49433C88.417 4.14318 88.3733 3.87982 88.286 3.74814C88.1987 3.57257 88.024 3.52868 87.8057 3.52868C87.6747 3.52868 87.5874 3.52868 87.5001 3.57257C87.4128 3.61646 87.3254 3.66036 87.2381 3.70425C87.1508 3.74814 87.1071 3.79204 87.0635 3.83593C87.0198 3.87982 86.9762 3.92371 86.9325 3.96761V7.25959H86.2339V2.95807H86.8888V3.44089C86.9325 3.397 86.9762 3.3531 87.0198 3.26532C87.0635 3.17753 87.1508 3.13364 87.2381 3.08975C87.3254 3.04585 87.4128 2.95807 87.5438 2.91417C87.6747 2.87028 87.8057 2.87028 87.9367 2.87028C88.417 2.87028 88.7663 3.04585 88.9846 3.44089C89.0282 3.397 89.0719 3.30921 89.1592 3.26532C89.2465 3.17753 89.3339 3.13364 89.4212 3.08975C89.5085 3.04585 89.6395 3.00196 89.7268 2.95807C89.8578 2.91417 89.9888 2.91417 90.1198 2.91417C90.993 2.91417 91.4296 3.44089 91.4296 4.45043V7.34738H90.6874V4.58211C90.6874 4.23097 90.6437 3.96761 90.5127 3.83593C90.3817 3.66036 90.2071 3.61646 89.9451 3.61646C89.7268 3.61646 89.5958 3.66036 89.4212 3.74814C89.2902 3.83593 89.2029 3.92372 89.1156 4.0115C89.1156 4.0554 89.1156 4.14318 89.1592 4.23097C89.1592 4.31875 89.1592 4.36265 89.1592 4.45043V7.34738M32.3994 12.5707H31.5261V16.2577H30.8276V12.5707H30.3036V12.0878L30.8276 12.0001V11.1222C30.8276 10.9027 30.8712 10.6833 30.9149 10.5077C31.0022 10.3321 31.0459 10.2004 31.1768 10.1126C31.2642 10.0249 31.3952 9.93707 31.5261 9.89318C31.6571 9.84929 31.8318 9.8054 31.9628 9.8054C32.1374 9.8054 32.2247 9.8054 32.3557 9.84929C32.443 9.89318 32.5304 9.93707 32.574 9.93707L32.443 10.5516C32.3994 10.5077 32.3557 10.5077 32.312 10.4638C32.2684 10.4199 32.1811 10.4199 32.0937 10.4199C31.9191 10.4199 31.7881 10.4638 31.7008 10.5955C31.6135 10.6833 31.5698 10.9027 31.5698 11.1661V11.9562H32.5304M36.1106 16.2577H35.4557V15.7749C35.4557 15.8188 35.412 15.8626 35.3247 15.9504C35.281 16.0382 35.1937 16.0821 35.1064 16.126C35.0191 16.1699 34.8881 16.2577 34.7571 16.3016C34.6261 16.3455 34.4951 16.3894 34.3205 16.3894C34.1458 16.3894 33.9712 16.3455 33.7965 16.3016C33.6655 16.2577 33.5346 16.1699 33.4036 16.0382C33.3163 15.9065 33.2289 15.731 33.1416 15.5554C33.098 15.3359 33.0543 15.1165 33.0543 14.8092V12.0001H33.7529V14.7653C33.7529 15.1165 33.7965 15.3798 33.9275 15.5115C34.0585 15.6432 34.2331 15.731 34.4515 15.731C34.6698 15.731 34.8444 15.6871 34.9754 15.5554C35.1064 15.4676 35.2374 15.3359 35.3247 15.2481V11.9562H36.0233M34.3205 10.771C34.3205 10.9027 34.2768 11.0344 34.1895 11.1222C34.1022 11.21 34.0148 11.2539 33.8839 11.2539C33.7529 11.2539 33.6655 11.21 33.5782 11.1222C33.4909 11.0344 33.4472 10.9466 33.4472 10.771C33.4472 10.6394 33.4909 10.5077 33.5782 10.4199C33.6655 10.3321 33.7529 10.2882 33.8839 10.2882C34.0148 10.2882 34.1022 10.3321 34.1895 10.4199C34.2768 10.5077 34.3205 10.5955 34.3205 10.771ZM35.7176 10.771C35.7176 10.9027 35.674 11.0344 35.5867 11.1222C35.4993 11.21 35.412 11.2539 35.281 11.2539C35.15 11.2539 35.0627 11.21 34.9754 11.1222C34.8881 11.0344 34.8444 10.9466 34.8444 10.771C34.8444 10.6394 34.8881 10.5077 34.9754 10.4199C35.0627 10.3321 35.15 10.2882 35.281 10.2882C35.412 10.2882 35.4993 10.3321 35.5867 10.4199C35.674 10.5077 35.7176 10.5955 35.7176 10.771ZM39.0796 12.6146C39.0796 12.6146 39.0359 12.5707 38.9486 12.5707C38.9049 12.5707 38.8176 12.5268 38.7303 12.5268C38.512 12.5268 38.3373 12.5707 38.2063 12.7023C38.0754 12.834 37.988 12.9657 37.9444 13.0974V16.2577H37.2021V11.9562H37.857V12.5268C37.9007 12.439 37.9444 12.3512 37.988 12.2634C38.0317 12.1756 38.0754 12.1317 38.1627 12.0439C38.25 12.0001 38.3373 11.9123 38.4246 11.9123C38.512 11.8684 38.643 11.8684 38.7739 11.8684C38.8613 11.8684 38.9486 11.8684 39.0359 11.9123C39.0796 11.9123 39.1669 11.9562 39.1669 11.9562M44.8429 11.6928C44.8429 11.9123 44.7992 12.0878 44.7556 12.2634C44.7119 12.439 44.6246 12.5707 44.5372 12.6584C44.4499 12.7901 44.3189 12.8779 44.2316 12.9218C44.1006 13.0096 43.9696 13.0535 43.8387 13.0974C44.0133 13.1413 44.1443 13.1852 44.2753 13.273C44.4063 13.3607 44.5372 13.4485 44.6246 13.5802C44.7119 13.7119 44.7992 13.8436 44.8865 14.0191C44.9302 14.1947 44.9739 14.3703 44.9739 14.5897C44.9739 14.8531 44.9302 15.0726 44.8429 15.2481C44.7556 15.4676 44.6246 15.6432 44.4499 15.7749C44.2753 15.9065 44.057 16.0382 43.795 16.126C43.533 16.2138 43.2274 16.2577 42.8345 16.2577H41.5683V10.1126H42.7471C43.0964 10.1126 43.402 10.1565 43.664 10.2443C43.926 10.3321 44.1443 10.4199 44.3189 10.5516C44.4936 10.6833 44.6246 10.8588 44.6682 11.0344C44.7992 11.21 44.8429 11.4294 44.8429 11.6928ZM44.057 11.6928C44.057 11.3855 43.9696 11.1661 43.7513 10.9905C43.533 10.8149 43.2274 10.7272 42.7908 10.7272H42.3978V12.834H42.7908C43.1837 12.834 43.533 12.7462 43.7513 12.5268C43.9696 12.3512 44.057 12.0878 44.057 11.6928ZM44.188 14.5459C44.188 14.1947 44.1006 13.9313 43.8823 13.7558C43.664 13.5802 43.3584 13.4485 42.9654 13.4485H42.4415V15.5993H42.9218C43.3584 15.5993 43.7077 15.5115 43.926 15.3359C44.1006 15.1604 44.188 14.897 44.188 14.5459ZM46.6767 16.2577H45.9781V11.9562H46.6767V16.2577ZM46.3274 10.9466C46.1964 10.9466 46.0654 10.9027 45.9781 10.8149C45.8908 10.7272 45.8471 10.5955 45.8471 10.4199C45.8471 10.2882 45.8908 10.1565 45.9781 10.0688C46.0654 9.98097 46.1964 9.93707 46.3274 9.93707C46.4584 9.93707 46.5893 9.98097 46.6767 10.0688C46.764 10.1565 46.8076 10.2882 46.8076 10.4199C46.8076 10.5955 46.764 10.6833 46.6767 10.8149C46.5893 10.9027 46.4584 10.9466 46.3274 10.9466ZM48.5104 15.292C48.5104 15.4676 48.5541 15.5993 48.5978 15.6871C48.6414 15.7749 48.7287 15.7749 48.8597 15.7749C48.9034 15.7749 48.9907 15.7749 49.0344 15.7749C49.078 15.7749 49.1217 15.731 49.1217 15.731L49.1654 16.2577C49.1217 16.2577 49.078 16.3016 48.9907 16.3455C48.9034 16.3894 48.7724 16.3894 48.5978 16.3894C48.3358 16.3894 48.1611 16.3016 48.0302 16.1699C47.8992 16.0382 47.8119 15.7749 47.8119 15.3798V9.93707L48.5541 9.84929M49.602 14.1947C49.602 13.7558 49.6456 13.4046 49.7766 13.0974C49.9076 12.7901 50.0386 12.5707 50.2132 12.3951C50.3879 12.2195 50.6062 12.0878 50.8245 12.0001C51.0428 11.9123 51.2611 11.8684 51.5231 11.8684C51.6541 11.8684 51.785 11.8684 51.8724 11.9123C51.9597 11.9562 52.047 11.9562 52.1343 12.0001V9.93707L52.8766 9.84929V16.2577H52.2217V15.8188C52.2217 15.8626 52.178 15.9065 52.1343 15.9504C52.0907 15.9943 52.0034 16.0821 51.916 16.126C51.8287 16.1699 51.7414 16.2577 51.6104 16.3016C51.4794 16.3455 51.3484 16.3894 51.1738 16.3894C50.9555 16.3894 50.7808 16.3455 50.6062 16.2577C50.4315 16.1699 50.2569 16.0382 50.1259 15.8626C49.9949 15.6871 49.8639 15.4676 49.8203 15.1604C49.6456 14.9409 49.602 14.5897 49.602 14.1947ZM51.3048 15.731C51.4358 15.731 51.5231 15.731 51.6104 15.6871C51.6977 15.6432 51.785 15.6432 51.8287 15.5554C51.916 15.5115 51.9597 15.4676 52.0034 15.4237C52.047 15.3798 52.0907 15.3359 52.0907 15.292V12.6584C52.0034 12.6146 51.9597 12.5707 51.8724 12.5707C51.785 12.5268 51.6977 12.5268 51.5667 12.5268C51.3921 12.5268 51.2611 12.5707 51.0865 12.6146C50.9555 12.6584 50.8245 12.7462 50.6935 12.8779C50.6062 13.0096 50.5189 13.1852 50.4315 13.4046C50.3879 13.6241 50.3442 13.8875 50.3442 14.1508C50.3442 14.4581 50.3879 14.7214 50.4315 14.897C50.4752 15.1165 50.5625 15.2481 50.6498 15.3798C50.7372 15.5115 50.8245 15.5993 50.9555 15.6432C51.0865 15.731 51.1738 15.731 51.3048 15.731ZM56.9371 16.2577H56.2822V15.7749C56.2822 15.8188 56.2385 15.8626 56.1512 15.9504C56.1075 16.0382 56.0202 16.0821 55.9329 16.126C55.8456 16.1699 55.7146 16.2577 55.5836 16.3016C55.4526 16.3455 55.3216 16.3894 55.147 16.3894C54.9723 16.3894 54.7977 16.3455 54.623 16.3016C54.4921 16.2577 54.3611 16.1699 54.2301 16.0382C54.1428 15.9065 54.0554 15.731 53.9681 15.5554C53.9245 15.3359 53.8808 15.1165 53.8808 14.8092V12.0001H54.623V14.7653C54.623 15.1165 54.6667 15.3798 54.7977 15.5115C54.9287 15.6432 55.1033 15.731 55.3216 15.731C55.5399 15.731 55.7146 15.6871 55.8456 15.5554C55.9765 15.4676 56.1075 15.3359 56.1948 15.2481V11.9562H56.9371M60.3427 16.2577V13.4924C60.3427 13.1413 60.299 12.8779 60.168 12.7023C60.0371 12.5268 59.8624 12.4829 59.6004 12.4829C59.3821 12.4829 59.2075 12.5268 59.0765 12.6584C58.9455 12.7462 58.8145 12.8779 58.7272 12.9657V16.2577H57.985V11.9562H58.6399V12.439C58.6399 12.3951 58.6836 12.3512 58.7709 12.2634C58.8145 12.1756 58.9019 12.1317 58.9892 12.0878C59.0765 12.0439 59.2075 11.9562 59.3385 11.9123C59.4695 11.8684 59.6004 11.8245 59.7751 11.8245C59.9497 11.8245 60.1244 11.8684 60.299 11.9123C60.4737 11.9562 60.561 12.0439 60.692 12.1756C60.7793 12.3073 60.8666 12.4829 60.9539 12.6584C60.9976 12.8779 61.0413 13.0974 61.0413 13.4046V16.2138M65.2328 12.5268H64.7088C64.8398 12.7462 64.9271 13.0096 64.9271 13.3168C64.9271 13.5363 64.8835 13.7558 64.7962 13.9313C64.7088 14.1069 64.6215 14.2825 64.4905 14.3703C64.3595 14.502 64.1849 14.5897 64.0102 14.6336C63.8356 14.7214 63.6173 14.7214 63.4426 14.7214H63.3117C63.268 14.7214 63.2243 14.7214 63.1807 14.7214C63.0934 14.7653 63.0497 14.8092 62.9624 14.8531C62.875 14.9409 62.8314 14.9848 62.8314 15.1165C62.8314 15.2043 62.875 15.292 62.9187 15.3359C63.006 15.3798 63.0934 15.4237 63.268 15.4237H63.7919C64.0102 15.4237 64.1849 15.4237 64.3595 15.4676C64.5342 15.5115 64.6652 15.5554 64.7962 15.6871C64.9271 15.7749 65.0145 15.9065 65.1018 16.0382C65.1891 16.1699 65.1891 16.3455 65.1891 16.5649C65.1891 16.7844 65.1454 17.0039 65.0581 17.1794C64.9708 17.355 64.8398 17.5306 64.6652 17.6623C64.4905 17.7939 64.2722 17.9256 64.0102 17.9695C63.7483 18.0573 63.4863 18.1012 63.137 18.1012C62.7004 18.1012 62.3511 18.0134 62.0891 17.7939C61.8708 17.5745 61.7399 17.3111 61.7399 16.9161C61.7399 16.7405 61.7835 16.6088 61.8272 16.521C61.8708 16.3894 61.9582 16.3016 62.0455 16.2138C62.1328 16.126 62.2201 16.0382 62.2638 15.9943C62.3511 15.9504 62.3948 15.9065 62.4384 15.8626C62.2638 15.731 62.1765 15.5115 62.1765 15.2481C62.1765 15.1165 62.1765 15.0287 62.2201 14.9409C62.2638 14.8531 62.3074 14.8092 62.3511 14.7214C62.3948 14.6775 62.4821 14.6336 62.5258 14.5897C62.5694 14.5459 62.6131 14.5459 62.6567 14.502C62.4384 14.4142 62.2638 14.2386 62.1328 14.0191C62.0018 13.7997 61.9145 13.5363 61.9145 13.1852C61.9145 12.9657 61.9582 12.7462 62.0455 12.5707C62.1328 12.3951 62.2201 12.2195 62.3511 12.1317C62.4821 12.0001 62.6567 11.9123 62.7877 11.8684C62.9624 11.8245 63.137 11.7806 63.3553 11.7806C63.5736 11.7806 63.7483 11.8245 63.9229 11.8684H65.2328M63.2243 16.126C63.0934 16.126 63.006 16.126 62.875 16.0821C62.8314 16.126 62.7877 16.1699 62.7004 16.1699C62.6567 16.2138 62.6131 16.2577 62.5694 16.3016C62.5258 16.3455 62.4821 16.4333 62.4821 16.521C62.4384 16.6088 62.4384 16.6966 62.4384 16.7844C62.4384 17.2233 62.7004 17.4867 63.1807 17.4867C63.6173 17.4867 63.9229 17.3989 64.1412 17.2233C64.3595 17.0478 64.4469 16.8722 64.4469 16.6527C64.4469 16.4333 64.4032 16.3016 64.2722 16.2138C64.1412 16.126 63.9666 16.0821 63.7483 16.0821M64.1849 13.3168C64.1849 13.0096 64.0976 12.7901 63.9666 12.6584C63.8356 12.5268 63.661 12.4829 63.4426 12.4829C63.2243 12.4829 63.0497 12.5268 62.9187 12.6584C62.7877 12.7901 62.7004 13.0096 62.7004 13.3168C62.7004 13.6241 62.7877 13.8436 62.9187 13.9752C63.0497 14.1069 63.2243 14.1508 63.4426 14.1508C63.661 14.1508 63.8356 14.1069 63.9666 13.9752C64.0976 13.8436 64.1849 13.6241 64.1849 13.3168ZM33.5782 25.2997H32.9233V24.8168C32.9233 24.8607 32.8796 24.9046 32.7923 24.9924C32.7487 25.0802 32.6613 25.1241 32.574 25.168C32.4867 25.2119 32.3557 25.2997 32.2247 25.3436C32.0937 25.3875 31.9628 25.4314 31.7881 25.4314C31.6135 25.4314 31.4388 25.3875 31.2642 25.3436C31.1332 25.2997 31.0022 25.2119 30.8712 25.0802C30.7839 24.9485 30.6966 24.773 30.6093 24.5974C30.5656 24.3779 30.5219 24.1584 30.5219 23.8512V21.042H31.2642V23.8073C31.2642 24.1585 31.3078 24.4218 31.4388 24.5535C31.5698 24.6852 31.7444 24.773 31.9628 24.773C32.1811 24.773 32.3557 24.7291 32.4867 24.5974C32.6177 24.5096 32.7487 24.3779 32.836 24.2901V20.9981H33.5782M37.0275 25.2997V22.5344C37.0275 22.1833 36.9838 21.9199 36.8528 21.7443C36.7218 21.5688 36.5472 21.5249 36.2852 21.5249C36.0669 21.5249 35.8923 21.5688 35.7613 21.7004C35.6303 21.7882 35.4993 21.9199 35.412 22.0077V25.2997H34.6698V20.9981H35.3247V21.481C35.3247 21.4371 35.3683 21.3932 35.4557 21.3054C35.4993 21.2176 35.5867 21.1737 35.674 21.1298C35.7613 21.0859 35.8923 20.9981 36.0233 20.9543C36.1543 20.9104 36.2852 20.8665 36.4599 20.8665C36.6345 20.8665 36.8092 20.9104 36.9838 20.9543C37.1585 20.9981 37.2895 21.0859 37.3768 21.2176C37.4641 21.3493 37.5514 21.5249 37.6387 21.7004C37.6824 21.9199 37.7261 22.1394 37.7261 22.4466V25.2558M38.643 23.1928C38.643 22.7539 38.6866 22.4027 38.8176 22.0955C38.9486 21.7882 39.0796 21.5688 39.2542 21.3932C39.4289 21.2176 39.6472 21.0859 39.8655 20.9981C40.0838 20.9104 40.3021 20.8665 40.5204 20.8665C40.6514 20.8665 40.7824 20.8665 40.8697 20.9104C40.957 20.9542 41.0443 20.9543 41.1317 20.9981V18.9352L41.8302 18.8474V25.2558H41.1753V24.8168C41.1753 24.8607 41.1317 24.9046 41.088 24.9485C41.0443 24.9924 40.957 25.0802 40.9133 25.1241C40.826 25.168 40.7387 25.2558 40.6077 25.2997C40.4767 25.3436 40.3457 25.3875 40.1711 25.3875C39.9528 25.3875 39.7782 25.3436 39.6035 25.2558C39.4289 25.168 39.2542 25.0363 39.1232 24.8607C38.9922 24.6852 38.8613 24.4657 38.8176 24.1584C38.6866 23.939 38.643 23.5878 38.643 23.1928ZM40.3021 24.773C40.4331 24.773 40.5204 24.773 40.6077 24.7291C40.695 24.6852 40.7824 24.6852 40.826 24.5974C40.8697 24.5535 40.957 24.5096 41.0007 24.4657C41.0443 24.4218 41.088 24.3779 41.088 24.334V21.7004C41.0007 21.6565 40.957 21.6126 40.8697 21.6126C40.7824 21.5688 40.695 21.5688 40.5641 21.5688C40.3894 21.5688 40.2584 21.6126 40.0838 21.6565C39.9528 21.7004 39.8218 21.7882 39.6908 21.9199C39.6035 22.0516 39.5162 22.2271 39.4289 22.4466C39.3852 22.6661 39.3415 22.9294 39.3415 23.1928C39.3415 23.5001 39.3852 23.7634 39.4289 23.939C39.4725 24.1584 39.5598 24.2901 39.6472 24.4218C39.7345 24.5535 39.8218 24.6413 39.9528 24.6852C40.0838 24.7291 40.2148 24.773 40.3021 24.773ZM44.9739 25.2997V19.1107H47.9865L47.9428 19.7252H45.7598V22.0077H47.7682V22.6222H45.7598V25.2997M48.5541 23.1489C48.5541 22.7539 48.5978 22.4027 48.6851 22.1394C48.7724 21.8321 48.9034 21.6126 49.078 21.4371C49.2527 21.2615 49.4273 21.1298 49.602 21.042C49.8203 20.9543 50.0386 20.9104 50.2569 20.9104C50.4752 20.9104 50.6935 20.9543 50.9118 21.042C51.1301 21.1298 51.3048 21.2615 51.4358 21.4371C51.5667 21.6126 51.6977 21.8321 51.785 22.1394C51.8724 22.4466 51.916 22.7539 51.916 23.1489C51.916 23.5439 51.8724 23.8951 51.785 24.1584C51.6977 24.4218 51.5667 24.6852 51.4358 24.8607C51.2611 25.0363 51.0865 25.168 50.8682 25.2558C50.6498 25.3436 50.4315 25.3875 50.2132 25.3875C49.9949 25.3875 49.7766 25.3436 49.5583 25.2558C49.34 25.168 49.1654 25.0363 49.0344 24.8607C48.9034 24.6852 48.7724 24.4657 48.6851 24.1584C48.5978 23.8951 48.5541 23.5439 48.5541 23.1489ZM51.1738 23.1489C51.1738 22.5783 51.0865 22.1833 50.9118 21.9199C50.7372 21.6565 50.5189 21.5249 50.2132 21.5249C49.9076 21.5249 49.6893 21.6565 49.5147 21.9199C49.34 22.1833 49.2527 22.5783 49.2527 23.1489C49.2527 23.7195 49.34 24.1146 49.5147 24.3779C49.6893 24.6413 49.9076 24.773 50.2132 24.773C50.5189 24.773 50.7372 24.6413 50.9118 24.3779C51.0865 24.1146 51.1738 23.7195 51.1738 23.1489ZM54.7104 21.6565C54.7104 21.6565 54.6667 21.6126 54.5794 21.6126C54.5357 21.6126 54.4484 21.5688 54.3174 21.5688C54.0991 21.5688 53.9245 21.6126 53.7935 21.7443C53.6625 21.876 53.5752 22.0077 53.5315 22.1394V25.2997H52.7893V20.9981H53.4442V21.5688C53.4878 21.481 53.5315 21.3932 53.5752 21.3054C53.6188 21.2176 53.6625 21.1737 53.7498 21.0859C53.8371 21.042 53.9245 20.9543 54.0118 20.9543C54.0991 20.9104 54.2301 20.9104 54.3611 20.9104C54.4484 20.9104 54.5357 20.9104 54.623 20.9543C54.6667 20.9543 54.7104 20.9981 54.754 20.9981M57.1991 21.876C57.1554 21.8321 57.0681 21.7443 56.9371 21.6565C56.8061 21.5688 56.6315 21.5249 56.4568 21.5249C56.2822 21.5249 56.1075 21.5688 56.0202 21.6565C55.9329 21.7443 55.8892 21.8321 55.8892 21.9638C55.8892 22.1394 55.9329 22.271 56.0202 22.3588C56.1075 22.4466 56.2385 22.5783 56.4568 22.71L56.7188 22.8855C57.0244 23.0611 57.2427 23.2367 57.4174 23.4562C57.592 23.6756 57.6793 23.8951 57.6793 24.2462C57.6793 24.5974 57.5484 24.8607 57.33 25.1241C57.1117 25.3436 56.7624 25.4752 56.3258 25.4752C56.1512 25.4752 56.0202 25.4752 55.8892 25.4314C55.7582 25.3875 55.6272 25.3436 55.5399 25.2997C55.4526 25.2558 55.3653 25.2119 55.278 25.1241C55.2343 25.0802 55.147 25.0363 55.1033 24.9485L55.4526 24.3779C55.4963 24.4218 55.5399 24.4657 55.5836 24.5096C55.6273 24.5535 55.7146 24.5974 55.7582 24.6413C55.8456 24.6852 55.8892 24.7291 55.9765 24.773C56.0639 24.8168 56.1512 24.8168 56.2822 24.8168C56.5005 24.8168 56.6751 24.773 56.7624 24.6852C56.8934 24.5974 56.9371 24.4657 56.9371 24.334C56.9371 24.2462 56.9371 24.1584 56.8934 24.0707C56.8498 23.9829 56.8061 23.939 56.7624 23.8512C56.7188 23.8073 56.6315 23.7195 56.5878 23.6756C56.5005 23.6317 56.4132 23.5439 56.3258 23.5001L56.0639 23.3245C55.8019 23.1489 55.5836 22.9733 55.4526 22.7978C55.3216 22.6222 55.2343 22.3588 55.2343 22.0516C55.2343 21.876 55.278 21.7443 55.3216 21.6126C55.3653 21.481 55.4526 21.3493 55.5836 21.2615C55.7146 21.1737 55.8456 21.0859 55.9765 21.042C56.1075 20.9981 56.2822 20.9543 56.4568 20.9543C56.6315 20.9543 56.7624 20.9543 56.8934 20.9981C57.0244 21.042 57.1117 21.0859 57.1991 21.1298C57.2864 21.1737 57.3737 21.2176 57.4174 21.2615C57.461 21.3054 57.5047 21.3493 57.5484 21.3932M60.8666 21.8321C60.8666 21.8321 60.823 21.7882 60.7793 21.7443C60.7356 21.7004 60.692 21.6565 60.6483 21.6565C60.6047 21.6126 60.5173 21.6126 60.43 21.5688C60.3427 21.5249 60.2554 21.5249 60.168 21.5249C59.9934 21.5249 59.8624 21.5688 59.7314 21.6126C59.6004 21.6565 59.4695 21.7443 59.3821 21.876C59.2948 22.0077 59.2075 22.1833 59.1638 22.3588C59.1202 22.5783 59.0765 22.7978 59.0765 23.105C59.0765 23.4123 59.1202 23.6756 59.1638 23.8951C59.2075 24.1146 59.2948 24.2901 59.3821 24.4218C59.4695 24.5535 59.6004 24.6413 59.6878 24.6852C59.8187 24.7291 59.9497 24.773 60.1244 24.773C60.3427 24.773 60.5173 24.7291 60.6483 24.6413C60.7793 24.5535 60.8666 24.5096 60.9103 24.4657L61.2159 24.9485C61.1723 24.9924 61.1286 25.0363 61.0849 25.0802C61.0413 25.1241 60.9539 25.168 60.8666 25.2119C60.7793 25.2558 60.6483 25.2997 60.561 25.3436C60.43 25.3875 60.299 25.3875 60.1244 25.3875C59.9061 25.3875 59.6878 25.3436 59.4695 25.2558C59.2511 25.168 59.0765 25.0363 58.9455 24.8607C58.7709 24.6852 58.6835 24.4657 58.5962 24.1584C58.5089 23.8512 58.4652 23.5001 58.4652 23.105C58.4652 22.71 58.5089 22.3588 58.6399 22.0516C58.7272 21.7443 58.9019 21.5249 59.0765 21.3493C59.2512 21.1737 59.4258 21.042 59.6441 20.9543C59.8624 20.8665 60.0807 20.8226 60.299 20.8226C60.4737 20.8226 60.6047 20.8226 60.7356 20.8665C60.8666 20.9104 60.9539 20.9543 61.0413 20.9981C61.1286 21.042 61.2159 21.0859 61.2596 21.1298C61.3032 21.1737 61.3469 21.2176 61.3906 21.2615M64.2722 25.2997V22.5344C64.2722 22.1833 64.2286 21.9199 64.0976 21.7443C63.9666 21.5688 63.7919 21.5249 63.53 21.5249C63.3117 21.5249 63.137 21.5688 63.006 21.7004C62.875 21.7882 62.7441 21.9199 62.6567 22.0077V25.2997H61.9145V18.9791L62.6567 18.8913V21.4371C62.7004 21.3932 62.7004 21.3493 62.7877 21.3054C62.8314 21.2615 62.9187 21.1737 63.006 21.1298C63.0934 21.0859 63.2243 20.9981 63.3117 20.9543C63.4426 20.9104 63.5736 20.9104 63.7483 20.9104C64.1412 20.9104 64.4032 21.042 64.6215 21.2615C64.8398 21.5249 64.9708 21.9199 64.9708 22.4905V25.2997M69.0313 25.2997H68.3764V24.8168C68.3764 24.8607 68.3327 24.9046 68.2454 24.9924C68.2017 25.0802 68.1144 25.1241 68.0271 25.168C67.9398 25.2119 67.8088 25.2997 67.6778 25.3436C67.5468 25.3875 67.4158 25.4314 67.2412 25.4314C67.0665 25.4314 66.8919 25.3875 66.7173 25.3436C66.5863 25.2997 66.4553 25.2119 66.3243 25.0802C66.237 24.9485 66.1497 24.773 66.0623 24.5974C66.0187 24.3779 65.975 24.1584 65.975 23.8512V21.042H66.7173V23.8073C66.7173 24.1585 66.7609 24.4218 66.8919 24.5535C67.0229 24.6852 67.1975 24.773 67.4158 24.773C67.6341 24.773 67.8088 24.7291 67.9398 24.5974C68.0708 24.5096 68.2017 24.3779 68.2891 24.2901V20.9981H69.0313M72.4806 25.2997V22.5344C72.4806 22.1833 72.4369 21.9199 72.3059 21.7443C72.1749 21.5688 72.0003 21.5249 71.7383 21.5249C71.52 21.5249 71.3454 21.5688 71.2144 21.7004C71.0834 21.7882 70.9524 21.9199 70.8651 22.0077V25.2997H70.1228V20.9981H70.7778V21.481C70.7778 21.4371 70.8214 21.3932 70.9088 21.3054C70.9524 21.2176 71.0397 21.1737 71.1271 21.1298C71.2144 21.0859 71.3454 20.9981 71.4763 20.9543C71.6073 20.9104 71.7383 20.8665 71.913 20.8665C72.0876 20.8665 72.2623 20.9104 72.4369 20.9543C72.6116 20.9981 72.6989 21.0859 72.8299 21.2176C72.9172 21.3493 73.0045 21.5249 73.0918 21.7004C73.1355 21.9199 73.1791 22.1394 73.1791 22.4466V25.2558M77.327 21.5688H76.8031C76.934 21.7882 77.0214 22.0516 77.0214 22.3588C77.0214 22.5783 76.9777 22.7978 76.8904 22.9733C76.803 23.1489 76.7157 23.3245 76.5847 23.4123C76.4538 23.5439 76.2791 23.6317 76.1045 23.6756C75.9298 23.7634 75.7115 23.7634 75.5369 23.7634H75.4059C75.3622 23.7634 75.3186 23.7634 75.2749 23.7634C75.1876 23.8073 75.1439 23.8512 75.0566 23.8951C74.9693 23.9829 74.9256 24.0268 74.9256 24.1584C74.9256 24.2462 74.9693 24.334 75.0129 24.3779C75.1003 24.4218 75.1876 24.4657 75.3622 24.4657H75.8862C76.1045 24.4657 76.2791 24.4657 76.4538 24.5096C76.6284 24.5535 76.7594 24.5974 76.8904 24.7291C77.0214 24.8168 77.1087 24.9485 77.196 25.0802C77.2833 25.2119 77.2833 25.3875 77.2833 25.6069C77.2833 25.8264 77.2397 26.0459 77.1523 26.2214C77.065 26.397 76.934 26.5726 76.7594 26.7043C76.5847 26.8359 76.3664 26.9676 76.1045 27.0115C75.8425 27.0993 75.5805 27.1432 75.2312 27.1432C74.7946 27.1432 74.4453 27.0554 74.1834 26.8359C73.9651 26.6165 73.8341 26.3531 73.8341 25.9581C73.8341 25.7825 73.8777 25.6508 73.9214 25.563C73.9651 25.4314 74.0524 25.3436 74.1397 25.2558C74.227 25.168 74.3143 25.0802 74.358 25.0363C74.4453 24.9924 74.489 24.9485 74.5326 24.9046C74.358 24.773 74.2707 24.5535 74.2707 24.2901C74.2707 24.1584 74.2707 24.0707 74.358 23.9829C74.4017 23.8951 74.4453 23.8512 74.489 23.7634C74.5327 23.7195 74.62 23.6756 74.6636 23.6317C74.7073 23.5878 74.751 23.5878 74.7946 23.5439C74.5763 23.4562 74.4017 23.2806 74.2707 23.0611C74.1397 22.8417 74.0524 22.5783 74.0524 22.2271C74.0524 22.0077 74.096 21.7882 74.1834 21.6126C74.2707 21.4371 74.358 21.2615 74.489 21.1737C74.62 21.042 74.751 20.9542 74.9256 20.9104C75.1003 20.8665 75.2749 20.8226 75.4932 20.8226C75.7115 20.8226 75.8862 20.8665 76.0608 20.9104H77.3706M75.3622 25.168C75.2312 25.168 75.1439 25.168 75.0129 25.1241C74.9693 25.168 74.9256 25.2119 74.8383 25.2119C74.751 25.2119 74.751 25.2997 74.7073 25.3436C74.6636 25.3875 74.62 25.4752 74.62 25.563C74.5763 25.6508 74.5763 25.7386 74.5763 25.8264C74.5763 26.2653 74.8383 26.5287 75.3186 26.5287C75.7552 26.5287 76.0608 26.4409 76.2791 26.2653C76.4974 26.0897 76.5847 25.9142 76.5847 25.6947C76.5847 25.4752 76.4974 25.3436 76.4101 25.2558C76.2791 25.168 76.1045 25.1241 75.8862 25.1241M76.2791 22.3149C76.2791 22.0077 76.1918 21.7882 76.0608 21.6565C75.9298 21.5249 75.7552 21.481 75.5369 21.481C75.3186 21.481 75.1439 21.5249 75.0129 21.6565C74.8819 21.7882 74.7946 22.0077 74.7946 22.3149C74.7946 22.6222 74.8819 22.8417 75.0129 22.9733C75.1439 23.105 75.3186 23.1489 75.5369 23.1489C75.7552 23.1489 75.9298 23.105 76.0608 22.9733C76.2354 22.8855 76.2791 22.6661 76.2791 22.3149Z" fill="black"/>
<path d="M24.0602 31.313H25.1954V46.3244H22.5757V31.313" fill="#F5CF00"/>
<path d="M24.0602 16.2137H25.1954V31.313H22.5757V16.2137" fill="#E6000C"/>
<path d="M15.7646 6.51341C16.5505 7.74242 17.1181 7.69852 18.0349 7.69852C17.2927 7.12791 16.8124 6.38173 16.5505 5.98669L15.1533 3.74814C15.0223 3.04585 14.673 2.38746 14.1054 1.90463C14.2801 1.81685 14.411 1.77295 14.542 1.68517C13.6251 1.68517 12.7083 1.20234 12.228 1.20234C11.9223 1.20234 11.704 1.37791 11.704 1.64127C11.704 1.90463 12.0097 2.21188 12.5336 2.21188C12.6646 2.21188 12.7956 2.21188 12.9702 2.16799C13.2759 2.56303 13.4942 2.95807 13.4942 3.48479C13.4942 4.45043 12.3153 5.24051 11.1364 5.24051C11.0491 5.24051 11.0055 5.24051 10.9181 5.24051C10.8308 4.97715 10.4379 4.58211 10.4379 4.14318C10.4379 3.35311 10.9618 2.7386 10.9618 1.94853C10.9618 1.4657 10.7435 1.15845 10.6562 1.02677C10.7872 0.89509 10.9618 0.719518 11.0055 0.631732C10.9181 0.675625 10.8308 0.675625 10.6562 0.675625C10.0886 0.675625 9.60829 0.543945 9.17168 0.543945C8.90971 0.543945 8.86605 0.631732 8.86605 0.719518C8.86605 0.763412 8.86605 0.763411 8.86605 0.807304C8.77872 0.763411 8.6914 0.763412 8.56042 0.719518C8.42943 0.675625 8.29845 0.675625 8.1238 0.675625C7.5562 0.675625 7.38156 0.895091 7.38156 1.11456C7.38156 1.29013 7.51254 1.59738 7.64353 1.81685C7.86184 1.72906 8.1238 1.64127 8.21113 1.64127C8.51676 1.64127 8.77872 1.90463 8.90971 2.25578C8.73506 2.29967 8.6914 2.29967 8.47309 2.29967C7.94916 2.29967 7.59987 2.1241 7.51254 2.1241C7.51254 2.21188 7.64353 2.38746 7.94916 2.51914C8.34211 2.65082 8.90971 2.7386 9.04069 2.7386C9.04069 2.7386 8.95337 2.95807 8.82239 2.95807C8.77873 2.95807 8.77873 2.95807 8.73506 2.95807C8.34211 2.87028 8.21113 2.82639 7.68719 2.65082H7.64353C7.64353 2.87028 8.16746 3.30921 8.64774 3.48479C8.25479 4.0115 7.77451 4.53822 7.51254 5.3283C7.46888 5.3283 7.38156 5.3283 7.3379 5.3283C6.15904 5.3283 4.98018 4.53822 4.98018 3.57257C4.98018 3.04585 5.19849 2.69471 5.50412 2.25578C5.67876 2.29967 5.80975 2.29967 5.94073 2.29967C6.46467 2.29967 6.7703 1.99242 6.7703 1.72906C6.7703 1.4657 6.55199 1.29013 6.24636 1.29013C5.76609 1.29013 4.8492 1.77295 3.93231 1.77295C4.01963 1.86074 4.19428 1.90463 4.36892 1.99242C3.84498 2.47524 3.49569 3.13364 3.32105 3.83593L1.92388 6.07448C1.70557 6.46952 1.18164 7.17181 0.439392 7.78631C1.35628 7.78631 1.96754 7.78631 2.70979 6.6012L3.40837 5.45998C3.45203 5.59166 3.53935 5.76723 3.58302 5.89891L2.14219 8.18135C1.92388 8.57639 1.39994 9.27868 0.657699 9.89318C1.57459 9.89318 2.14219 9.89318 2.92809 8.70807L4.15061 6.73288C4.23794 6.82066 4.32526 6.90845 4.45624 7.04013L2.70979 9.8054C2.49148 10.2004 1.96754 10.9027 1.2253 11.5172C2.14219 11.5172 2.70979 11.5611 3.49569 10.3321L5.19849 7.61074C5.32947 7.69853 5.4168 7.74242 5.54778 7.83021L3.49569 11.1661C3.27738 11.5611 2.75345 12.2634 2.0112 12.8779C2.92809 12.8779 3.49569 12.8779 4.2816 11.6928L6.42101 8.26914C6.55199 8.31303 6.68298 8.35692 6.81396 8.40082L4.41258 12.2634C4.19427 12.6584 3.67034 13.3607 2.92809 13.9752C3.84498 13.9752 4.41258 13.9752 5.19849 12.7901L7.77451 8.66417C7.81817 8.66417 7.81817 8.66417 7.86184 8.66417C7.94916 8.88364 7.99282 9.10311 7.99282 9.32257C7.99282 10.5955 7.16325 11.7367 6.15904 12.6146C6.2027 12.6584 6.33369 12.6585 6.42101 12.6585C6.63932 12.6585 6.7703 12.6584 6.85762 12.6146C6.63932 13.1413 6.11538 13.8436 5.85341 14.1947C5.50412 14.1508 5.02384 14.1069 4.71821 14.1069C4.36892 14.1069 4.36892 14.2825 4.36892 14.4581C4.36892 14.7653 4.49991 14.9848 4.67455 15.1165C4.71821 14.9409 4.8492 14.7653 5.46046 14.7653H5.50412C5.32947 14.9848 4.76187 15.4237 4.76187 15.7749C4.76187 16.0382 5.02384 16.3894 5.37313 16.3894C5.37313 16.3016 5.37313 16.2577 5.37313 16.1699C5.37313 15.8626 5.6351 15.5115 5.85341 15.292C5.85341 15.3798 5.85341 15.3359 5.85341 15.4237C5.85341 16.126 5.89707 16.4333 6.37735 16.4333C6.59565 16.4333 6.72664 16.3016 6.81396 16.2577C6.50833 15.9943 6.50833 15.7749 6.50833 15.3798V14.897C6.50833 14.8092 6.50833 14.6775 6.50833 14.5897C6.68298 14.5897 6.72664 14.5897 6.85762 14.5897C6.85762 14.5897 7.46888 14.5459 7.64353 14.8531C7.81817 14.6775 8.08014 14.4581 8.08014 14.2386C8.08014 14.063 7.99282 13.8875 7.68719 13.8875C7.5562 13.8875 7.16325 13.9752 6.85762 13.9752C6.94495 13.7997 7.3379 13.2291 7.64353 12.7901C7.68719 12.9657 7.77451 13.1413 7.94916 13.273C7.99282 13.0096 8.1238 12.1756 8.56042 11.6928C8.60408 12.0439 8.6914 12.3512 8.6914 13.0974C8.6914 14.8531 8.29845 16.126 7.38156 16.3455C7.51254 16.5649 7.73085 16.7405 7.99282 16.7405C8.29845 16.7405 8.47309 16.3894 8.6914 16.0382C8.77872 16.3016 9.04069 16.9161 9.30266 16.9161C9.56463 16.9161 9.8266 16.3016 9.91392 16.0382C10.0886 16.3894 10.2632 16.7405 10.6125 16.7405C10.8745 16.7405 11.0928 16.5649 11.2238 16.3455C10.3505 16.0821 9.91392 14.8092 9.91392 13.0974C9.91392 12.3951 9.95758 12.0439 10.0449 11.6928C10.4379 12.1756 10.6125 13.0096 10.6125 13.273C10.7872 13.1413 10.8745 12.9657 10.9181 12.7901C11.2674 13.1852 11.6167 13.7558 11.704 13.9752C11.3984 13.9752 11.0055 13.8875 10.8745 13.8875C10.5688 13.8875 10.4815 14.063 10.4815 14.2386C10.4815 14.502 10.7435 14.7214 10.9181 14.8531C11.0491 14.5459 11.704 14.5897 11.704 14.5897C11.835 14.5897 11.8787 14.5897 12.0533 14.5897C12.0533 14.6775 12.0533 14.8092 12.0533 14.897C12.0533 15.0287 12.0533 15.1165 12.0533 15.2481C12.0533 15.6432 12.0533 15.8626 11.7477 16.126C11.7914 16.1699 11.966 16.3016 12.1843 16.3016C12.6209 16.3016 12.7083 15.9943 12.7083 15.292C12.7083 15.2043 12.7083 15.2043 12.7083 15.1604C12.9266 15.3798 13.1885 15.731 13.1885 16.0382C13.1885 16.0821 13.1885 16.1699 13.1885 16.2577C13.5378 16.2577 13.7998 15.9065 13.7998 15.6432C13.7998 15.292 13.2322 14.8092 13.0575 14.6336C13.1012 14.6336 13.1012 14.6336 13.1012 14.6336C13.7125 14.6336 13.8435 14.8531 13.8871 14.9848C14.0618 14.8531 14.1927 14.6336 14.1927 14.3264C14.1927 14.1508 14.1491 13.9752 13.8435 13.9752C13.5378 13.9752 13.0575 14.0191 12.7083 14.063C12.4463 13.7119 11.966 13.0096 11.704 12.4829C11.7914 12.4829 11.9223 12.5268 12.1407 12.5268C12.228 12.5268 12.359 12.5268 12.4026 12.4829C11.3984 11.605 10.5252 10.4638 10.5252 9.19089C10.5252 8.97143 10.5688 8.79585 10.6562 8.5325C10.6998 8.5325 10.6998 8.5325 10.7435 8.5325L13.3195 12.6585C14.0618 13.8875 14.673 13.8436 15.5899 13.8436C14.8477 13.273 14.3674 12.5268 14.1054 12.1317L11.704 8.26914C11.835 8.22524 11.966 8.18135 12.097 8.13746L14.2364 11.5611C15.0223 12.7901 15.5899 12.7462 16.5068 12.7462C15.7646 12.1756 15.2843 11.4294 15.0223 11.0344L12.9702 7.69852C13.1012 7.65463 13.1885 7.56685 13.3195 7.47906L15.0223 10.2004C15.8082 11.4294 16.3758 11.3855 17.2927 11.3855C16.5505 10.8149 16.0702 10.0688 15.8082 9.67372L14.0618 6.90845C14.1491 6.82066 14.2801 6.73288 14.3674 6.6012L15.5899 8.57639C16.3758 9.8054 16.9434 9.7615 17.8603 9.7615C17.1181 9.19089 16.6378 8.44471 16.3758 8.04967L14.935 5.76723C15.0223 5.63555 15.066 5.45998 15.1096 5.3283M4.32526 3.87982C4.32526 3.00196 4.93652 2.34356 5.15483 2.16799C5.19849 2.16799 5.24215 2.21188 5.32947 2.21188C5.11117 2.47524 4.67455 2.95807 4.67455 3.61646C4.67455 4.88937 5.98439 5.9428 7.51254 5.9428C7.51254 6.03059 7.51254 6.16227 7.51254 6.29395C7.51254 6.46952 7.51254 6.64509 7.5562 6.82066C5.85341 6.73288 4.32526 5.37219 4.32526 3.87982ZM6.63932 14.1508C7.11959 14.1947 7.38156 14.1508 7.51254 14.1069C7.59987 14.1069 7.64353 14.1069 7.73085 14.1069C7.86184 14.1069 7.94916 14.1069 7.94916 14.2825C7.94916 14.3703 7.81817 14.5459 7.73085 14.6336C7.55621 14.4581 7.29424 14.4142 6.94494 14.4142C6.7703 14.4142 6.55199 14.4581 6.42101 14.4581V14.502C6.42101 14.5897 6.46467 14.7214 6.46467 14.897V15.0287V15.2043C6.46467 15.5993 6.50833 15.8626 6.68298 16.0382C6.63931 16.0382 6.59565 16.0821 6.55199 16.0821C6.29002 16.0821 6.24636 15.9504 6.24636 15.2481C6.24636 15.1165 6.24636 14.9848 6.24636 14.8531V14.7214L6.2027 14.7653C5.80975 15.0726 5.46046 15.5554 5.41679 15.9504C5.28581 15.8626 5.19849 15.731 5.19849 15.5993C5.19849 15.3798 5.50412 15.0726 5.89707 14.7214L6.11538 14.502H6.02805C5.94073 14.502 5.80975 14.4581 5.67876 14.4581C5.28581 14.4581 5.02384 14.5459 4.8492 14.7214C4.80553 14.6336 4.76187 14.4581 4.76187 14.3264C4.76187 14.2386 4.76187 14.1947 4.80554 14.1947C4.8492 14.1508 4.89286 14.1508 4.93652 14.1508C5.37313 14.1508 5.94073 14.2386 6.11538 14.2825C6.15904 14.2386 6.98861 13.0974 7.20691 12.4829C7.25058 12.4829 7.29424 12.439 7.38156 12.439C7.5562 12.439 7.59987 12.5707 7.64353 12.7462C7.11959 13.273 6.7703 13.7997 6.63932 14.1508ZM11.2674 12.3512C11.3547 12.3512 11.3984 12.3512 11.4421 12.3951C11.6604 13.0096 12.5336 14.1508 12.5773 14.1947C12.7956 14.1508 13.3195 14.063 13.7561 14.063C13.7998 14.063 13.8435 14.063 13.8871 14.1069C13.9308 14.1508 13.9308 14.1947 13.9308 14.2386C13.9308 14.3703 13.8871 14.5459 13.8435 14.6336C13.6688 14.4581 13.4505 14.3703 13.0139 14.3703C12.8829 14.3703 12.7519 14.4142 12.6646 14.4142H12.6209H12.5773L12.7956 14.6336C13.1449 14.9848 13.4942 15.3359 13.4942 15.5115C13.4942 15.6432 13.3632 15.8188 13.2759 15.8626C13.2322 15.4676 12.8829 14.9848 12.4899 14.6775L12.4463 14.6336V14.7653C12.4463 14.8531 12.4463 14.9848 12.4463 15.1604C12.4463 15.9065 12.359 15.9943 12.1407 15.9943C12.097 15.9943 12.0533 15.9943 12.0097 15.9504C12.1407 15.7749 12.228 15.5554 12.228 15.1165V14.9409V14.8092C12.228 14.6336 12.228 14.502 12.2716 14.4142V14.3703H12.228C12.097 14.3703 11.8787 14.3264 11.704 14.3264C11.3547 14.3264 11.0928 14.3703 10.9181 14.5459C10.7872 14.4581 10.6998 14.2825 10.6998 14.1947C10.6998 14.063 10.7872 14.0191 10.9181 14.0191C10.9618 14.0191 11.0491 14.0191 11.1364 14.0191C11.3111 14.0191 11.5294 14.063 12.0097 14.063H12.0533V14.0191C11.9223 13.668 11.6167 13.1413 11.0491 12.5268C11.0491 12.439 11.0928 12.3512 11.2674 12.3512ZM9.30266 2.34356C9.259 2.1241 9.12802 1.90463 8.99703 1.72906C8.86605 1.55349 8.64774 1.37792 8.34211 1.37792C8.21113 1.37792 7.99282 1.42181 7.86184 1.50959C7.81817 1.42181 7.68719 1.15845 7.68719 1.07066C7.68719 0.982877 7.86184 0.851198 8.21113 0.851198C8.99703 0.851198 9.43365 1.20234 9.43365 1.77295C9.43365 1.99242 9.34632 2.16799 9.30266 2.34356ZM9.60829 1.59738C9.56463 1.42181 9.52097 1.29013 9.43365 1.15845C9.43365 1.02677 9.52097 0.851197 9.73928 0.982877C9.60829 1.11456 9.69562 1.33402 9.69562 1.33402C9.69562 1.33402 9.95758 1.20234 9.91392 1.02677C10.3505 1.11456 10.0449 1.64127 9.60829 1.59738ZM11.1364 6.77677C11.1364 6.6012 11.1801 6.42562 11.1801 6.25005C11.1801 6.16227 11.1801 6.03059 11.1801 5.89891C12.6646 5.89891 13.9744 4.80158 13.9744 3.57257C13.9744 2.95807 13.5815 2.47524 13.3195 2.16799C13.3632 2.16799 13.4068 2.1241 13.4942 2.1241C13.7125 2.29967 14.3237 3.00196 14.3237 3.83593C14.2801 5.37219 12.8392 6.73288 11.1364 6.77677Z" fill="black"/>
<path d="M25.1954 1.24622V16.2577H22.5757V1.24622" fill="black"/>
</svg>
