<svg width="152" height="36" viewBox="0 0 152 36" fill="none" xmlns="http://www.w3.org/2000/svg">
<path d="M49.7871 27.9898C48.45 27.9898 47.1996 27.7466 46.0361 27.2604C44.89 26.7741 43.8827 26.1056 43.0144 25.2546C42.1461 24.3863 41.4689 23.3791 40.9826 22.233C40.5137 21.0694 40.2793 19.8278 40.2793 18.508C40.2793 17.1882 40.5137 15.9639 40.9826 14.8351C41.4689 13.6889 42.1375 12.6904 42.9884 11.8394C43.8567 10.9712 44.8639 10.3026 46.0101 9.83368C47.1562 9.34744 48.3979 9.10431 49.735 9.10431C51.0722 9.10431 52.3139 9.34744 53.46 9.83368C54.6062 10.3026 55.6134 10.9712 56.4817 11.8394C57.35 12.6904 58.0186 13.6889 58.4875 14.8351C58.9737 15.9812 59.2168 17.2142 59.2168 18.534C59.2168 19.8538 58.9737 21.0868 58.4875 22.233C58.0186 23.3791 57.35 24.3863 56.4817 25.2546C55.6308 26.1056 54.6322 26.7741 53.4861 27.2604C52.3399 27.7466 51.107 27.9898 49.7871 27.9898ZM49.735 24.6816C50.8986 24.6816 51.9145 24.4211 52.7828 23.9001C53.6684 23.3791 54.3544 22.6584 54.8406 21.738C55.3442 20.8176 55.596 19.7409 55.596 18.508C55.596 17.6049 55.4484 16.7801 55.1532 16.0333C54.8754 15.2866 54.4759 14.644 53.955 14.1057C53.434 13.55 52.8175 13.1245 52.1055 12.8293C51.3935 12.5341 50.6033 12.3865 49.735 12.3865C48.5889 12.3865 47.573 12.647 46.6873 13.1679C45.819 13.6716 45.1331 14.3836 44.6295 15.304C44.1432 16.2243 43.9001 17.2923 43.9001 18.508C43.9001 19.4284 44.039 20.2706 44.3169 21.0347C44.6121 21.7988 45.0115 22.45 45.5151 22.9884C46.0361 23.5267 46.6526 23.9435 47.3646 24.2387C48.094 24.5339 48.8841 24.6816 49.735 24.6816ZM58.0446 29.0578L49.6569 20.67L51.7929 18.508L60.2067 26.9218L58.0446 29.0578Z" fill="#4F46E5"/>
<path d="M67.5606 27.9637C66.4492 27.9637 65.4593 27.7293 64.5911 27.2604C63.7401 26.7915 63.0715 26.1403 62.5853 25.3067C62.099 24.4732 61.8559 23.5093 61.8559 22.4153V15.1216H65.2944V22.3372C65.2944 22.8581 65.3812 23.3096 65.5549 23.6917C65.7285 24.0564 65.989 24.3342 66.3363 24.5253C66.6836 24.7163 67.0917 24.8118 67.5606 24.8118C68.2726 24.8118 68.8283 24.5947 69.2278 24.1606C69.6272 23.7264 69.8269 23.1186 69.8269 22.3372V15.1216H73.2393V22.4153C73.2393 23.5267 72.9962 24.4992 72.5099 25.3328C72.041 26.1663 71.3724 26.8176 70.5042 27.2864C69.6532 27.738 68.672 27.9637 67.5606 27.9637Z" fill="#4F46E5"/>
<path d="M82.1043 27.9637C80.7497 27.9637 79.5428 27.6772 78.4835 27.1041C77.4415 26.5137 76.6166 25.7235 76.0088 24.7336C75.4184 23.7438 75.1231 22.6237 75.1231 21.3733C75.1231 20.1404 75.4184 19.0376 76.0088 18.0651C76.6166 17.0753 77.4241 16.2938 78.4314 15.7207C79.4559 15.1303 80.6108 14.8351 81.8959 14.8351C83.2504 14.8351 84.3879 15.139 85.3083 15.7468C86.2287 16.3372 86.958 17.1882 87.4964 18.2996L79.9682 25.6975L78.1188 23.8219L84.9175 17.1534L84.8133 19.5499C84.5876 18.9768 84.2403 18.534 83.7714 18.2214C83.3199 17.9088 82.7121 17.7525 81.948 17.7525C81.2186 17.7525 80.5847 17.9088 80.0464 18.2214C79.508 18.5166 79.0913 18.9334 78.796 19.4718C78.5182 20.0101 78.3793 20.6266 78.3793 21.3212C78.3793 22.068 78.5356 22.7279 78.8481 23.301C79.1607 23.8567 79.5949 24.2908 80.1506 24.6034C80.7237 24.916 81.3923 25.0723 82.1564 25.0723C82.8336 25.0723 83.4327 24.9681 83.9537 24.7597C84.4747 24.5339 84.9349 24.204 85.3343 23.7698L87.3401 25.7756C86.6975 26.505 85.9248 27.052 85.0217 27.4167C84.1361 27.7814 83.1636 27.9637 82.1043 27.9637Z" fill="#4F46E5"/>
<path d="M89.4645 27.7032V15.1216H92.8769V27.7032H89.4645ZM92.8769 20.7482L91.5484 19.8625C91.7047 18.3169 92.1562 17.1013 92.9029 16.2157C93.6497 15.3126 94.7264 14.8611 96.133 14.8611C96.7408 14.8611 97.2878 14.9653 97.7741 15.1737C98.2603 15.3647 98.7032 15.686 99.1026 16.1375L96.9666 18.5861C96.7755 18.3777 96.5411 18.2214 96.2633 18.1172C96.0028 18.013 95.6989 17.9609 95.3515 17.9609C94.6222 17.9609 94.023 18.1954 93.5542 18.6643C93.1027 19.1158 92.8769 19.8104 92.8769 20.7482Z" fill="#4F46E5"/>
<path d="M104.133 27.8074L98.8716 15.1216H102.571L106.061 24.8118H104.811L108.432 15.1216H112.157L106.556 27.7814L104.133 27.8074ZM100.643 32.9651L104.472 24.8639L106.556 27.7814L104.264 32.9651H100.643Z" fill="#4F46E5"/>
<path d="M119.473 27.9637C118.119 27.9637 116.912 27.6772 115.852 27.1041C114.81 26.5137 113.986 25.7235 113.378 24.7336C112.787 23.7438 112.492 22.6237 112.492 21.3733C112.492 20.1404 112.787 19.0376 113.378 18.0651C113.986 17.0753 114.793 16.2938 115.8 15.7207C116.825 15.1303 117.98 14.8351 119.265 14.8351C120.619 14.8351 121.757 15.139 122.677 15.7468C123.598 16.3372 124.327 17.1882 124.865 18.2996L117.337 25.6975L115.488 23.8219L122.286 17.1534L122.182 19.5499C121.957 18.9768 121.609 18.534 121.14 18.2214C120.689 17.9088 120.081 17.7525 119.317 17.7525C118.588 17.7525 117.954 17.9088 117.415 18.2214C116.877 18.5166 116.46 18.9334 116.165 19.4718C115.887 20.0101 115.748 20.6266 115.748 21.3212C115.748 22.068 115.905 22.7279 116.217 23.301C116.53 23.8567 116.964 24.2908 117.52 24.6034C118.093 24.916 118.761 25.0723 119.525 25.0723C120.203 25.0723 120.802 24.9681 121.323 24.7597C121.844 24.5339 122.304 24.204 122.703 23.7698L124.709 25.7756C124.067 26.505 123.294 27.052 122.391 27.4167C121.505 27.7814 120.533 27.9637 119.473 27.9637Z" fill="#4F46E5"/>
<path d="M126.833 27.7032V8.86987H130.246V27.7032H126.833Z" fill="#4F46E5"/>
<path d="M133.269 27.7032V8.86987H136.682V27.7032H133.269Z" fill="#4F46E5"/>
<path d="M144.967 27.9637C143.821 27.9637 142.788 27.6772 141.867 27.1041C140.947 26.531 140.226 25.7496 139.705 24.7597C139.184 23.7698 138.924 22.6584 138.924 21.4254C138.924 20.1751 139.184 19.055 139.705 18.0651C140.226 17.0753 140.947 16.2938 141.867 15.7207C142.788 15.1477 143.821 14.8611 144.967 14.8611C145.87 14.8611 146.678 15.0435 147.39 15.4081C148.102 15.7728 148.666 16.2851 149.083 16.945C149.517 17.5876 149.751 18.3169 149.786 19.1331V23.6656C149.751 24.4992 149.517 25.2373 149.083 25.8798C148.666 26.5223 148.102 27.0346 147.39 27.4167C146.678 27.7814 145.87 27.9637 144.967 27.9637ZM145.592 24.8118C146.547 24.8118 147.32 24.4992 147.911 23.874C148.501 23.2315 148.796 22.4066 148.796 21.3994C148.796 20.7395 148.657 20.1577 148.38 19.6541C148.119 19.1331 147.746 18.7337 147.259 18.4559C146.791 18.1606 146.235 18.013 145.592 18.013C144.967 18.013 144.411 18.1606 143.925 18.4559C143.456 18.7337 143.083 19.1331 142.805 19.6541C142.545 20.1577 142.414 20.7395 142.414 21.3994C142.414 22.0767 142.545 22.6758 142.805 23.1968C143.083 23.7004 143.456 24.0998 143.925 24.395C144.411 24.6729 144.967 24.8118 145.592 24.8118ZM148.614 27.7032V24.3169L149.161 21.2431L148.614 18.2214V15.1216H152V27.7032H148.614Z" fill="#4F46E5"/>
<path d="M4.77526 19.9064C5.65427 25.9855 10.886 30.656 17.2086 30.656C18.1017 30.656 18.973 30.5628 19.8133 30.3856L23.5847 34.1569C21.6119 34.9406 19.4605 35.3714 17.2086 35.3714C8.27835 35.3714 0.930436 28.5967 0.0239198 19.9064H4.77526Z" fill="#4F46E5"/>
<path d="M4.74212 16.5253C5.51358 10.3265 10.8009 5.5294 17.2086 5.5294C24.1471 5.5294 29.7719 11.1542 29.7719 18.0927C29.7719 19.837 29.4164 21.4982 28.7739 23.008L32.2926 26.5267C33.6904 24.0322 34.4873 21.1555 34.4873 18.0927C34.4873 8.54991 26.7513 0.813965 17.2086 0.813965C8.19415 0.813965 0.792014 7.71701 0 16.5253H4.74212Z" fill="#4F46E5"/>
<path fill-rule="evenodd" clip-rule="evenodd" d="M21.1631 26.7229C19.929 27.3154 18.5461 27.6474 17.0857 27.6474C11.8769 27.6474 7.6543 23.4248 7.6543 18.2159C7.6543 13.0071 11.8769 8.78455 17.0857 8.78455C22.2945 8.78455 26.5171 13.0071 26.5171 18.2159C26.5171 20.2487 25.874 22.1313 24.7802 23.6713L33.4503 32.3414L30.116 35.6758L21.1631 26.7229ZM21.8017 18.2159C21.8017 20.8205 19.6903 22.9319 17.0857 22.9319C14.4811 22.9319 12.3697 20.8205 12.3697 18.2159C12.3697 15.6114 14.4811 13.5 17.0857 13.5C19.6903 13.5 21.8017 15.6114 21.8017 18.2159Z" fill="#4F46E5"/>
</svg>
