<svg width="16" height="17" viewBox="0 0 16 17" fill="none" xmlns="http://www.w3.org/2000/svg">
<path fill-rule="evenodd" clip-rule="evenodd" d="M2.08296 7.51123H4.02863C4.11783 5.96484 4.41228 4.5403 4.86644 3.39351C3.41752 4.28258 2.37513 5.76971 2.08296 7.51123ZM8 0.51123C3.58172 0.51123 0 4.09295 0 8.51123C0 12.9295 3.58172 16.5112 8 16.5112C12.4183 16.5112 16 12.9295 16 8.51123C16 4.09295 12.4183 0.51123 8 0.51123ZM8 2.51123C7.92395 2.51123 7.76787 2.54296 7.5347 2.77307C7.29723 3.00743 7.03751 3.39613 6.79782 3.9554C6.40914 4.86233 6.12491 6.09682 6.03237 7.51123H9.96763C9.87509 6.09682 9.59086 4.86233 9.20218 3.9554C8.96249 3.39613 8.70277 3.00743 8.4653 2.77307C8.23213 2.54296 8.07605 2.51123 8 2.51123ZM11.9714 7.51123C11.8822 5.96484 11.5877 4.5403 11.1336 3.39351C12.5825 4.28258 13.6249 5.76971 13.917 7.51123H11.9714ZM9.96763 9.51123H6.03237C6.12491 10.9256 6.40914 12.1601 6.79782 13.0671C7.03751 13.6263 7.29723 14.015 7.5347 14.2494C7.76787 14.4795 7.92395 14.5112 8 14.5112C8.07605 14.5112 8.23213 14.4795 8.4653 14.2494C8.70277 14.015 8.96249 13.6263 9.20218 13.0671C9.59086 12.1601 9.87509 10.9256 9.96763 9.51123ZM11.1336 13.6289C11.5877 12.4822 11.8822 11.0576 11.9714 9.51123H13.917C13.6249 11.2528 12.5825 12.7399 11.1336 13.6289ZM4.86644 13.6289C4.41228 12.4822 4.11783 11.0576 4.02863 9.51123H2.08296C2.37513 11.2528 3.41752 12.7399 4.86644 13.6289Z" fill="#4F46E5"/>
</svg>
