<svg width="20" height="17" viewBox="0 0 20 17" fill="none" xmlns="http://www.w3.org/2000/svg">
<path d="M17.6675 4.53397C17.6793 4.70416 17.6793 4.87436 17.6793 5.04612C17.6793 10.2798 13.7027 16.3159 6.43127 16.3159V16.3128C4.28327 16.3159 2.1799 15.6995 0.371643 14.5371C0.683979 14.5748 0.99788 14.5936 1.31256 14.5944C3.09264 14.5959 4.82184 13.9975 6.22226 12.8955C4.53064 12.8634 3.04724 11.7583 2.52903 10.1449C3.1216 10.2595 3.73219 10.2359 4.3138 10.0767C2.46954 9.70338 1.1427 8.07985 1.1427 6.19436C1.1427 6.1771 1.1427 6.16063 1.1427 6.14416C1.69222 6.45083 2.3075 6.62103 2.93686 6.63985C1.19984 5.47671 0.664409 3.16142 1.71335 1.35122C3.72044 3.82573 6.68176 5.33004 9.86069 5.48926C9.5421 4.11357 9.97733 2.67201 11.0044 1.70495C12.5966 0.205338 15.1007 0.282201 16.5974 1.87671C17.4828 1.70181 18.3313 1.37632 19.1079 0.915142C18.8127 1.83201 18.1951 2.61083 17.3701 3.10573C18.1536 3.01318 18.9192 2.80299 19.6402 2.4822C19.1094 3.27906 18.4409 3.97318 17.6675 4.53397Z" fill="#4F46E5"/>
</svg>
