<svg width="80" height="80" viewBox="0 0 80 80" fill="none" xmlns="http://www.w3.org/2000/svg">
<rect x="0.281291" y="0.281291" width="79.4374" height="79.4374" rx="39.7187" fill="#D1FAE5" stroke="#10B981" stroke-width="0.562581"/>
<path d="M26.5555 42V34.2424H29.1767C29.7853 34.2424 30.2828 34.3523 30.6692 34.572C31.0581 34.7891 31.3459 35.0833 31.5328 35.4545C31.7197 35.8258 31.8131 36.2399 31.8131 36.697C31.8131 37.154 31.7197 37.5694 31.5328 37.9432C31.3485 38.3169 31.0631 38.6149 30.6767 38.8371C30.2904 39.0568 29.7954 39.1667 29.1919 39.1667H27.3131V38.3333H29.1616C29.5783 38.3333 29.9129 38.2614 30.1654 38.1174C30.4179 37.9735 30.601 37.779 30.7146 37.5341C30.8308 37.2866 30.8889 37.0076 30.8889 36.697C30.8889 36.3864 30.8308 36.1086 30.7146 35.8636C30.601 35.6187 30.4166 35.4268 30.1616 35.2879C29.9065 35.1465 29.5682 35.0758 29.1464 35.0758H27.4949V42H26.5555ZM34.0991 38.5V42H33.2052V34.2424H34.0991V37.0909H34.1749C34.3112 36.7904 34.5158 36.5518 34.7885 36.375C35.0637 36.1957 35.4299 36.1061 35.887 36.1061C36.2834 36.1061 36.6307 36.1856 36.9286 36.3447C37.2266 36.5013 37.4577 36.7424 37.6218 37.0682C37.7885 37.3914 37.8718 37.803 37.8718 38.303V42H36.9779V38.3636C36.9779 37.9015 36.8579 37.5442 36.618 37.2917C36.3807 37.0366 36.0511 36.9091 35.6294 36.9091C35.3365 36.9091 35.0738 36.971 34.8415 37.0947C34.6117 37.2184 34.4299 37.399 34.2961 37.6364C34.1648 37.8737 34.0991 38.1616 34.0991 38.5ZM41.8709 42.1212C41.3456 42.1212 40.8848 41.9962 40.4883 41.7462C40.0944 41.4962 39.7863 41.1465 39.5641 40.697C39.3444 40.2475 39.2345 39.7222 39.2345 39.1212C39.2345 38.5152 39.3444 37.9861 39.5641 37.5341C39.7863 37.0821 40.0944 36.7311 40.4883 36.4811C40.8848 36.2311 41.3456 36.1061 41.8709 36.1061C42.3961 36.1061 42.8557 36.2311 43.2497 36.4811C43.6461 36.7311 43.9542 37.0821 44.1739 37.5341C44.3961 37.9861 44.5072 38.5152 44.5072 39.1212C44.5072 39.7222 44.3961 40.2475 44.1739 40.697C43.9542 41.1465 43.6461 41.4962 43.2497 41.7462C42.8557 41.9962 42.3961 42.1212 41.8709 42.1212ZM41.8709 41.3182C42.2699 41.3182 42.5981 41.2159 42.8557 41.0114C43.1133 40.8068 43.304 40.5379 43.4277 40.2045C43.5514 39.8712 43.6133 39.5101 43.6133 39.1212C43.6133 38.7323 43.5514 38.3699 43.4277 38.0341C43.304 37.6982 43.1133 37.4268 42.8557 37.2197C42.5981 37.0126 42.2699 36.9091 41.8709 36.9091C41.4719 36.9091 41.1436 37.0126 40.886 37.2197C40.6285 37.4268 40.4378 37.6982 40.3141 38.0341C40.1903 38.3699 40.1285 38.7323 40.1285 39.1212C40.1285 39.5101 40.1903 39.8712 40.3141 40.2045C40.4378 40.5379 40.6285 40.8068 40.886 41.0114C41.1436 41.2159 41.4719 41.3182 41.8709 41.3182ZM48.4021 36.1818V36.9394H45.387V36.1818H48.4021ZM46.2658 34.7879H47.1597V40.3333C47.1597 40.5859 47.1963 40.7753 47.2696 40.9015C47.3453 41.0253 47.4413 41.1086 47.5574 41.1515C47.6761 41.1919 47.8011 41.2121 47.9324 41.2121C48.0309 41.2121 48.1117 41.2071 48.1749 41.197C48.238 41.1843 48.2885 41.1742 48.3264 41.1667L48.5082 41.9697C48.4476 41.9924 48.363 42.0152 48.2544 42.0379C48.1458 42.0631 48.0082 42.0758 47.8415 42.0758C47.589 42.0758 47.3415 42.0215 47.0991 41.9129C46.8592 41.8043 46.6597 41.6389 46.5006 41.4167C46.344 41.1944 46.2658 40.9141 46.2658 40.5758V34.7879ZM52.048 42.1212C51.5227 42.1212 51.0618 41.9962 50.6654 41.7462C50.2714 41.4962 49.9634 41.1465 49.7411 40.697C49.5214 40.2475 49.4116 39.7222 49.4116 39.1212C49.4116 38.5152 49.5214 37.9861 49.7411 37.5341C49.9634 37.0821 50.2714 36.7311 50.6654 36.4811C51.0618 36.2311 51.5227 36.1061 52.048 36.1061C52.5732 36.1061 53.0328 36.2311 53.4267 36.4811C53.8232 36.7311 54.1313 37.0821 54.351 37.5341C54.5732 37.9861 54.6843 38.5152 54.6843 39.1212C54.6843 39.7222 54.5732 40.2475 54.351 40.697C54.1313 41.1465 53.8232 41.4962 53.4267 41.7462C53.0328 41.9962 52.5732 42.1212 52.048 42.1212ZM52.048 41.3182C52.447 41.3182 52.7752 41.2159 53.0328 41.0114C53.2904 40.8068 53.481 40.5379 53.6048 40.2045C53.7285 39.8712 53.7904 39.5101 53.7904 39.1212C53.7904 38.7323 53.7285 38.3699 53.6048 38.0341C53.481 37.6982 53.2904 37.4268 53.0328 37.2197C52.7752 37.0126 52.447 36.9091 52.048 36.9091C51.649 36.9091 51.3207 37.0126 51.0631 37.2197C50.8055 37.4268 50.6149 37.6982 50.4911 38.0341C50.3674 38.3699 50.3055 38.7323 50.3055 39.1212C50.3055 39.5101 50.3674 39.8712 50.4911 40.2045C50.6149 40.5379 50.8055 40.8068 51.0631 41.0114C51.3207 41.2159 51.649 41.3182 52.048 41.3182Z" fill="black" fill-opacity="0.16"/>
</svg>
