<svg xmlns="http://www.w3.org/2000/svg" width="196" height="45" viewBox="0 0 196 45" fill="none">
<path d="M64.1996 35.0423C62.4753 35.0423 60.863 34.7288 59.3627 34.1018C57.8848 33.4748 56.586 32.6127 55.4663 31.5154C54.3467 30.3958 53.4734 29.097 52.8464 27.619C52.2418 26.1187 51.9395 24.5176 51.9395 22.8158C51.9395 21.1139 52.2418 19.5352 52.8464 18.0797C53.4734 16.6017 54.3355 15.3141 55.4327 14.2169C56.5524 13.0972 57.8512 12.2351 59.3291 11.6305C60.807 11.0035 62.4081 10.69 64.1324 10.69C65.8566 10.69 67.4577 11.0035 68.9357 11.6305C70.4136 12.2351 71.7124 13.0972 72.832 14.2169C73.9517 15.3141 74.8138 16.6017 75.4184 18.0797C76.0454 19.5576 76.3589 21.1475 76.3589 22.8493C76.3589 24.5512 76.0454 26.1411 75.4184 27.619C74.8138 29.097 73.9517 30.3958 72.832 31.5154C71.7348 32.6127 70.4472 33.4748 68.9693 34.1018C67.4913 34.7288 65.9014 35.0423 64.1996 35.0423ZM64.1324 30.7764C65.6327 30.7764 66.9427 30.4405 68.0623 29.7688C69.2044 29.097 70.0889 28.1677 70.7159 26.9808C71.3653 25.794 71.69 24.4057 71.69 22.8158C71.69 21.6513 71.4997 20.5877 71.119 19.6248C70.7607 18.6619 70.2457 17.8333 69.5739 17.1392C68.9021 16.4226 68.1071 15.874 67.189 15.4933C66.2709 15.1126 65.252 14.9223 64.1324 14.9223C62.6545 14.9223 61.3445 15.2582 60.2024 15.9299C59.0828 16.5793 58.1983 17.4974 57.5489 18.6843C56.9219 19.8711 56.6084 21.2483 56.6084 22.8158C56.6084 24.0026 56.7875 25.0886 57.1458 26.0739C57.5265 27.0592 58.0415 27.899 58.6909 28.5931C59.3627 29.2873 60.1577 29.8247 61.0758 30.2054C62.0163 30.5861 63.0351 30.7764 64.1324 30.7764ZM74.8474 36.4195L64.0316 25.6037L66.786 22.8158L77.6353 33.6651L74.8474 36.4195Z" fill="#ffffff"/>
<path d="M87.118 35.0087C85.6849 35.0087 84.4085 34.7064 83.2888 34.1018C82.1916 33.4972 81.3294 32.6574 80.7024 31.5826C80.0754 30.5077 79.7619 29.2649 79.7619 27.8542V18.4491H84.1957V27.7534C84.1957 28.4252 84.3077 29.0074 84.5316 29.5C84.7556 29.9703 85.0915 30.3286 85.5393 30.5749C85.9872 30.8212 86.5134 30.9444 87.118 30.9444C88.0361 30.9444 88.7527 30.6645 89.2677 30.1046C89.7828 29.5448 90.0403 28.7611 90.0403 27.7534V18.4491H94.4405V27.8542C94.4405 29.2873 94.127 30.5413 93.5 31.6162C92.8954 32.691 92.0333 33.5308 90.9136 34.1354C89.8164 34.7176 88.5512 35.0087 87.118 35.0087Z" fill="#ffffff"/>
<path d="M105.872 35.0087C104.125 35.0087 102.569 34.6392 101.203 33.9002C99.8591 33.1389 98.7955 32.12 98.0117 30.8436C97.2504 29.5672 96.8697 28.1229 96.8697 26.5106C96.8697 24.9207 97.2504 23.4987 98.0117 22.2447C98.7955 20.9683 99.8367 19.9607 101.136 19.2217C102.457 18.4603 103.946 18.0797 105.603 18.0797C107.35 18.0797 108.816 18.4715 110.003 19.2553C111.19 20.0166 112.13 21.1139 112.825 22.547L103.117 32.0864L100.732 29.668L109.499 21.0691L109.365 24.1593C109.074 23.4204 108.626 22.8493 108.021 22.4463C107.439 22.0432 106.655 21.8417 105.67 21.8417C104.73 21.8417 103.912 22.0432 103.218 22.4463C102.524 22.827 101.986 23.3644 101.606 24.0586C101.248 24.7527 101.068 25.5477 101.068 26.4434C101.068 27.4063 101.27 28.2572 101.673 28.9962C102.076 29.7128 102.636 30.2726 103.352 30.6757C104.091 31.0787 104.954 31.2803 105.939 31.2803C106.812 31.2803 107.585 31.1459 108.256 30.8772C108.928 30.5861 109.522 30.1606 110.037 29.6008L112.623 32.1872C111.795 33.1277 110.798 33.8331 109.634 34.3033C108.492 34.7736 107.238 35.0087 105.872 35.0087Z" fill="#ffffff"/>
<path d="M115.362 34.6728V18.4491H119.763V34.6728H115.362ZM119.763 25.7044L118.05 24.5624C118.251 22.5694 118.833 21.0019 119.796 19.8599C120.759 18.6955 122.148 18.1132 123.961 18.1132C124.745 18.1132 125.45 18.2476 126.077 18.5163C126.704 18.7626 127.275 19.1769 127.791 19.7591L125.036 22.9165C124.79 22.6478 124.488 22.4463 124.129 22.3119C123.793 22.1776 123.402 22.1104 122.954 22.1104C122.013 22.1104 121.241 22.4127 120.636 23.0173C120.054 23.5995 119.763 24.4952 119.763 25.7044Z" fill="#ffffff"/>
<path d="M134.278 34.8072L127.493 18.4491H132.262L136.763 30.9444H135.151L139.82 18.4491H144.623L137.402 34.7736L134.278 34.8072ZM129.777 41.4579L134.714 31.0116L137.402 34.7736L134.446 41.4579H129.777Z" fill="#ffffff"/>
<path d="M154.058 35.0087C152.311 35.0087 150.755 34.6392 149.389 33.9002C148.045 33.1389 146.982 32.12 146.198 30.8436C145.437 29.5672 145.056 28.1229 145.056 26.5106C145.056 24.9207 145.437 23.4987 146.198 22.2447C146.982 20.9683 148.023 19.9607 149.322 19.2217C150.643 18.4603 152.132 18.0797 153.789 18.0797C155.536 18.0797 157.003 18.4715 158.189 19.2553C159.376 20.0166 160.317 21.1139 161.011 22.547L151.304 32.0864L148.919 29.668L157.686 21.0691L157.551 24.1593C157.26 23.4204 156.812 22.8493 156.208 22.4463C155.625 22.0432 154.842 21.8417 153.856 21.8417C152.916 21.8417 152.099 22.0432 151.404 22.4463C150.71 22.827 150.173 23.3644 149.792 24.0586C149.434 24.7527 149.255 25.5477 149.255 26.4434C149.255 27.4063 149.456 28.2572 149.859 28.9962C150.262 29.7128 150.822 30.2726 151.539 30.6757C152.278 31.0787 153.14 31.2803 154.125 31.2803C154.998 31.2803 155.771 31.1459 156.443 30.8772C157.115 30.5861 157.708 30.1606 158.223 29.6008L160.809 32.1872C159.981 33.1277 158.984 33.8331 157.82 34.3033C156.678 34.7736 155.424 35.0087 154.058 35.0087Z" fill="#ffffff"/>
<path d="M163.549 34.6728V10.3877H167.949V34.6728H163.549Z" fill="#ffffff"/>
<path d="M171.848 34.6728V10.3877H176.248V34.6728H171.848Z" fill="#ffffff"/>
<path d="M186.932 35.0087C185.454 35.0087 184.121 34.6392 182.935 33.9002C181.748 33.1613 180.818 32.1536 180.147 30.8772C179.475 29.6008 179.139 28.1677 179.139 26.5778C179.139 24.9655 179.475 23.5211 180.147 22.2447C180.818 20.9683 181.748 19.9607 182.935 19.2217C184.121 18.4827 185.454 18.1132 186.932 18.1132C188.096 18.1132 189.137 18.3484 190.055 18.8186C190.974 19.2889 191.701 19.9495 192.239 20.8004C192.799 21.6289 193.101 22.5694 193.146 23.6219V29.4665C193.101 30.5413 192.799 31.493 192.239 32.3215C191.701 33.1501 190.974 33.8107 190.055 34.3033C189.137 34.7736 188.096 35.0087 186.932 35.0087ZM187.738 30.9444C188.969 30.9444 189.966 30.5413 190.727 29.7352C191.489 28.9066 191.869 27.843 191.869 26.5442C191.869 25.6932 191.69 24.9431 191.332 24.2937C190.996 23.6219 190.515 23.1069 189.888 22.7486C189.283 22.3679 188.566 22.1776 187.738 22.1776C186.932 22.1776 186.215 22.3679 185.588 22.7486C184.984 23.1069 184.502 23.6219 184.144 24.2937C183.808 24.9431 183.64 25.6932 183.64 26.5442C183.64 27.4175 183.808 28.1901 184.144 28.8618C184.502 29.5112 184.984 30.0263 185.588 30.407C186.215 30.7652 186.932 30.9444 187.738 30.9444ZM191.634 34.6728V30.3062L192.34 26.3426L191.634 22.4463V18.4491H196.001V34.6728H191.634Z" fill="#ffffff"/>
<path d="M6.15757 24.6192C7.29104 32.458 14.0372 38.4805 22.19 38.4805C23.3416 38.4805 24.4652 38.3603 25.5488 38.1318L30.4118 42.9948C27.8679 44.0054 25.0938 44.5609 22.19 44.5609C10.6747 44.5609 1.19977 35.8251 0.030844 24.6192H6.15757Z" fill="#ffffff"/>
<path d="M6.11484 20.2593C7.10962 12.2662 13.9274 6.08043 22.19 6.08043C31.137 6.08043 38.39 13.3334 38.39 22.2804C38.39 24.5297 37.9316 26.6718 37.1032 28.6186L41.6405 33.1559C43.4429 29.9393 44.4705 26.2299 44.4705 22.2804C44.4705 9.9753 34.4952 0 22.19 0C10.5661 0 1.02128 8.9013 0 20.2593H6.11484Z" fill="#ffffff"/>
<path fill-rule="evenodd" clip-rule="evenodd" d="M27.2903 33.4087C25.6991 34.1728 23.9158 34.6008 22.0326 34.6008C15.316 34.6008 9.87109 29.1559 9.87109 22.4393C9.87109 15.7226 15.316 10.2777 22.0326 10.2777C28.7493 10.2777 34.1942 15.7226 34.1942 22.4393C34.1942 25.0605 33.3649 27.488 31.9545 29.4738L43.1344 40.6537L38.8349 44.9532L27.2903 33.4087ZM28.1138 22.4393C28.1138 25.7978 25.3912 28.5204 22.0326 28.5204C18.6741 28.5204 15.9515 25.7978 15.9515 22.4393C15.9515 19.0807 18.6741 16.3581 22.0326 16.3581C25.3912 16.3581 28.1138 19.0807 28.1138 22.4393Z" fill="#ffffff"/>
</svg>