<svg width="477" height="721" viewBox="0 0 477 721" fill="none" xmlns="http://www.w3.org/2000/svg">
<path d="M66.7044 453.998C27.0384 438.468 7.4726 393.723 23.0029 354.057" stroke="#A7F3D0" stroke-linecap="round"/>
<path d="M338.056 477.371C285.474 611.671 133.976 677.917 -0.324219 625.335" stroke="#A7F3D0" stroke-linecap="round"/>
<path d="M194.334 452.739C233.346 397.783 220.42 321.607 165.464 282.595C110.508 243.583 34.3315 256.509 -4.68026 311.465" stroke="#A7F3D0" stroke-linecap="round"/>
<path d="M-121.366 446C-156.605 326.649 -88.4186 201.329 30.9326 166.09" stroke="#A7F3D0" stroke-linecap="round"/>
<path d="M25.4836 215.082C-66.805 253.398 -110.559 359.273 -72.2434 451.562C-33.928 543.851 71.9475 587.604 164.236 549.289" stroke="#A7F3D0" stroke-linecap="round"/>
<path d="M299.767 500.502C234.418 613.69 89.6853 652.471 -23.5025 587.122C-136.69 521.772 -175.471 377.04 -110.122 263.852" stroke="#A7F3D0" stroke-linecap="round"/>
<path d="M303.078 382.177C303.078 497.191 209.84 590.429 94.8261 590.429C-20.1883 590.429 -113.426 497.191 -113.426 382.177" stroke="#A7F3D0" stroke-linecap="round"/>
<path d="M337.114 522.063C414.371 388.25 368.523 217.143 234.71 139.886C100.897 62.6292 -70.2093 108.477 -147.466 242.29" stroke="#A7F3D0" stroke-linecap="round"/>
<path d="M346.9 382.177C346.9 521.394 234.042 634.253 94.8239 634.253C-44.3937 634.253 -157.252 521.394 -157.252 382.177" stroke="#A7F3D0" stroke-linecap="round"/>
<path d="M233.427 300.416C188.272 223.867 89.6118 198.418 13.063 243.573C-63.4859 288.728 -88.9356 387.388 -43.7805 463.937" stroke="#A7F3D0" stroke-linecap="round"/>
<path d="M168.202 338.892C192.107 379.418 178.634 431.649 138.109 455.554C97.5837 479.459 45.3525 465.986 21.4473 425.461" stroke="#A7F3D0" stroke-linecap="round"/>
<circle cx="94.8247" cy="382.177" r="294.848" stroke="#A7F3D0" stroke-linecap="round"/>
<path d="M-76.9616 302C-32.7995 207.213 79.8407 166.174 174.627 210.336C269.414 254.498 310.453 367.138 266.291 461.925" stroke="#A7F3D0" stroke-linecap="round"/>
<path d="M142.416 464.482C187.775 438.294 203.316 380.293 177.128 334.934C150.94 289.575 92.9393 274.034 47.5803 300.222" stroke="#A7F3D0" stroke-linecap="round"/>
<path d="M238.916 382.352C238.916 461.836 174.482 526.27 94.9982 526.27C15.5144 526.27 -48.9199 461.836 -48.9199 382.352" stroke="#A7F3D0" stroke-linecap="round"/>
</svg>
