<svg width="973" height="527" viewBox="0 0 973 527" fill="none" xmlns="http://www.w3.org/2000/svg">
<path d="M686.643 210.253C608.774 179.765 570.364 91.9246 600.852 14.0555" stroke="#A7F3D0" stroke-width="2" stroke-linecap="round"/>
<path d="M1219.34 256.137C1116.11 519.785 818.704 649.833 555.057 546.608" stroke="#A7F3D0" stroke-width="2" stroke-linecap="round"/>
<path d="M937.196 207.781C1013.78 99.8951 988.406 -49.6479 880.52 -126.233C772.635 -202.817 623.092 -177.443 546.507 -69.5569" stroke="#A7F3D0" stroke-width="2" stroke-linecap="round"/>
<path d="M317.437 194.551C248.259 -39.7494 382.117 -285.768 616.418 -354.946" stroke="#A7F3D0" stroke-width="2" stroke-linecap="round"/>
<path d="M605.722 -258.767C424.549 -183.55 338.655 24.2968 413.872 205.47C489.09 386.644 696.937 472.538 878.11 397.32" stroke="#A7F3D0" stroke-width="2" stroke-linecap="round"/>
<path d="M1144.17 301.544C1015.89 523.746 731.759 599.878 509.558 471.59C287.356 343.302 211.225 59.1738 339.513 -163.028" stroke="#A7F3D0" stroke-width="2" stroke-linecap="round"/>
<path d="M1150.67 69.2585C1150.67 295.045 967.634 478.082 741.847 478.082C516.06 478.082 333.023 295.045 333.023 69.2585" stroke="#A7F3D0" stroke-width="2" stroke-linecap="round"/>
<path d="M1217.49 343.872C1369.15 81.1807 1279.15 -254.721 1016.46 -406.386C753.766 -558.051 417.864 -468.047 266.199 -205.355" stroke="#A7F3D0" stroke-width="2" stroke-linecap="round"/>
<path d="M1217.43 69.2586C1217.43 -193.399 1004.5 -406.325 741.846 -406.325" stroke="#5139E8" stroke-opacity="0.2" stroke-width="2" stroke-linecap="round"/>
<path d="M1236.7 69.2585C1236.7 342.56 1015.15 564.114 741.845 564.114C468.544 564.114 246.99 342.56 246.99 69.2585" stroke="#A7F3D0" stroke-width="2" stroke-linecap="round"/>
<path d="M1013.94 -91.2472C925.296 -241.522 731.613 -291.483 581.338 -202.838C431.064 -114.193 381.103 79.4896 469.748 229.764" stroke="#A7F3D0" stroke-width="2" stroke-linecap="round"/>
<path d="M970.219 456.41C756.402 582.538 480.821 511.451 354.693 297.633C228.565 83.8157 299.652 -191.765 513.469 -317.893" stroke="#1C0E71" stroke-opacity="0.1" stroke-width="2" stroke-linecap="round"/>
<path d="M871.391 288.871C750.102 360.417 593.778 320.093 522.232 198.805C450.685 77.5161 491.009 -78.8077 612.298 -150.354" stroke="#5139E8" stroke-opacity="0.2" stroke-width="2" stroke-linecap="round"/>
<path d="M1184.56 368.392C1019.35 612.895 687.215 677.177 442.712 511.97C198.209 346.764 133.927 14.6281 299.133 -229.875" stroke="#5139E8" stroke-opacity="0.2" stroke-width="2" stroke-linecap="round"/>
<path d="M1052.48 -113.933C1153.72 57.6897 1096.66 278.886 925.041 380.124" stroke="#5139E8" stroke-opacity="0.2" stroke-width="2" stroke-linecap="round"/>
<path d="M885.894 -15.7137C932.823 63.8421 906.373 166.378 826.818 213.307C747.262 260.236 644.726 233.787 597.797 154.231" stroke="#A7F3D0" stroke-width="2" stroke-linecap="round"/>
<path d="M843.838 242.162C748.346 298.491 625.271 266.743 568.942 171.252C512.613 75.7599 544.36 -47.3152 639.852 -103.644" stroke="#5139E8" stroke-opacity="0.2" stroke-width="2" stroke-linecap="round"/>
<circle cx="741.846" cy="69.2585" r="578.822" stroke="#A7F3D0" stroke-width="2" stroke-linecap="round"/>
<path d="M1236.7 69.2585C1236.7 -204.042 1015.15 -425.597 741.845 -425.597C468.544 -425.597 246.99 -204.042 246.99 69.2585" stroke="#5139E8" stroke-opacity="0.2" stroke-width="2" stroke-linecap="round"/>
<path d="M741.845 458.811C526.701 458.811 352.293 284.402 352.293 69.2585C352.293 -145.885 526.701 -320.294 741.845 -320.294" stroke="#1C0E71" stroke-opacity="0.1" stroke-width="2" stroke-linecap="round"/>
<path d="M741.845 660.469C415.329 660.469 150.635 395.775 150.635 69.2584C150.635 -257.258 415.329 -521.952 741.845 -521.952" stroke="#5139E8" stroke-opacity="0.2" stroke-width="2" stroke-linecap="round"/>
<path d="M844.45 -313.668C1055.93 -257.001 1181.44 -39.6212 1124.77 171.863C1068.1 383.348 850.725 508.852 639.24 452.185" stroke="#1C0E71" stroke-opacity="0.1" stroke-width="2" stroke-linecap="round"/>
<path d="M844.45 -313.668C1055.93 -257.001 1181.44 -39.6212 1124.77 171.863C1068.1 383.348 850.725 508.852 639.24 452.185" stroke="#1C0E71" stroke-opacity="0.1" stroke-width="2" stroke-linecap="round"/>
<path d="M1269.74 69.2584C1269.74 -222.288 1033.39 -458.633 741.844 -458.633C450.298 -458.633 213.953 -222.288 213.953 69.2584" stroke="#1C0E71" stroke-opacity="0.1" stroke-width="2" stroke-linecap="round"/>
<path d="M1269.74 69.2584C1269.74 -222.288 1033.39 -458.633 741.844 -458.633C450.298 -458.633 213.953 -222.288 213.953 69.2584" stroke="#1C0E71" stroke-opacity="0.1" stroke-width="2" stroke-linecap="round"/>
<path d="M404.611 -88.1381C491.306 -274.216 712.433 -354.781 898.51 -268.085C1084.59 -181.389 1165.15 39.7368 1078.46 225.814" stroke="#A7F3D0" stroke-width="2" stroke-linecap="round"/>
<path d="M835.274 230.833C924.32 179.423 954.829 65.5612 903.418 -23.4839C852.008 -112.529 738.147 -143.038 649.102 -91.6279" stroke="#A7F3D0" stroke-width="2" stroke-linecap="round"/>
<path d="M1024.72 69.6025C1024.72 225.639 898.225 352.131 742.189 352.131C586.153 352.131 459.66 225.639 459.66 69.6025" stroke="#A7F3D0" stroke-width="2" stroke-linecap="round"/>
<path d="M910.505 436.077C707.761 529.286 467.844 440.492 374.635 237.748" stroke="#1C0E71" stroke-opacity="0.1" stroke-width="2" stroke-linecap="round"/>
<path d="M364.214 -301.406C569.064 -510.102 904.309 -513.22 1113 -308.371" stroke="#1C0E71" stroke-opacity="0.1" stroke-width="2" stroke-linecap="round"/>
<path d="M835.559 273.095C723.033 324.827 589.876 275.545 538.143 163.019C486.41 50.4932 535.693 -82.6646 648.219 -134.397" stroke="#1C0E71" stroke-opacity="0.1" stroke-width="2" stroke-linecap="round"/>
<path d="M682.912 -58.5229C753.471 -90.9616 836.967 -60.0592 869.405 10.4995" stroke="#1C0E71" stroke-opacity="0.1" stroke-width="2" stroke-linecap="round"/>
<path d="M466.299 -56.5049C535.835 -208.647 715.54 -275.612 867.682 -206.076C1019.82 -136.54 1086.79 43.1652 1017.25 195.307" stroke="#5139E8" stroke-opacity="0.2" stroke-width="2" stroke-linecap="round"/>
<path d="M623.67 -339.883C849.634 -405.006 1085.61 -274.619 1150.73 -48.6554C1215.85 177.308 1085.47 413.281 859.502 478.404" stroke="#5139E8" stroke-opacity="0.2" stroke-width="2" stroke-linecap="round"/>
<path d="M741.825 544.54C1004.43 544.584 1217.34 331.738 1217.39 69.1362" stroke="#5139E8" stroke-opacity="0.2" stroke-width="2" stroke-linecap="round"/>
<path d="M741.66 401.777C558.025 401.746 409.184 252.855 409.215 69.2204C409.246 -114.415 558.136 -263.255 741.771 -263.224" stroke="#5139E8" stroke-opacity="0.2" stroke-width="2" stroke-linecap="round"/>
<path d="M874.726 -22.5687C924.568 49.9509 905.379 149.698 831.866 200.223" stroke="#1C0E71" stroke-opacity="0.1" stroke-width="2" stroke-linecap="round"/>
<path d="M997.804 -439.079C1274.73 -299.501 1384.52 41.2158 1243.03 321.933C1101.54 602.651 762.348 717.067 485.424 577.489" stroke="#1C0E71" stroke-opacity="0.1" stroke-width="2" stroke-linecap="round"/>
<path d="M961.198 -81.9633C1043.35 37.5736 1011.72 201.991 890.55 285.272C769.375 368.554 604.543 339.164 522.387 219.627" stroke="#1C0E71" stroke-opacity="0.1" stroke-width="2" stroke-linecap="round"/>
<path d="M1110.06 -16.9882C1062.88 -217.596 859.777 -341.447 656.422 -293.619" stroke="#1C0E71" stroke-opacity="0.1" stroke-width="2" stroke-linecap="round"/>
</svg>
