<svg width="36" height="36" viewBox="0 0 36 36" fill="none" xmlns="http://www.w3.org/2000/svg">
<path fill-rule="evenodd" clip-rule="evenodd" d="M12.989 5.01123C13.2606 5.01129 13.5248 5.09981 13.7416 5.26339C13.9584 5.42698 14.1161 5.65674 14.1907 5.9179L15.5457 10.6612C15.8374 11.6828 16.3848 12.6131 17.136 13.3643C17.8872 14.1155 18.8175 14.6628 19.839 14.9546L24.5823 16.3096C24.8433 16.3843 25.0729 16.542 25.2363 16.7588C25.3997 16.9756 25.4881 17.2397 25.4881 17.5112C25.4881 17.7827 25.3997 18.0468 25.2363 18.2636C25.0729 18.4804 24.8433 18.6381 24.5823 18.7129L19.839 20.0679C18.8175 20.3596 17.8872 20.907 17.136 21.6582C16.3848 22.4094 15.8374 23.3397 15.5457 24.3612L14.1907 29.1046C14.1159 29.3656 13.9582 29.5951 13.7414 29.7585C13.5246 29.9219 13.2605 30.0103 12.989 30.0103C12.7175 30.0103 12.4534 29.9219 12.2366 29.7585C12.0198 29.5951 11.8621 29.3656 11.7873 29.1046L10.4323 24.3612C10.1406 23.3397 9.59327 22.4094 8.84206 21.6582C8.09085 20.907 7.16054 20.3596 6.13901 20.0679L1.39568 18.7129C1.13469 18.6381 0.905132 18.4804 0.741718 18.2636C0.578303 18.0468 0.489914 17.7827 0.489914 17.5112C0.489914 17.2397 0.578303 16.9756 0.741718 16.7588C0.905132 16.542 1.13469 16.3843 1.39568 16.3096L6.13901 14.9546C7.16054 14.6628 8.09085 14.1155 8.84206 13.3643C9.59327 12.6131 10.1406 11.6828 10.4323 10.6612L11.7873 5.9179C11.8619 5.65674 12.0196 5.42698 12.2364 5.26339C12.4532 5.09981 12.7174 5.01129 12.989 5.01123ZM27.989 0.0112307C28.2679 0.0110754 28.5388 0.10417 28.7586 0.275708C28.9785 0.447245 29.1347 0.687373 29.2024 0.957897L29.6323 2.68456C30.0257 4.25123 31.249 5.47456 32.8157 5.8679L34.5423 6.2979C34.8134 6.36503 35.0542 6.52099 35.2262 6.7409C35.3983 6.9608 35.4918 7.232 35.4918 7.51123C35.4918 7.79046 35.3983 8.06166 35.2262 8.28157C35.0542 8.50147 34.8134 8.65743 34.5423 8.72456L32.8157 9.15456C31.249 9.5479 30.0257 10.7712 29.6323 12.3379L29.2024 14.0646C29.1352 14.3356 28.9793 14.5764 28.7593 14.7484C28.5394 14.9205 28.2682 15.014 27.989 15.014C27.7098 15.014 27.4386 14.9205 27.2187 14.7484C26.9988 14.5764 26.8428 14.3356 26.7757 14.0646L26.3457 12.3379C26.1534 11.5686 25.7556 10.8661 25.1949 10.3054C24.6342 9.74465 23.9316 9.34688 23.1623 9.15456L21.4357 8.72456C21.1646 8.65743 20.9239 8.50147 20.7518 8.28157C20.5797 8.06166 20.4862 7.79046 20.4862 7.51123C20.4862 7.232 20.5797 6.9608 20.7518 6.7409C20.9239 6.52099 21.1646 6.36503 21.4357 6.2979L23.1623 5.8679C23.9316 5.67558 24.6342 5.27781 25.1949 4.71711C25.7556 4.1564 26.1534 3.45385 26.3457 2.68456L26.7757 0.957897C26.8433 0.687373 26.9995 0.447245 27.2194 0.275708C27.4393 0.10417 27.7102 0.0110754 27.989 0.0112307ZM25.489 22.5112C25.7515 22.5111 26.0075 22.5936 26.2204 22.7471C26.4334 22.9005 26.5927 23.1172 26.6757 23.3662L27.3323 25.3379C27.5823 26.0829 28.1657 26.6696 28.9123 26.9179L30.884 27.5762C31.1323 27.6596 31.3481 27.8188 31.501 28.0314C31.6539 28.2441 31.7362 28.4993 31.7362 28.7612C31.7362 29.0231 31.6539 29.2784 31.501 29.491C31.3481 29.7037 31.1323 29.8629 30.884 29.9462L28.9123 30.6046C28.1674 30.8546 27.5807 31.4379 27.3323 32.1846L26.674 34.1562C26.5907 34.4045 26.4314 34.6203 26.2188 34.7732C26.0062 34.9261 25.7509 35.0084 25.489 35.0084C25.2271 35.0084 24.9718 34.9261 24.7592 34.7732C24.5466 34.6203 24.3874 34.4045 24.304 34.1562L23.6457 32.1846C23.5229 31.8167 23.3162 31.4824 23.042 31.2082C22.7678 30.934 22.4335 30.7273 22.0657 30.6046L20.094 29.9462C19.8457 29.8629 19.6299 29.7037 19.477 29.491C19.3241 29.2784 19.2418 29.0231 19.2418 28.7612C19.2418 28.4993 19.3241 28.2441 19.477 28.0314C19.6299 27.8188 19.8457 27.6596 20.094 27.5762L22.0657 26.9179C22.8107 26.6679 23.3973 26.0846 23.6457 25.3379L24.304 23.3662C24.3869 23.1174 24.5459 22.901 24.7586 22.7475C24.9712 22.5941 25.2268 22.5114 25.489 22.5112Z" fill="#4F46E5"/>
</svg>
