<svg width="30" height="31" viewBox="0 0 30 31" fill="none" xmlns="http://www.w3.org/2000/svg">
<path d="M5 0.51123C3.67392 0.51123 2.40215 1.03801 1.46447 1.9757C0.526784 2.91338 0 4.18515 0 5.51123V8.01123C0 8.34275 0.131696 8.66069 0.366116 8.89511C0.600537 9.12953 0.918479 9.26123 1.25 9.26123C1.58152 9.26123 1.89946 9.12953 2.13388 8.89511C2.3683 8.66069 2.5 8.34275 2.5 8.01123V5.51123C2.5 4.84819 2.76339 4.2123 3.23223 3.74346C3.70107 3.27462 4.33696 3.01123 5 3.01123H7.5C7.83152 3.01123 8.14946 2.87953 8.38388 2.64511C8.6183 2.41069 8.75 2.09275 8.75 1.76123C8.75 1.42971 8.6183 1.11177 8.38388 0.877347C8.14946 0.642926 7.83152 0.51123 7.5 0.51123H5ZM22.5 0.51123C22.1685 0.51123 21.8505 0.642926 21.6161 0.877347C21.3817 1.11177 21.25 1.42971 21.25 1.76123C21.25 2.09275 21.3817 2.41069 21.6161 2.64511C21.8505 2.87953 22.1685 3.01123 22.5 3.01123H25C25.663 3.01123 26.2989 3.27462 26.7678 3.74346C27.2366 4.2123 27.5 4.84819 27.5 5.51123V8.01123C27.5 8.34275 27.6317 8.66069 27.8661 8.89511C28.1005 9.12953 28.4185 9.26123 28.75 9.26123C29.0815 9.26123 29.3995 9.12953 29.6339 8.89511C29.8683 8.66069 30 8.34275 30 8.01123V5.51123C30 4.18515 29.4732 2.91338 28.5355 1.9757C27.5979 1.03801 26.3261 0.51123 25 0.51123H22.5ZM15 9.26123C13.3424 9.26123 11.7527 9.91971 10.5806 11.0918C9.40848 12.2639 8.75 13.8536 8.75 15.5112C8.75 17.1688 9.40848 18.7585 10.5806 19.9306C11.7527 21.1027 13.3424 21.7612 15 21.7612C16.6576 21.7612 18.2473 21.1027 19.4194 19.9306C20.5915 18.7585 21.25 17.1688 21.25 15.5112C21.25 13.8536 20.5915 12.2639 19.4194 11.0918C18.2473 9.91971 16.6576 9.26123 15 9.26123ZM2.5 23.0112C2.5 22.6797 2.3683 22.3618 2.13388 22.1273C1.89946 21.8929 1.58152 21.7612 1.25 21.7612C0.918479 21.7612 0.600537 21.8929 0.366116 22.1273C0.131696 22.3618 0 22.6797 0 23.0112V25.5112C0 26.8373 0.526784 28.1091 1.46447 29.0468C2.40215 29.9844 3.67392 30.5112 5 30.5112H7.5C7.83152 30.5112 8.14946 30.3795 8.38388 30.1451C8.6183 29.9107 8.75 29.5928 8.75 29.2612C8.75 28.9297 8.6183 28.6118 8.38388 28.3773C8.14946 28.1429 7.83152 28.0112 7.5 28.0112H5C4.33696 28.0112 3.70107 27.7478 3.23223 27.279C2.76339 26.8102 2.5 26.1743 2.5 25.5112V23.0112ZM30 23.0112C30 22.6797 29.8683 22.3618 29.6339 22.1273C29.3995 21.8929 29.0815 21.7612 28.75 21.7612C28.4185 21.7612 28.1005 21.8929 27.8661 22.1273C27.6317 22.3618 27.5 22.6797 27.5 23.0112V25.5112C27.5 26.1743 27.2366 26.8102 26.7678 27.279C26.2989 27.7478 25.663 28.0112 25 28.0112H22.5C22.1685 28.0112 21.8505 28.1429 21.6161 28.3773C21.3817 28.6118 21.25 28.9297 21.25 29.2612C21.25 29.5928 21.3817 29.9107 21.6161 30.1451C21.8505 30.3795 22.1685 30.5112 22.5 30.5112H25C26.3261 30.5112 27.5979 29.9844 28.5355 29.0468C29.4732 28.1091 30 26.8373 30 25.5112V23.0112Z" fill="#4F46E5"/>
</svg>
