<svg width="33" height="35" viewBox="0 0 33 35" fill="none" xmlns="http://www.w3.org/2000/svg">
<path fill-rule="evenodd" clip-rule="evenodd" d="M17.3545 1.1279C17.1223 0.907747 16.8145 0.785034 16.4945 0.785034C16.1745 0.785034 15.8667 0.907747 15.6345 1.1279C12.0966 4.4877 7.38473 6.33011 2.50618 6.26123C2.24041 6.25777 1.98045 6.33913 1.76406 6.49348C1.54767 6.64783 1.38611 6.86714 1.30285 7.11956C0.599473 9.26317 0.242215 11.5052 0.244518 13.7612C0.244518 23.6646 7.01785 31.9829 16.1829 34.3412C16.3873 34.3939 16.6017 34.3939 16.8062 34.3412C25.9712 31.9829 32.7445 23.6646 32.7445 13.7612C32.7445 11.4446 32.3728 9.21123 31.6862 7.11956C31.6032 6.86683 31.4418 6.64716 31.2254 6.49249C31.0089 6.33782 30.7488 6.25622 30.4828 6.25956L30.2445 6.26123C25.2512 6.26123 20.7162 4.31123 17.3545 1.1279ZM22.5112 14.4879C22.6112 14.3546 22.6835 14.2028 22.724 14.0411C22.7645 13.8795 22.7722 13.7115 22.7468 13.5468C22.7213 13.3822 22.6633 13.2243 22.5759 13.0824C22.4886 12.9405 22.3738 12.8175 22.2383 12.7206C22.1027 12.6238 21.9492 12.555 21.7867 12.5183C21.6242 12.4816 21.456 12.4778 21.292 12.507C21.128 12.5362 20.9715 12.598 20.8316 12.6886C20.6918 12.7792 20.5716 12.8968 20.4779 13.0346L15.0845 20.5846L12.3779 17.8779C12.1409 17.6571 11.8275 17.5369 11.5036 17.5426C11.1798 17.5483 10.8708 17.6795 10.6418 17.9085C10.4128 18.1375 10.2816 18.4465 10.2759 18.7704C10.2702 19.0942 10.3904 19.4076 10.6112 19.6446L14.3612 23.3946C14.4895 23.5228 14.6442 23.6215 14.8145 23.684C14.9848 23.7464 15.1667 23.771 15.3475 23.7561C15.5282 23.7412 15.7036 23.6871 15.8614 23.5976C16.0192 23.5082 16.1556 23.3854 16.2612 23.2379L22.5112 14.4879Z" fill="#4F46E5"/>
</svg>
