<svg width="29" height="29" viewBox="0 0 29 29" fill="none" xmlns="http://www.w3.org/2000/svg">
<path fill-rule="evenodd" clip-rule="evenodd" d="M14 7.18334C13.9997 6.09001 14.2555 5.01181 14.747 4.03515C15.2384 3.05849 15.9518 2.21052 16.8299 1.55919C17.7081 0.907868 18.7266 0.471301 19.8039 0.284474C20.8811 0.0976472 21.9872 0.165756 23.0333 0.483344C23.1987 0.533436 23.3483 0.625517 23.4674 0.75061C23.5866 0.875702 23.6713 1.02954 23.7134 1.19712C23.7554 1.36471 23.7533 1.54033 23.7073 1.70686C23.6612 1.87339 23.5728 2.02515 23.4507 2.14734L19.024 6.57268C19.108 7.20601 19.392 7.81801 19.8787 8.30468C20.3653 8.79134 20.9773 9.07534 21.612 9.15801L26.036 4.73268C26.1582 4.61053 26.31 4.52213 26.4765 4.47609C26.643 4.43006 26.8186 4.42795 26.9862 4.46998C27.1538 4.51201 27.3076 4.59674 27.4327 4.71592C27.5578 4.8351 27.6499 4.98465 27.7 5.15001C28.0323 6.24448 28.0913 7.40371 27.8719 8.52627C27.6525 9.64884 27.1614 10.7005 26.4415 11.5894C25.7216 12.4782 24.7948 13.1771 23.7423 13.6249C22.6898 14.0727 21.5436 14.2557 20.404 14.158C19.0467 14.0433 17.9107 14.2913 17.3253 15.0033L7.79201 26.5833C7.40166 27.055 6.91712 27.44 6.3694 27.7136C5.82168 27.9872 5.22287 28.1434 4.61129 28.1722C3.99971 28.2011 3.38886 28.1019 2.81784 27.881C2.24682 27.6601 1.72822 27.3224 1.29524 26.8895C0.862266 26.4566 0.524459 25.9381 0.303449 25.3671C0.0824397 24.7962 -0.0169008 24.1853 0.0117886 23.5737C0.040478 22.9622 0.196565 22.3633 0.470055 21.8155C0.743546 21.2678 1.12841 20.7831 1.60001 20.3927L13.1787 10.858C13.8893 10.2713 14.1387 9.13668 14.024 7.77934C14.0077 7.5811 13.9997 7.38226 14 7.18334ZM3.48934 23.6833C3.48934 23.4181 3.5947 23.1638 3.78224 22.9762C3.96977 22.7887 4.22413 22.6833 4.48934 22.6833H4.50001C4.76523 22.6833 5.01958 22.7887 5.20712 22.9762C5.39465 23.1638 5.50001 23.4181 5.50001 23.6833V23.694C5.50001 23.9592 5.39465 24.2136 5.20712 24.4011C5.01958 24.5887 4.76523 24.694 4.50001 24.694H4.48934C4.22413 24.694 3.96977 24.5887 3.78224 24.4011C3.5947 24.2136 3.48934 23.9592 3.48934 23.694V23.6833Z" fill="#4F46E5"/>
</svg>
