<svg width="29" height="29" viewBox="0 0 29 29" fill="none" xmlns="http://www.w3.org/2000/svg">
<path d="M18 7.116C18 6.64267 18.248 6.21467 18.5347 5.83733C18.8293 5.45067 19 4.992 19 4.5C19 3.11867 17.6573 2 16 2C14.3427 2 13 3.12 13 4.5C13 4.992 13.1707 5.45067 13.4653 5.83733C13.752 6.21467 14 6.64267 14 7.116C14.0006 7.23033 13.9782 7.34361 13.9341 7.44911C13.8901 7.55462 13.8253 7.65019 13.7435 7.73016C13.6618 7.81013 13.5649 7.87287 13.4585 7.91464C13.352 7.95641 13.2383 7.97637 13.124 7.97333C11.2689 7.91989 9.41694 7.78644 7.57333 7.57333C7.82133 9.724 7.964 11.9067 7.99333 14.116C7.99457 14.2319 7.97277 14.3468 7.9292 14.4542C7.88563 14.5616 7.82116 14.6592 7.73954 14.7415C7.65791 14.8237 7.56075 14.8889 7.45371 14.9333C7.34667 14.9777 7.23188 15.0004 7.116 15V15C6.64267 15 6.21467 14.752 5.83733 14.4653C5.45516 14.1668 4.98493 14.0032 4.5 14C3.11867 14 2 15.3427 2 17C2 18.6573 3.12 20 4.5 20C4.992 20 5.45067 19.8293 5.83733 19.5347C6.21467 19.248 6.64267 19 7.116 19C7.52933 19 7.856 19.3467 7.82533 19.76C7.65949 22.0207 7.37375 24.2709 6.96933 26.5013C8.99333 26.7547 11.0467 26.9133 13.124 26.9733C13.2383 26.9764 13.352 26.9564 13.4585 26.9146C13.5649 26.8729 13.6618 26.8101 13.7435 26.7302C13.8253 26.6502 13.8901 26.5546 13.9341 26.4491C13.9782 26.3436 14.0006 26.2303 14 26.116V26.116C14 25.6427 13.752 25.2147 13.4653 24.8373C13.1668 24.4552 13.0032 23.9849 13 23.5C13 22.12 14.344 21 16 21C17.6573 21 19 22.12 19 23.5C19 23.992 18.8293 24.4507 18.5347 24.8373C18.248 25.2147 18.0013 25.6427 18.0013 26.116C18.0013 26.56 18.3707 26.9147 18.8147 26.8893C21.2406 26.7467 23.6565 26.4662 26.0507 26.0493C26.4129 23.967 26.6719 21.868 26.8267 19.76C26.8336 19.6626 26.8204 19.5647 26.7878 19.4726C26.7552 19.3806 26.704 19.2962 26.6373 19.2248C26.5705 19.1535 26.4898 19.0967 26.4001 19.058C26.3104 19.0193 26.2137 18.9996 26.116 19C25.6427 19 25.2147 19.248 24.8373 19.5347C24.4507 19.8293 23.992 20 23.5 20C22.12 20 21 18.6573 21 17C21 15.3427 22.12 14 23.5 14C23.9933 14 24.4507 14.1707 24.8373 14.4653C25.2147 14.752 25.6427 15 26.1173 15C26.2332 15.0004 26.348 14.9777 26.455 14.9333C26.5621 14.8889 26.6592 14.8237 26.7409 14.7415C26.8225 14.6592 26.887 14.5616 26.9305 14.4542C26.9741 14.3468 26.9959 14.2319 26.9947 14.116C26.9626 11.7265 26.7979 9.34059 26.5013 6.96933C23.9867 7.42533 21.4213 7.73467 18.8133 7.888C18.7084 7.89382 18.6033 7.87811 18.5047 7.84182C18.406 7.80554 18.3158 7.74946 18.2396 7.67702C18.1634 7.60458 18.1029 7.51733 18.0617 7.42062C18.0205 7.32391 17.9995 7.21979 18 7.11467V7.11467V7.116Z" stroke="#4F46E5" stroke-width="3" stroke-linecap="round" stroke-linejoin="round"/>
</svg>
