<svg width="40" height="40" viewBox="0 0 40 40" fill="none" xmlns="http://www.w3.org/2000/svg">
<path d="M5.40901 21.6263C6.40469 28.5122 12.3308 33.8025 19.4924 33.8025C20.5041 33.8025 21.491 33.697 22.4429 33.4963L26.7147 37.7681C24.4801 38.6558 22.0433 39.1438 19.4924 39.1438C9.37702 39.1438 1.05392 31.47 0.0270944 21.6263H5.40901Z" fill="#4F46E5"/>
<path d="M5.37148 17.7965C6.24533 10.775 12.2343 5.34125 19.4924 5.34125C27.3518 5.34125 33.7231 11.7125 33.7231 19.5719C33.7231 21.5477 33.3204 23.4294 32.5927 25.1395L36.5784 29.1252C38.1617 26.2996 39.0643 23.0412 39.0643 19.5719C39.0643 8.76263 30.3017 0 19.4924 0C9.28165 0 0.897127 7.8192 0 17.7965H5.37148Z" fill="#4F46E5"/>
<path fill-rule="evenodd" clip-rule="evenodd" d="M23.9716 29.3475C22.5737 30.0187 21.0073 30.3947 19.353 30.3947C13.4529 30.3947 8.66992 25.6117 8.66992 19.7115C8.66992 13.8114 13.4529 9.02844 19.353 9.02844C25.2531 9.02844 30.0361 13.8114 30.0361 19.7115C30.0361 22.0141 29.3077 24.1465 28.0687 25.8909L37.8895 35.7117L34.1127 39.4886L23.9716 29.3475ZM24.6949 19.7115C24.6949 22.6618 22.3033 25.0534 19.353 25.0534C16.4028 25.0534 14.0112 22.6618 14.0112 19.7115C14.0112 16.7613 16.4028 14.3697 19.353 14.3697C22.3033 14.3697 24.6949 16.7613 24.6949 19.7115Z" fill="#312E81"/>
</svg>
