<svg width="200" height="121" viewBox="0 0 200 121" fill="none" xmlns="http://www.w3.org/2000/svg">
<path d="M78.8624 23.9383C78.8624 24.3232 78.7859 24.6311 78.7093 24.939C78.6327 25.2468 78.4796 25.4778 78.3265 25.6317C78.1733 25.8626 77.9436 26.0166 77.7905 26.0935C77.5608 26.2475 77.3311 26.3245 77.1014 26.4014C77.4077 26.4784 77.6374 26.5554 77.8671 26.7093C78.0968 26.8633 78.3265 27.0172 78.4796 27.2481C78.6327 27.479 78.7859 27.71 78.939 28.0178C79.0156 28.3257 79.0921 28.6336 79.0921 29.0185C79.0921 29.4803 79.0156 29.8652 78.8624 30.1731C78.7093 30.5579 78.4796 30.8658 78.1733 31.0967C77.8671 31.3276 77.4842 31.5586 77.0249 31.7125C76.5655 31.8664 76.0295 31.9434 75.3404 31.9434H73.12V21.1673H75.1873C75.7998 21.1673 76.3358 21.2443 76.7952 21.3982C77.2546 21.5522 77.6374 21.7061 77.9436 21.9371C78.2499 22.168 78.4796 22.4759 78.5562 22.7837C78.7859 23.1686 78.8624 23.5535 78.8624 23.9383ZM77.4842 24.0153C77.4842 23.4765 77.3311 23.0916 76.9483 22.7837C76.5655 22.4759 76.0295 22.3219 75.2638 22.3219H74.5748V26.0166H75.2638C75.9529 26.0166 76.5655 25.8626 76.9483 25.4778C77.3311 25.0929 77.4842 24.6311 77.4842 24.0153ZM77.7139 29.0185C77.7139 28.4027 77.5608 27.9409 77.178 27.633C76.7952 27.3251 76.2592 27.0942 75.5701 27.0942H74.6513V30.8658H75.4935C76.2592 30.8658 76.8717 30.7119 77.2545 30.404C77.5608 30.0961 77.7139 29.6343 77.7139 29.0185ZM86.0596 32.0204H84.9111V31.1737C84.9111 31.2507 84.8346 31.3276 84.6814 31.4816C84.6049 31.6355 84.4517 31.7125 84.2986 31.7895C84.1455 31.8664 83.9158 32.0204 83.6861 32.0974C83.4564 32.1743 83.2267 32.2513 82.9204 32.2513C82.6142 32.2513 82.3079 32.1743 82.0016 32.0974C81.7719 32.0204 81.5422 31.8664 81.3125 31.6355C81.1594 31.4046 81.0063 31.0967 80.8531 30.7888C80.7766 30.404 80.7 30.0191 80.7 29.4803V24.5541H82.0016V29.4033C82.0016 30.0191 82.0782 30.4809 82.3079 30.7119C82.5376 30.9428 82.8438 31.0967 83.2267 31.0967C83.6095 31.0967 83.9158 31.0197 84.1455 30.7888C84.3752 30.6349 84.6049 30.404 84.758 30.25V24.4771H86.0596M92.1083 32.0204V27.1711C92.1083 26.5554 92.0317 26.0935 91.802 25.7857C91.5723 25.4778 91.2661 25.4008 90.8067 25.4008C90.4238 25.4008 90.1176 25.4778 89.8879 25.7087C89.6582 25.8626 89.4285 26.0935 89.2754 26.2475V32.0204H88.0503V24.4771H89.1988V25.3238C89.1988 25.2468 89.2754 25.1699 89.4285 25.0159C89.5051 24.862 89.6582 24.785 89.8113 24.708C89.9645 24.6311 90.1942 24.4771 90.4238 24.4002C90.6535 24.3232 90.8832 24.2462 91.1895 24.2462C91.4958 24.2462 91.802 24.3232 92.1083 24.4002C92.4146 24.4771 92.6443 24.6311 92.7974 24.862C92.9505 25.0929 93.1037 25.4008 93.2568 25.7087C93.3333 26.0935 93.4099 26.4784 93.4099 27.0172V31.9434M94.8647 28.4027C94.8647 27.633 94.9412 27.0172 95.1709 26.4784C95.4006 25.9396 95.6303 25.5547 95.9366 25.2468C96.2428 24.939 96.6257 24.708 97.0085 24.5541C97.3913 24.4002 97.7742 24.3232 98.2336 24.3232C98.4633 24.3232 98.693 24.3232 98.8461 24.4002C98.9992 24.4771 99.1523 24.4771 99.3055 24.5541V20.9364L100.607 20.7825V32.0204H99.4586V31.2507C99.4586 31.3276 99.382 31.4046 99.3055 31.4816C99.2289 31.5586 99.0758 31.7125 98.9992 31.7895C98.8461 31.8664 98.693 32.0204 98.4633 32.0974C98.2336 32.1743 98.0039 32.2513 97.6976 32.2513C97.3148 32.2513 97.0085 32.1743 96.7022 32.0204C96.396 31.8664 96.0897 31.6355 95.86 31.3276C95.6303 31.0197 95.4006 30.6349 95.3241 30.0961C94.9412 29.6343 94.8647 29.0954 94.8647 28.4027ZM97.8507 31.0967C98.0804 31.0967 98.2336 31.0967 98.3867 31.0197C98.5398 30.9428 98.6929 30.9428 98.7695 30.7888C98.9226 30.7119 98.9992 30.6349 99.0758 30.5579C99.1523 30.4809 99.2289 30.404 99.2289 30.327V25.7087C99.1523 25.6317 98.9992 25.5547 98.8461 25.5547C98.693 25.4778 98.5398 25.4778 98.3101 25.4778C98.0039 25.4778 97.7742 25.5547 97.4679 25.6317C97.2382 25.7087 97.0085 25.8626 96.7788 26.0935C96.6257 26.3245 96.4725 26.6323 96.3194 27.0172C96.2428 27.4021 96.1663 27.8639 96.1663 28.3257C96.1663 28.8645 96.2428 29.3264 96.3194 29.6343C96.396 30.0191 96.5491 30.25 96.7022 30.4809C96.8554 30.7119 97.0085 30.8658 97.2382 30.9428C97.4679 31.0197 97.621 31.0967 97.8507 31.0967ZM107.268 27.0172C107.268 27.3251 107.268 27.633 107.268 27.8639C107.268 28.0948 107.192 28.3257 107.192 28.4797H103.363C103.44 29.4033 103.593 30.0191 103.899 30.404C104.206 30.7888 104.742 31.0197 105.354 31.0197C105.584 31.0197 105.737 31.0197 105.967 30.9428C106.12 30.8658 106.273 30.8658 106.426 30.7888C106.579 30.7119 106.656 30.6349 106.732 30.5579C106.809 30.4809 106.885 30.404 106.962 30.404L107.421 31.3276C107.345 31.4046 107.268 31.4816 107.192 31.5586C107.115 31.6355 106.962 31.7895 106.809 31.8664C106.656 31.9434 106.426 32.0204 106.12 32.0974C105.89 32.1743 105.584 32.1743 105.201 32.1743C104.742 32.1743 104.282 32.0974 103.899 31.9434C103.517 31.7895 103.21 31.5586 102.904 31.2507C102.674 30.9428 102.445 30.4809 102.292 30.0191C102.138 29.4803 102.062 28.8645 102.062 28.1718C102.062 27.479 102.138 26.9402 102.292 26.4014C102.445 25.9396 102.674 25.4778 102.904 25.1699C103.134 24.862 103.44 24.6311 103.823 24.4771C104.129 24.3232 104.512 24.2462 104.895 24.2462C105.584 24.2462 106.196 24.4771 106.579 24.939C106.962 25.4008 107.268 26.0935 107.268 27.0172ZM104.895 25.3238C104.435 25.3238 104.053 25.4778 103.823 25.8626C103.593 26.2475 103.363 26.7863 103.363 27.479H106.12C106.12 27.4021 106.12 27.3251 106.12 27.2481C106.12 27.1711 106.12 27.0172 106.12 26.9402C106.12 26.4014 106.043 26.0166 105.814 25.7087C105.584 25.4778 105.278 25.3238 104.895 25.3238ZM112.169 26.0166C112.092 25.9396 111.939 25.7857 111.709 25.6317C111.479 25.4778 111.173 25.4008 110.867 25.4008C110.561 25.4008 110.254 25.4778 110.101 25.6317C109.948 25.7857 109.872 25.9396 109.872 26.1705C109.872 26.4784 109.948 26.7093 110.101 26.8633C110.254 27.0172 110.484 27.2481 110.867 27.479L111.326 27.7869C111.862 28.0948 112.245 28.4027 112.551 28.7876C112.858 29.1724 113.011 29.5573 113.011 30.1731C113.011 30.7888 112.781 31.2507 112.398 31.7125C112.015 32.0974 111.403 32.3283 110.637 32.3283C110.331 32.3283 110.101 32.3283 109.872 32.2513C109.642 32.1743 109.412 32.0974 109.259 32.0204C109.106 31.9434 108.953 31.8664 108.8 31.7125C108.723 31.6355 108.57 31.5586 108.493 31.4046L109.106 30.404C109.182 30.4809 109.259 30.5579 109.336 30.6349C109.412 30.7119 109.565 30.7888 109.642 30.8658C109.795 30.9428 109.872 31.0197 110.025 31.0967C110.178 31.1737 110.331 31.1737 110.561 31.1737C110.943 31.1737 111.25 31.0967 111.403 30.9428C111.633 30.7888 111.709 30.5579 111.709 30.327C111.709 30.1731 111.709 30.0191 111.633 29.8652C111.556 29.7112 111.479 29.6343 111.403 29.4803C111.326 29.4033 111.173 29.2494 111.097 29.1724C110.943 29.0954 110.79 28.9415 110.637 28.8645L110.178 28.5566C109.718 28.2488 109.336 27.9409 109.106 27.633C108.876 27.3251 108.723 26.8633 108.723 26.3245C108.723 26.0166 108.8 25.7857 108.876 25.5547C108.953 25.3238 109.106 25.0929 109.336 24.939C109.565 24.785 109.795 24.6311 110.025 24.5541C110.254 24.4771 110.561 24.4002 110.867 24.4002C111.173 24.4002 111.403 24.4002 111.633 24.4771C111.862 24.5541 112.015 24.6311 112.169 24.708C112.322 24.785 112.475 24.862 112.551 24.939C112.628 25.0159 112.704 25.0929 112.781 25.1699M118.37 32.0204V27.1711C118.37 26.5554 118.294 26.0935 118.141 25.8626C117.988 25.5547 117.681 25.4778 117.298 25.4778C117.069 25.4778 116.916 25.4778 116.762 25.5547C116.609 25.6317 116.456 25.7087 116.303 25.7857C116.15 25.8626 116.073 25.9396 115.997 26.0166C115.92 26.0935 115.844 26.1705 115.767 26.2475V32.0204H114.465V24.4771H115.614V25.3238C115.691 25.2468 115.767 25.1699 115.844 25.0159C115.92 24.862 116.073 24.785 116.226 24.708C116.38 24.6311 116.533 24.4771 116.762 24.4002C116.992 24.3232 117.222 24.3232 117.452 24.3232C118.294 24.3232 118.906 24.6311 119.289 25.3238C119.366 25.2468 119.442 25.0929 119.595 25.0159C119.749 24.862 119.902 24.785 120.055 24.708C120.208 24.6311 120.438 24.5541 120.591 24.4771C120.82 24.4002 121.05 24.4002 121.28 24.4002C122.811 24.4002 123.577 25.3238 123.577 27.0942V32.1743H122.275V27.3251C122.275 26.7093 122.199 26.2475 121.969 26.0166C121.739 25.7087 121.433 25.6317 120.974 25.6317C120.591 25.6317 120.361 25.7087 120.055 25.8626C119.825 26.0166 119.672 26.1705 119.519 26.3245C119.519 26.4014 119.519 26.5554 119.595 26.7093C119.595 26.8633 119.595 26.9402 119.595 27.0942V32.1743M126.716 32.0204H125.491V24.4771H126.716V32.0204ZM126.103 22.7068C125.874 22.7068 125.644 22.6298 125.491 22.4759C125.338 22.3219 125.261 22.091 125.261 21.7831C125.261 21.5522 125.338 21.3213 125.491 21.1673C125.644 21.0134 125.874 20.9364 126.103 20.9364C126.333 20.9364 126.563 21.0134 126.716 21.1673C126.869 21.3213 126.946 21.5522 126.946 21.7831C126.946 22.091 126.869 22.2449 126.716 22.4759C126.486 22.6298 126.333 22.7068 126.103 22.7068ZM132.688 32.0204V27.1711C132.688 26.5554 132.612 26.0935 132.382 25.7857C132.152 25.4778 131.846 25.4008 131.387 25.4008C131.004 25.4008 130.697 25.4778 130.468 25.7087C130.238 25.8626 130.008 26.0935 129.855 26.2475V32.0204H128.63V24.4771H129.779V25.3238C129.779 25.2468 129.855 25.1699 130.008 25.0159C130.085 24.862 130.238 24.785 130.391 24.708C130.544 24.6311 130.774 24.4771 131.004 24.4002C131.233 24.3232 131.463 24.2462 131.769 24.2462C132.076 24.2462 132.382 24.3232 132.688 24.4002C132.994 24.4771 133.224 24.6311 133.377 24.862C133.53 25.0929 133.683 25.4008 133.837 25.7087C133.913 26.0935 133.99 26.4784 133.99 27.0172V31.9434M137.129 32.0204H135.827V24.4771H137.129V32.0204ZM136.516 22.7068C136.287 22.7068 136.057 22.6298 135.904 22.4759C135.751 22.3219 135.674 22.091 135.674 21.7831C135.674 21.5522 135.751 21.3213 135.904 21.1673C136.057 21.0134 136.287 20.9364 136.516 20.9364C136.746 20.9364 136.976 21.0134 137.129 21.1673C137.282 21.3213 137.359 21.5522 137.359 21.7831C137.359 22.091 137.282 22.2449 137.129 22.4759C136.976 22.6298 136.746 22.7068 136.516 22.7068ZM142.259 26.0166C142.182 25.9396 142.029 25.7857 141.799 25.6317C141.57 25.4778 141.263 25.4008 140.957 25.4008C140.651 25.4008 140.345 25.4778 140.192 25.6317C140.038 25.7857 139.962 25.9396 139.962 26.1705C139.962 26.4784 140.038 26.7093 140.192 26.8633C140.345 27.0172 140.574 27.2481 140.957 27.479L141.417 27.7869C141.953 28.0948 142.335 28.4027 142.642 28.7876C142.948 29.1724 143.101 29.5573 143.101 30.1731C143.101 30.7888 142.871 31.2507 142.489 31.7125C142.106 32.0974 141.493 32.3283 140.728 32.3283C140.421 32.3283 140.192 32.3283 139.962 32.2513C139.732 32.1743 139.502 32.0974 139.349 32.0204C139.196 31.9434 139.043 31.8664 138.89 31.7125C138.737 31.6355 138.66 31.5586 138.584 31.4046L139.196 30.404C139.273 30.4809 139.349 30.5579 139.426 30.6349C139.502 30.7119 139.656 30.7888 139.732 30.8658C139.885 30.9428 139.962 31.0197 140.115 31.0967C140.268 31.1737 140.421 31.1737 140.651 31.1737C141.034 31.1737 141.34 31.0967 141.493 30.9428C141.723 30.7888 141.799 30.5579 141.799 30.327C141.799 30.1731 141.799 30.0191 141.723 29.8652C141.646 29.7112 141.57 29.6343 141.493 29.4803C141.417 29.4033 141.263 29.2494 141.11 29.1724C140.957 29.0954 140.804 28.9415 140.651 28.8645L140.192 28.5566C139.732 28.2488 139.349 27.9409 139.12 27.633C138.89 27.3251 138.737 26.8633 138.737 26.3245C138.737 26.0166 138.813 25.7857 138.89 25.5547C138.967 25.3238 139.12 25.0929 139.349 24.939C139.579 24.785 139.809 24.6311 140.038 24.5541C140.268 24.4771 140.574 24.4002 140.881 24.4002C141.187 24.4002 141.417 24.4002 141.646 24.4771C141.876 24.5541 142.029 24.6311 142.182 24.708C142.335 24.785 142.489 24.862 142.565 24.939C142.642 25.0159 142.718 25.0929 142.795 25.1699M147.695 25.5547H146.087V29.7112C146.087 30.25 146.164 30.6349 146.317 30.7888C146.47 31.0197 146.7 31.0967 147.006 31.0967C147.159 31.0967 147.389 31.0967 147.465 31.0197C147.618 30.9428 147.695 30.9428 147.772 30.8658L147.925 31.8664C147.848 31.9434 147.772 31.9434 147.542 32.0974C147.312 32.1743 147.082 32.2513 146.776 32.2513C146.164 32.2513 145.628 32.0974 145.321 31.7125C145.015 31.3276 144.862 30.7888 144.862 29.9421V25.6317H143.943V24.785L144.862 24.6311L145.015 22.5528H146.164V24.6311H147.925M153.82 27.0172C153.82 27.3251 153.82 27.633 153.82 27.8639C153.82 28.0948 153.744 28.3257 153.744 28.4797H149.915C149.992 29.4033 150.145 30.0191 150.451 30.404C150.758 30.7888 151.294 31.0197 151.906 31.0197C152.136 31.0197 152.289 31.0197 152.519 30.9428C152.672 30.8658 152.825 30.8658 152.978 30.7888C153.131 30.7119 153.208 30.6349 153.284 30.5579C153.361 30.4809 153.437 30.404 153.514 30.404L153.973 31.3276C153.897 31.4046 153.82 31.4816 153.744 31.5586C153.667 31.6355 153.514 31.7895 153.361 31.8664C153.208 31.9434 152.978 32.0204 152.672 32.0974C152.442 32.1743 152.136 32.1743 151.753 32.1743C151.294 32.1743 150.834 32.0974 150.451 31.9434C150.069 31.7895 149.762 31.5586 149.456 31.2507C149.226 30.9428 148.997 30.4809 148.843 30.0191C148.69 29.4803 148.614 28.8645 148.614 28.1718C148.614 27.479 148.69 26.9402 148.843 26.4014C148.997 25.9396 149.226 25.4778 149.456 25.1699C149.686 24.862 149.992 24.6311 150.375 24.4771C150.681 24.3232 151.064 24.2462 151.447 24.2462C152.136 24.2462 152.748 24.4771 153.131 24.939C153.667 25.4778 153.82 26.0935 153.82 27.0172ZM151.447 25.3238C150.987 25.3238 150.681 25.4778 150.375 25.8626C150.069 26.2475 149.915 26.7863 149.915 27.479H152.672C152.672 27.4021 152.672 27.3251 152.672 27.2481C152.672 27.1711 152.672 27.0172 152.672 26.9402C152.672 26.4014 152.595 26.0166 152.366 25.7087C152.212 25.4778 151.906 25.3238 151.447 25.3238ZM158.797 25.6317C158.797 25.6317 158.72 25.5547 158.567 25.5547C158.491 25.5547 158.338 25.4778 158.185 25.4778C157.802 25.4778 157.495 25.5547 157.266 25.7857C157.036 26.0166 156.883 26.2475 156.806 26.4784V32.0204H155.505V24.4771H156.653V25.4778C156.73 25.3238 156.806 25.1699 156.883 25.0159C156.959 24.862 157.036 24.785 157.189 24.6311C157.342 24.5541 157.495 24.4002 157.649 24.4002C157.802 24.3232 158.031 24.3232 158.261 24.3232C158.414 24.3232 158.567 24.3232 158.72 24.4002C158.797 24.4002 158.95 24.4771 158.95 24.4771M161.324 32.0204H160.099V24.4771H161.324V32.0204ZM160.711 22.7068C160.481 22.7068 160.252 22.6298 160.099 22.4759C159.946 22.3219 159.869 22.091 159.869 21.7831C159.869 21.5522 159.946 21.3213 160.099 21.1673C160.252 21.0134 160.481 20.9364 160.711 20.9364C160.941 20.9364 161.171 21.0134 161.324 21.1673C161.477 21.3213 161.553 21.5522 161.553 21.7831C161.553 22.091 161.477 22.2449 161.324 22.4759C161.171 22.6298 160.941 22.7068 160.711 22.7068ZM168.521 32.0204H167.372V31.1737C167.372 31.2507 167.296 31.3276 167.143 31.4816C167.066 31.6355 166.913 31.7125 166.76 31.7895C166.607 31.8664 166.377 32.0204 166.147 32.0974C165.918 32.1743 165.688 32.2513 165.382 32.2513C165.075 32.2513 164.769 32.1743 164.463 32.0974C164.233 32.0204 164.003 31.8664 163.774 31.6355C163.621 31.4046 163.468 31.0967 163.314 30.7888C163.238 30.404 163.161 30.0191 163.161 29.4803V24.5541H164.463V29.4033C164.463 30.0191 164.539 30.4809 164.769 30.7119C164.999 30.9428 165.305 31.0967 165.688 31.0967C166.071 31.0967 166.377 31.0197 166.607 30.7888C166.836 30.6349 167.066 30.404 167.219 30.25V24.4771H168.521M174.34 32.0204V27.1711C174.34 26.5554 174.263 26.0935 174.11 25.8626C173.957 25.5547 173.651 25.4778 173.268 25.4778C173.038 25.4778 172.885 25.4778 172.732 25.5547C172.579 25.6317 172.426 25.7087 172.273 25.7857C172.119 25.8626 172.043 25.9396 171.966 26.0166C171.89 26.0935 171.813 26.1705 171.737 26.2475V32.0204H170.512V24.4771H171.66V25.3238C171.737 25.2468 171.813 25.1699 171.89 25.0159C171.966 24.862 172.119 24.785 172.273 24.708C172.426 24.6311 172.579 24.4771 172.809 24.4002C173.038 24.3232 173.268 24.3232 173.498 24.3232C174.34 24.3232 174.952 24.6311 175.335 25.3238C175.412 25.2468 175.488 25.0929 175.641 25.0159C175.795 24.862 175.948 24.785 176.101 24.708C176.254 24.6311 176.484 24.5541 176.637 24.4771C176.867 24.4002 177.096 24.4002 177.326 24.4002C178.857 24.4002 179.623 25.3238 179.623 27.0942V32.1743H178.321V27.3251C178.321 26.7093 178.245 26.2475 178.015 26.0166C177.785 25.7087 177.479 25.6317 177.02 25.6317C176.637 25.6317 176.407 25.7087 176.101 25.8626C175.871 26.0166 175.718 26.1705 175.565 26.3245C175.565 26.4014 175.565 26.5554 175.641 26.7093C175.641 26.8633 175.641 26.9402 175.641 27.0942V32.1743M76.1061 41.334H74.5748V47.7996H73.3497V41.334H72.4309V40.4873L73.3497 40.3334V38.7939C73.3497 38.4091 73.4263 38.0242 73.5028 37.7163C73.656 37.4084 73.7325 37.1775 73.9622 37.0236C74.1154 36.8696 74.3451 36.7157 74.5748 36.6387C74.8044 36.5617 75.1107 36.4848 75.3404 36.4848C75.6467 36.4848 75.7998 36.4848 76.0295 36.5617C76.1826 36.6387 76.3358 36.7157 76.4123 36.7157L76.1826 37.7933C76.1061 37.7163 76.0295 37.7163 75.9529 37.6393C75.8764 37.5624 75.7232 37.5624 75.5701 37.5624C75.2638 37.5624 75.0341 37.6393 74.881 37.8703C74.7279 38.0242 74.6513 38.4091 74.6513 38.8709V40.2564H76.3358M82.6141 47.7996H81.4657V46.953C81.4657 47.0299 81.3891 47.1069 81.236 47.2608C81.1594 47.4148 81.0063 47.4918 80.8531 47.5687C80.7 47.6457 80.4703 47.7996 80.2406 47.8766C80.0109 47.9536 79.7812 48.0306 79.475 48.0306C79.1687 48.0306 78.8624 47.9536 78.5562 47.8766C78.3265 47.7996 78.0968 47.6457 77.8671 47.4148C77.7139 47.1839 77.5608 46.876 77.4077 46.5681C77.3311 46.1832 77.2545 45.7984 77.2545 45.2596V40.3334H78.4796V45.1826C78.4796 45.7984 78.5562 46.2602 78.7859 46.4911C79.0156 46.722 79.3218 46.876 79.7047 46.876C80.0875 46.876 80.3937 46.799 80.6234 46.5681C80.8531 46.4141 81.0828 46.1832 81.236 46.0293V40.2564H82.461M79.475 38.1781C79.475 38.4091 79.3984 38.64 79.2453 38.7939C79.0921 38.9479 78.939 39.0248 78.7093 39.0248C78.4796 39.0248 78.3265 38.9479 78.1733 38.7939C78.0202 38.64 77.9436 38.486 77.9436 38.1781C77.9436 37.9472 78.0202 37.7163 78.1733 37.5624C78.3265 37.4084 78.4796 37.3315 78.7093 37.3315C78.939 37.3315 79.0921 37.4084 79.2453 37.5624C79.3984 37.7163 79.475 37.8703 79.475 38.1781ZM81.9251 38.1781C81.9251 38.4091 81.8485 38.64 81.6954 38.7939C81.5422 38.9479 81.3891 39.0248 81.1594 39.0248C80.9297 39.0248 80.7766 38.9479 80.6234 38.7939C80.4703 38.64 80.3937 38.486 80.3937 38.1781C80.3937 37.9472 80.4703 37.7163 80.6234 37.5624C80.7766 37.4084 80.9297 37.3315 81.1594 37.3315C81.3891 37.3315 81.5422 37.4084 81.6954 37.5624C81.8485 37.7163 81.9251 37.8703 81.9251 38.1781ZM87.8206 41.411C87.8206 41.411 87.7441 41.334 87.5909 41.334C87.5144 41.334 87.3612 41.257 87.2081 41.257C86.8253 41.257 86.519 41.334 86.2893 41.5649C86.0596 41.7958 85.9065 42.0267 85.8299 42.2577V47.7996H84.5283V40.2564H85.6768V41.257C85.7533 41.1031 85.8299 40.9491 85.9065 40.7952C85.983 40.6412 86.0596 40.5643 86.2127 40.4103C86.3659 40.3334 86.519 40.1794 86.6721 40.1794C86.8253 40.1024 87.055 40.1024 87.2847 40.1024C87.4378 40.1024 87.5909 40.1024 87.744 40.1794C87.8206 40.1794 87.9737 40.2564 87.9737 40.2564M97.9273 39.7946C97.9273 40.1794 97.8507 40.4873 97.7742 40.7952C97.6976 41.1031 97.5445 41.334 97.3913 41.4879C97.2382 41.7189 97.0085 41.8728 96.8554 41.9498C96.6257 42.1037 96.396 42.1807 96.1663 42.2577C96.4725 42.3346 96.7022 42.4116 96.9319 42.5655C97.1616 42.7195 97.3913 42.8734 97.5445 43.1044C97.6976 43.3353 97.8507 43.5662 98.0039 43.8741C98.0804 44.182 98.157 44.4898 98.157 44.8747C98.157 45.3365 98.0804 45.7214 97.9273 46.0293C97.7742 46.4141 97.5445 46.722 97.2382 46.953C96.9319 47.1839 96.5491 47.4148 96.0897 47.5687C95.6303 47.7227 95.0944 47.7996 94.4053 47.7996H92.1849V37.0236H94.2521C94.8647 37.0236 95.4006 37.1005 95.86 37.2545C96.3194 37.4084 96.7022 37.5624 97.0085 37.7933C97.3148 38.0242 97.5445 38.3321 97.621 38.64C97.8507 38.9479 97.9273 39.3327 97.9273 39.7946ZM96.5491 39.7946C96.5491 39.2558 96.396 38.8709 96.0131 38.563C95.6303 38.2551 95.0944 38.1012 94.3287 38.1012H93.6396V41.7958H94.3287C95.0178 41.7958 95.6303 41.6419 96.0131 41.257C96.396 40.9491 96.5491 40.4873 96.5491 39.7946ZM96.7788 44.7977C96.7788 44.182 96.6257 43.7201 96.2428 43.4122C95.86 43.1044 95.3241 42.8734 94.635 42.8734H93.7162V46.6451H94.5584C95.3241 46.6451 95.9366 46.4911 96.3194 46.1832C96.6257 45.8753 96.7788 45.4135 96.7788 44.7977ZM101.143 47.7996H99.918V40.2564H101.143V47.7996ZM100.531 38.486C100.301 38.486 100.071 38.4091 99.918 38.2551C99.7649 38.1012 99.6883 37.8703 99.6883 37.5624C99.6883 37.3315 99.7649 37.1005 99.918 36.9466C100.071 36.7926 100.301 36.7157 100.531 36.7157C100.76 36.7157 100.99 36.7926 101.143 36.9466C101.296 37.1005 101.373 37.3315 101.373 37.5624C101.373 37.8703 101.296 38.0242 101.143 38.2551C100.99 38.4091 100.76 38.486 100.531 38.486ZM104.359 46.1063C104.359 46.4142 104.435 46.6451 104.512 46.799C104.589 46.953 104.742 46.953 104.971 46.953C105.048 46.953 105.201 46.953 105.278 46.953C105.354 46.953 105.431 46.876 105.431 46.876L105.507 47.7996C105.431 47.7996 105.354 47.8766 105.201 47.9536C105.048 48.0306 104.818 48.0306 104.512 48.0306C104.053 48.0306 103.746 47.8766 103.517 47.6457C103.287 47.4148 103.134 46.953 103.134 46.2602V36.7157L104.435 36.5617M106.273 44.182C106.273 43.4122 106.35 42.7965 106.579 42.2577C106.809 41.7189 107.039 41.334 107.345 41.0261C107.651 40.7182 108.034 40.4873 108.417 40.3334C108.8 40.1794 109.182 40.1024 109.642 40.1024C109.872 40.1024 110.101 40.1024 110.254 40.1794C110.408 40.2564 110.561 40.2564 110.714 40.3334V36.7157L112.015 36.5617V47.7996H110.867V47.0299C110.867 47.1069 110.79 47.1839 110.714 47.2608C110.637 47.3378 110.484 47.4918 110.331 47.5687C110.178 47.6457 110.025 47.7996 109.795 47.8766C109.565 47.9536 109.336 48.0306 109.029 48.0306C108.646 48.0306 108.34 47.9536 108.034 47.7996C107.728 47.6457 107.421 47.4148 107.192 47.1069C106.962 46.799 106.732 46.4141 106.656 45.8753C106.35 45.4905 106.273 44.8747 106.273 44.182ZM109.259 46.876C109.489 46.876 109.642 46.876 109.795 46.799C109.948 46.722 110.101 46.722 110.178 46.5681C110.331 46.4911 110.408 46.4142 110.484 46.3372C110.561 46.2602 110.637 46.1832 110.637 46.1063V41.4879C110.484 41.411 110.408 41.334 110.254 41.334C110.101 41.257 109.948 41.257 109.718 41.257C109.412 41.257 109.182 41.334 108.876 41.411C108.646 41.4879 108.417 41.6419 108.187 41.8728C108.034 42.1037 107.881 42.4116 107.728 42.7965C107.651 43.1813 107.575 43.6432 107.575 44.105C107.575 44.6438 107.651 45.1056 107.728 45.4135C107.804 45.7984 107.957 46.0293 108.111 46.2602C108.264 46.4911 108.417 46.6451 108.646 46.722C108.876 46.876 109.029 46.876 109.259 46.876ZM119.136 47.7996H117.988V46.953C117.988 47.0299 117.911 47.1069 117.758 47.2608C117.681 47.4148 117.528 47.4918 117.375 47.5687C117.222 47.6457 116.992 47.7996 116.762 47.8766C116.533 47.9536 116.303 48.0306 115.997 48.0306C115.691 48.0306 115.384 47.9536 115.078 47.8766C114.848 47.7996 114.619 47.6457 114.389 47.4148C114.236 47.1839 114.083 46.876 113.93 46.5681C113.853 46.1832 113.776 45.7984 113.776 45.2596V40.3334H115.078V45.1826C115.078 45.7984 115.155 46.2602 115.384 46.4911C115.614 46.722 115.92 46.876 116.303 46.876C116.686 46.876 116.992 46.799 117.222 46.5681C117.452 46.4141 117.681 46.1832 117.834 46.0293V40.2564H119.136M125.108 47.7996V42.9504C125.108 42.3346 125.032 41.8728 124.802 41.5649C124.572 41.257 124.266 41.1801 123.806 41.1801C123.424 41.1801 123.117 41.257 122.888 41.4879C122.658 41.6419 122.428 41.8728 122.275 42.0267V47.7996H120.974V40.2564H122.122V41.1031C122.122 41.0261 122.199 40.9491 122.352 40.7952C122.428 40.6412 122.581 40.5643 122.735 40.4873C122.888 40.4103 123.117 40.2564 123.347 40.1794C123.577 40.1024 123.807 40.0255 124.113 40.0255C124.419 40.0255 124.725 40.1024 125.032 40.1794C125.338 40.2564 125.491 40.4103 125.721 40.6412C125.874 40.8722 126.027 41.1801 126.18 41.4879C126.257 41.8728 126.333 42.2577 126.333 42.7965V47.7227M133.683 41.257H132.765C132.994 41.6419 133.148 42.1037 133.148 42.6425C133.148 43.0274 133.071 43.4122 132.918 43.7201C132.765 44.028 132.612 44.3359 132.382 44.4898C132.152 44.7208 131.846 44.8747 131.54 44.9517C131.233 45.1056 130.851 45.1056 130.544 45.1056H130.315C130.238 45.1056 130.161 45.1056 130.085 45.1056C129.932 45.1826 129.855 45.2596 129.702 45.3365C129.549 45.4905 129.472 45.5675 129.472 45.7984C129.472 45.9523 129.549 46.1063 129.625 46.1832C129.779 46.2602 129.932 46.3372 130.238 46.3372H131.157C131.54 46.3372 131.846 46.3372 132.152 46.4141C132.458 46.4911 132.688 46.5681 132.918 46.799C133.148 46.953 133.301 47.1839 133.454 47.4148C133.607 47.6457 133.607 47.9536 133.607 48.3384C133.607 48.7233 133.53 49.1082 133.377 49.4161C133.224 49.7239 132.994 50.0318 132.688 50.2628C132.382 50.4937 131.999 50.7246 131.54 50.8016C131.08 50.9555 130.621 51.0325 130.008 51.0325C129.243 51.0325 128.63 50.8785 128.171 50.4937C127.788 50.1088 127.558 49.647 127.558 48.9542C127.558 48.6463 127.635 48.4154 127.711 48.2615C127.788 48.0306 127.941 47.8766 128.094 47.7227C128.247 47.5687 128.4 47.4148 128.477 47.3378C128.63 47.2608 128.707 47.1839 128.783 47.1069C128.477 46.876 128.324 46.4911 128.324 46.0293C128.324 45.7984 128.324 45.6444 128.4 45.4905C128.477 45.3365 128.554 45.2596 128.63 45.1056C128.707 45.0287 128.86 44.9517 128.936 44.8747C129.013 44.7977 129.09 44.7977 129.166 44.7208C128.783 44.5668 128.477 44.2589 128.247 43.8741C128.018 43.4892 127.864 43.0274 127.864 42.4116C127.864 42.0267 127.941 41.6419 128.094 41.334C128.247 41.0261 128.4 40.7182 128.63 40.5643C128.86 40.3334 129.166 40.1794 129.396 40.1024C129.702 40.0255 130.008 39.9485 130.391 39.9485C130.774 39.9485 131.08 40.0255 131.387 40.1024H133.683M130.161 47.5687C129.932 47.5687 129.779 47.5687 129.549 47.4918C129.472 47.5687 129.396 47.6457 129.243 47.6457C129.166 47.7227 129.09 47.7996 129.013 47.8766C128.936 47.9536 128.86 48.1075 128.86 48.2615C128.783 48.4154 128.783 48.5694 128.783 48.7233C128.783 49.493 129.243 49.9549 130.085 49.9549C130.851 49.9549 131.387 49.8009 131.769 49.493C132.152 49.1851 132.305 48.8773 132.305 48.4924C132.305 48.1075 132.229 47.8766 131.999 47.7227C131.769 47.5687 131.463 47.4918 131.08 47.4918M131.846 42.6425C131.846 42.1037 131.693 41.7189 131.463 41.4879C131.233 41.257 130.927 41.1801 130.544 41.1801C130.161 41.1801 129.855 41.257 129.625 41.4879C129.396 41.7189 129.243 42.1037 129.243 42.6425C129.243 43.1813 129.396 43.5662 129.625 43.7971C129.855 44.028 130.161 44.105 130.544 44.105C130.927 44.105 131.233 44.028 131.463 43.7971C131.693 43.5662 131.846 43.1813 131.846 42.6425ZM78.1733 63.6559H77.0249V62.8092C77.0249 62.8862 76.9483 62.9631 76.7952 63.1171C76.7186 63.271 76.5655 63.348 76.4123 63.425C76.2592 63.5019 76.0295 63.6559 75.7998 63.7329C75.5701 63.8098 75.3404 63.8868 75.0341 63.8868C74.7279 63.8868 74.4216 63.8098 74.1154 63.7329C73.8857 63.6559 73.656 63.5019 73.4263 63.271C73.2731 63.0401 73.12 62.7322 72.9669 62.4243C72.8903 62.0395 72.8137 61.6546 72.8137 61.1158V56.1896H74.1154V61.0388C74.1154 61.6546 74.1919 62.1164 74.4216 62.3474C74.6513 62.5783 74.9576 62.7322 75.3404 62.7322C75.7232 62.7322 76.0295 62.6552 76.2592 62.4243C76.4889 62.2704 76.7186 62.0395 76.8717 61.8855V56.1126H78.1733M84.222 63.6559V58.8066C84.222 58.1909 84.1455 57.729 83.9158 57.4211C83.6861 57.1133 83.3798 57.0363 82.9204 57.0363C82.5376 57.0363 82.2313 57.1133 82.0016 57.3442C81.7719 57.4981 81.5422 57.729 81.3891 57.883V63.6559H80.0875V56.1126H81.236V56.9593C81.236 56.8823 81.3125 56.8054 81.4657 56.6514C81.5422 56.4975 81.6954 56.4205 81.8485 56.3435C82.0016 56.2666 82.2313 56.1126 82.461 56.0357C82.6907 55.9587 82.9204 55.8817 83.2267 55.8817C83.5329 55.8817 83.8392 55.9587 84.1455 56.0357C84.4517 56.1126 84.6814 56.2666 84.8346 56.4975C84.9877 56.7284 85.1408 57.0363 85.2939 57.3442C85.3705 57.729 85.4471 58.1139 85.4471 58.6527V63.5789M87.055 59.9612C87.055 59.1915 87.1315 58.5757 87.3612 58.0369C87.5909 57.4981 87.8206 57.1133 88.1269 56.8054C88.4331 56.4975 88.816 56.2666 89.1988 56.1126C89.5816 55.9587 89.9645 55.8817 90.3473 55.8817C90.577 55.8817 90.8067 55.8817 90.9598 55.9587C91.1129 56.0356 91.2661 56.0357 91.4192 56.1126V52.4949L92.6443 52.341V63.5789H91.4958V62.8092C91.4958 62.8862 91.4192 62.9631 91.3426 63.0401C91.2661 63.1171 91.1129 63.271 91.0364 63.348C90.8832 63.425 90.7301 63.5789 90.5004 63.6559C90.2707 63.7328 90.041 63.8098 89.7348 63.8098C89.3519 63.8098 89.0457 63.7328 88.7394 63.5789C88.4331 63.425 88.1269 63.194 87.8972 62.8862C87.6675 62.5783 87.4378 62.1934 87.3612 61.6546C87.1315 61.2697 87.055 60.654 87.055 59.9612ZM89.9645 62.7322C90.1942 62.7322 90.3473 62.7322 90.5004 62.6552C90.6535 62.5783 90.8067 62.5783 90.8832 62.4243C90.9598 62.3474 91.1129 62.2704 91.1895 62.1934C91.2661 62.1164 91.3426 62.0395 91.3426 61.9625V57.3442C91.1895 57.2672 91.1129 57.1902 90.9598 57.1902C90.8067 57.1133 90.6535 57.1133 90.4238 57.1133C90.1176 57.1133 89.8879 57.1902 89.5816 57.2672C89.3519 57.3442 89.1222 57.4981 88.8925 57.729C88.7394 57.9599 88.5863 58.2678 88.4331 58.6527C88.3566 59.0376 88.28 59.4994 88.28 59.9612C88.28 60.5 88.3566 60.9619 88.4331 61.2697C88.5097 61.6546 88.6628 61.8855 88.816 62.1164C88.9691 62.3474 89.1222 62.5013 89.3519 62.5783C89.5816 62.6552 89.8113 62.7322 89.9645 62.7322ZM98.157 63.6559V52.8028H103.44L103.363 53.8804H99.5352V57.883H103.057V58.9606H99.5352V63.6559M104.435 59.8843C104.435 59.1915 104.512 58.5757 104.665 58.1139C104.818 57.5751 105.048 57.1902 105.354 56.8823C105.66 56.5745 105.967 56.3435 106.273 56.1896C106.656 56.0356 107.039 55.9587 107.421 55.9587C107.804 55.9587 108.187 56.0356 108.57 56.1896C108.953 56.3435 109.259 56.5745 109.489 56.8823C109.718 57.1902 109.948 57.5751 110.101 58.1139C110.254 58.6527 110.331 59.1915 110.331 59.8843C110.331 60.577 110.254 61.1928 110.101 61.6546C109.948 62.1164 109.718 62.5783 109.489 62.8862C109.182 63.194 108.876 63.425 108.493 63.5789C108.111 63.7328 107.728 63.8098 107.345 63.8098C106.962 63.8098 106.579 63.7328 106.196 63.5789C105.814 63.425 105.507 63.194 105.278 62.8862C105.048 62.5783 104.818 62.1934 104.665 61.6546C104.512 61.1928 104.435 60.577 104.435 59.8843ZM109.029 59.8843C109.029 58.8836 108.876 58.1909 108.57 57.729C108.264 57.2672 107.881 57.0363 107.345 57.0363C106.809 57.0363 106.426 57.2672 106.12 57.729C105.814 58.1909 105.66 58.8836 105.66 59.8843C105.66 60.8849 105.814 61.5776 106.12 62.0395C106.426 62.5013 106.809 62.7322 107.345 62.7322C107.881 62.7322 108.264 62.5013 108.57 62.0395C108.876 61.5776 109.029 60.8849 109.029 59.8843ZM115.231 57.2672C115.231 57.2672 115.155 57.1902 115.001 57.1902C114.925 57.1902 114.772 57.1133 114.542 57.1133C114.159 57.1133 113.853 57.1902 113.623 57.4211C113.394 57.6521 113.24 57.883 113.164 58.1139V63.6559H111.862V56.1126H113.011V57.1133C113.087 56.9593 113.164 56.8054 113.24 56.6514C113.317 56.4975 113.394 56.4205 113.547 56.2666C113.7 56.1896 113.853 56.0357 114.006 56.0357C114.159 55.9587 114.389 55.9587 114.619 55.9587C114.772 55.9587 114.925 55.9587 115.078 56.0357C115.155 56.0357 115.231 56.1126 115.308 56.1126M119.595 57.6521C119.519 57.5751 119.366 57.4211 119.136 57.2672C118.906 57.1133 118.6 57.0363 118.294 57.0363C117.988 57.0363 117.681 57.1133 117.528 57.2672C117.375 57.4211 117.298 57.5751 117.298 57.806C117.298 58.1139 117.375 58.3448 117.528 58.4988C117.681 58.6527 117.911 58.8836 118.294 59.1145L118.753 59.4224C119.289 59.7303 119.672 60.0382 119.978 60.4231C120.284 60.8079 120.438 61.1928 120.438 61.8086C120.438 62.4243 120.208 62.8862 119.825 63.348C119.442 63.7329 118.83 63.9638 118.064 63.9638C117.758 63.9638 117.528 63.9638 117.298 63.8868C117.069 63.8098 116.839 63.7328 116.686 63.6559C116.533 63.5789 116.38 63.5019 116.226 63.348C116.15 63.271 115.997 63.194 115.92 63.0401L116.533 62.0395C116.609 62.1164 116.686 62.1934 116.762 62.2704C116.839 62.3474 116.992 62.4243 117.069 62.5013C117.222 62.5783 117.298 62.6552 117.452 62.7322C117.605 62.8092 117.758 62.8092 117.988 62.8092C118.37 62.8092 118.677 62.7322 118.83 62.5783C119.059 62.4243 119.136 62.1934 119.136 61.9625C119.136 61.8086 119.136 61.6546 119.059 61.5007C118.983 61.3467 118.906 61.2697 118.83 61.1158C118.753 61.0388 118.6 60.8849 118.523 60.8079C118.37 60.7309 118.217 60.577 118.064 60.5L117.605 60.1921C117.145 59.8842 116.762 59.5764 116.533 59.2685C116.303 58.9606 116.15 58.4988 116.15 57.96C116.15 57.6521 116.226 57.4212 116.303 57.1902C116.38 56.9593 116.533 56.7284 116.762 56.5745C116.992 56.4205 117.222 56.2666 117.452 56.1896C117.681 56.1126 117.988 56.0357 118.294 56.0357C118.6 56.0357 118.83 56.0357 119.059 56.1126C119.289 56.1896 119.442 56.2666 119.595 56.3435C119.749 56.4205 119.902 56.4975 119.978 56.5745C120.055 56.6514 120.131 56.7284 120.208 56.8054M126.027 57.5751C126.027 57.5751 125.95 57.4981 125.874 57.4211C125.797 57.3442 125.721 57.2672 125.644 57.2672C125.568 57.1902 125.414 57.1902 125.261 57.1133C125.108 57.0363 124.955 57.0363 124.802 57.0363C124.496 57.0363 124.266 57.1133 124.036 57.1902C123.806 57.2672 123.577 57.4211 123.424 57.6521C123.271 57.883 123.117 58.1909 123.041 58.4988C122.964 58.8836 122.888 59.2685 122.888 59.8073C122.888 60.3461 122.964 60.8079 123.041 61.1928C123.117 61.5776 123.271 61.8855 123.424 62.1164C123.577 62.3474 123.806 62.5013 123.96 62.5783C124.189 62.6552 124.419 62.7322 124.725 62.7322C125.108 62.7322 125.414 62.6552 125.644 62.5013C125.874 62.3474 126.027 62.2704 126.103 62.1934L126.639 63.0401C126.563 63.1171 126.486 63.194 126.41 63.271C126.333 63.348 126.18 63.425 126.027 63.5019C125.874 63.5789 125.644 63.6559 125.491 63.7329C125.261 63.8098 125.032 63.8098 124.725 63.8098C124.342 63.8098 123.96 63.7328 123.577 63.5789C123.194 63.425 122.888 63.194 122.658 62.8862C122.352 62.5783 122.199 62.1934 122.045 61.6546C121.892 61.1158 121.816 60.5 121.816 59.8073C121.816 59.1145 121.892 58.4988 122.122 57.96C122.275 57.4212 122.581 57.0363 122.888 56.7284C123.194 56.4205 123.5 56.1896 123.883 56.0357C124.266 55.8817 124.649 55.8047 125.032 55.8047C125.338 55.8047 125.568 55.8047 125.797 55.8817C126.027 55.9587 126.18 56.0357 126.333 56.1126C126.486 56.1896 126.639 56.2666 126.716 56.3435C126.793 56.4205 126.869 56.4975 126.946 56.5745M131.999 63.6559V58.8066C131.999 58.1909 131.922 57.729 131.693 57.4211C131.463 57.1133 131.157 57.0363 130.697 57.0363C130.315 57.0363 130.008 57.1133 129.779 57.3442C129.549 57.4981 129.319 57.729 129.166 57.883V63.6559H127.864V52.5719L129.166 52.418V56.8823C129.243 56.8054 129.243 56.7284 129.396 56.6514C129.472 56.5745 129.625 56.4205 129.779 56.3435C129.932 56.2666 130.161 56.1126 130.315 56.0357C130.544 55.9587 130.774 55.9587 131.08 55.9587C131.769 55.9587 132.229 56.1896 132.612 56.5745C132.994 57.0363 133.224 57.729 133.224 58.7297V63.6559M140.345 63.6559H139.196V62.8092C139.196 62.8862 139.12 62.9631 138.967 63.1171C138.89 63.271 138.737 63.348 138.584 63.425C138.431 63.5019 138.201 63.6559 137.971 63.7329C137.741 63.8098 137.512 63.8868 137.205 63.8868C136.899 63.8868 136.593 63.8098 136.287 63.7329C136.057 63.6559 135.827 63.5019 135.598 63.271C135.444 63.0401 135.291 62.7322 135.138 62.4243C135.062 62.0395 134.985 61.6546 134.985 61.1158V56.1896H136.287V61.0388C136.287 61.6546 136.363 62.1164 136.593 62.3474C136.823 62.5783 137.129 62.7322 137.512 62.7322C137.895 62.7322 138.201 62.6552 138.431 62.4243C138.66 62.2704 138.89 62.0395 139.043 61.8855V56.1126H140.345M146.393 63.6559V58.8066C146.393 58.1909 146.317 57.729 146.087 57.4211C145.857 57.1133 145.551 57.0363 145.092 57.0363C144.709 57.0363 144.403 57.1133 144.173 57.3442C143.943 57.4981 143.714 57.729 143.56 57.883V63.6559H142.259V56.1126H143.407V56.9593C143.407 56.8823 143.484 56.8054 143.637 56.6514C143.714 56.4975 143.867 56.4205 144.02 56.3435C144.173 56.2666 144.403 56.1126 144.632 56.0357C144.862 55.9587 145.092 55.8817 145.398 55.8817C145.704 55.8817 146.011 55.9587 146.317 56.0357C146.623 56.1126 146.776 56.2666 147.006 56.4975C147.159 56.7284 147.312 57.0363 147.465 57.3442C147.542 57.729 147.618 58.1139 147.618 58.6527V63.5789M154.892 57.1133H153.973C154.203 57.4981 154.356 57.9599 154.356 58.4988C154.356 58.8836 154.28 59.2685 154.127 59.5764C153.973 59.8843 153.82 60.1921 153.591 60.3461C153.361 60.577 153.055 60.7309 152.748 60.8079C152.442 60.9619 152.059 60.9619 151.753 60.9619H151.523C151.447 60.9619 151.37 60.9619 151.294 60.9619C151.14 61.0388 151.064 61.1158 150.911 61.1928C150.758 61.3467 150.681 61.4237 150.681 61.6546C150.681 61.8085 150.758 61.9625 150.834 62.0395C150.987 62.1164 151.14 62.1934 151.447 62.1934H152.366C152.748 62.1934 153.055 62.1934 153.361 62.2704C153.667 62.3474 153.897 62.4243 154.127 62.6552C154.356 62.8092 154.509 63.0401 154.662 63.271C154.816 63.5019 154.816 63.8098 154.816 64.1947C154.816 64.5795 154.739 64.9644 154.586 65.2723C154.433 65.5802 154.203 65.8881 153.897 66.119C153.591 66.3499 153.208 66.5808 152.748 66.6578C152.289 66.8117 151.83 66.8887 151.217 66.8887C150.451 66.8887 149.839 66.7348 149.379 66.3499C148.997 65.965 148.767 65.5032 148.767 64.8105C148.767 64.5026 148.843 64.2717 148.92 64.1177C148.997 63.8868 149.15 63.7328 149.303 63.5789C149.456 63.425 149.609 63.271 149.686 63.194C149.839 63.1171 149.915 63.0401 149.992 62.9631C149.686 62.7322 149.533 62.3474 149.533 61.8855C149.533 61.6546 149.533 61.5007 149.686 61.3467C149.762 61.1928 149.839 61.1158 149.915 60.9619C149.992 60.8849 150.145 60.8079 150.222 60.7309C150.298 60.654 150.375 60.654 150.451 60.577C150.069 60.4231 149.762 60.1152 149.533 59.7303C149.303 59.3454 149.15 58.8836 149.15 58.2678C149.15 57.883 149.226 57.4981 149.379 57.1902C149.533 56.8823 149.686 56.5745 149.915 56.4205C150.145 56.1896 150.375 56.0356 150.681 55.9587C150.987 55.8817 151.294 55.8047 151.676 55.8047C152.059 55.8047 152.366 55.8817 152.672 55.9587H154.969M151.447 63.425C151.217 63.425 151.064 63.425 150.834 63.348C150.758 63.425 150.681 63.5019 150.528 63.5019C150.375 63.5019 150.375 63.6559 150.298 63.7329C150.222 63.8098 150.145 63.9638 150.145 64.1177C150.069 64.2717 150.069 64.4256 150.069 64.5795C150.069 65.3493 150.528 65.8111 151.37 65.8111C152.136 65.8111 152.672 65.6572 153.055 65.3493C153.437 65.0414 153.591 64.7335 153.591 64.3486C153.591 63.9638 153.437 63.7328 153.284 63.5789C153.055 63.425 152.748 63.348 152.366 63.348M153.055 58.4218C153.055 57.883 152.901 57.4981 152.672 57.2672C152.442 57.0363 152.136 56.9593 151.753 56.9593C151.37 56.9593 151.064 57.0363 150.834 57.2672C150.604 57.4981 150.451 57.883 150.451 58.4218C150.451 58.9606 150.604 59.3454 150.834 59.5764C151.064 59.8073 151.37 59.8843 151.753 59.8843C152.136 59.8843 152.442 59.8073 152.672 59.5764C152.978 59.4224 153.055 59.0376 153.055 58.4218Z" fill="black"/>
<path d="M61.4821 74.2009H63.4728V100.525H58.8789V74.2009" fill="#F5CF00"/>
<path d="M61.4821 47.7227H63.4728V74.201H58.8789V47.7227" fill="#E6000C"/>
<path d="M46.9349 30.7118C48.313 32.8671 49.3084 32.7901 50.9163 32.7901C49.6147 31.7895 48.7724 30.4809 48.313 29.7882L45.8629 25.8626C45.6332 24.6311 45.0207 23.4765 44.0254 22.6298C44.3316 22.4758 44.5613 22.3989 44.791 22.2449C43.1831 22.2449 41.5753 21.3982 40.733 21.3982C40.1971 21.3982 39.8143 21.7061 39.8143 22.168C39.8143 22.6298 40.3502 23.1686 41.269 23.1686C41.4987 23.1686 41.7284 23.1686 42.0347 23.0916C42.5706 23.7844 42.9534 24.4771 42.9534 25.4008C42.9534 27.0942 40.8862 28.4797 38.8189 28.4797C38.6658 28.4797 38.5892 28.4797 38.4361 28.4797C38.2829 28.0178 37.5938 27.3251 37.5938 26.5554C37.5938 25.1699 38.5126 24.0923 38.5126 22.7068C38.5126 21.8601 38.1298 21.3213 37.9767 21.0903C38.2064 20.8594 38.5126 20.5515 38.5892 20.3976C38.4361 20.4746 38.2829 20.4746 37.9767 20.4746C36.9813 20.4746 36.1391 20.2437 35.3734 20.2437C34.914 20.2437 34.8375 20.3976 34.8375 20.5515C34.8375 20.6285 34.8375 20.6285 34.8375 20.7055C34.6844 20.6285 34.5312 20.6285 34.3015 20.5515C34.0718 20.4746 33.8421 20.4746 33.5359 20.4746C32.5405 20.4746 32.2342 20.8594 32.2342 21.2443C32.2342 21.5522 32.4639 22.091 32.6936 22.4758C33.0765 22.3219 33.5359 22.168 33.689 22.168C34.225 22.168 34.6844 22.6298 34.914 23.2456C34.6078 23.3225 34.5312 23.3225 34.1484 23.3225C33.2296 23.3225 32.6171 23.0146 32.4639 23.0146C32.4639 23.1686 32.6936 23.4765 33.2296 23.7074C33.9187 23.9383 34.914 24.0923 35.1437 24.0923C35.1437 24.0923 34.9906 24.4771 34.7609 24.4771C34.6844 24.4771 34.6844 24.4771 34.6078 24.4771C33.9187 24.3232 33.689 24.2462 32.7702 23.9383H32.6936C32.6936 24.3232 33.6124 25.0929 34.4547 25.4008C33.7656 26.3244 32.9233 27.2481 32.4639 28.6336C32.3874 28.6336 32.2342 28.6336 32.1577 28.6336C30.0904 28.6336 28.0231 27.2481 28.0231 25.5547C28.0231 24.6311 28.406 24.0153 28.9419 23.2456C29.2482 23.3225 29.4779 23.3225 29.7076 23.3225C30.6264 23.3225 31.1623 22.7837 31.1623 22.3219C31.1623 21.8601 30.7795 21.5522 30.2435 21.5522C29.4013 21.5522 27.7934 22.3989 26.1856 22.3989C26.3387 22.5528 26.645 22.6298 26.9512 22.7837C26.0324 23.6304 25.4199 24.785 25.1136 26.0166L22.6635 29.9421C22.2807 30.6349 21.3619 31.8664 20.0603 32.944C21.6682 32.944 22.7401 32.944 24.0417 30.8658L25.2668 28.8645C25.3433 29.0954 25.4965 29.4033 25.573 29.6342L23.0464 33.6368C22.6635 34.3295 21.7447 35.5611 20.4431 36.6387C22.051 36.6387 23.0464 36.6387 24.4245 34.5604L26.5684 31.0967C26.7215 31.2507 26.8747 31.4046 27.1043 31.6355L24.0417 36.4847C23.6589 37.1775 22.7401 38.409 21.4385 39.4867C23.0464 39.4867 24.0417 39.5636 25.4199 37.4084L28.406 32.6361C28.6357 32.7901 28.7888 32.8671 29.0185 33.021L25.4199 38.8709C25.0371 39.5636 24.1183 40.7952 22.8167 41.8728C24.4245 41.8728 25.4199 41.8728 26.7981 39.7945L30.5498 33.7907C30.7795 33.8677 31.0092 33.9447 31.2389 34.0216L27.0278 40.7952C26.645 41.4879 25.7262 42.7195 24.4245 43.7971C26.0324 43.7971 27.0278 43.7971 28.406 41.7188L32.9233 34.4835C32.9999 34.4835 32.9999 34.4835 33.0765 34.4835C33.2296 34.8683 33.3062 35.2532 33.3062 35.6381C33.3062 37.8702 31.8514 39.8715 30.0904 41.411C30.167 41.4879 30.3967 41.4879 30.5498 41.4879C30.9326 41.4879 31.1623 41.4879 31.3155 41.411C30.9326 42.3346 30.0138 43.5662 29.5544 44.1819C28.9419 44.105 28.0997 44.028 27.5637 44.028C26.9512 44.028 26.9512 44.3359 26.9512 44.6438C26.9512 45.1826 27.1809 45.5674 27.4872 45.7984C27.5637 45.4905 27.7934 45.1826 28.8654 45.1826H28.9419C28.6357 45.5674 27.6403 46.3372 27.6403 46.9529C27.6403 47.4148 28.0997 48.0306 28.7122 48.0306C28.7122 47.8766 28.7122 47.7996 28.7122 47.6457C28.7122 47.1069 29.1716 46.4911 29.5544 46.1063C29.5544 46.2602 29.5544 46.1832 29.5544 46.3372C29.5544 47.5687 29.631 48.1075 30.4732 48.1075C30.8561 48.1075 31.0858 47.8766 31.2389 47.7996C30.7029 47.3378 30.7029 46.9529 30.7029 46.2602V45.4135C30.7029 45.2596 30.7029 45.0286 30.7029 44.8747C31.0092 44.8747 31.0858 44.8747 31.3155 44.8747C31.3155 44.8747 32.3874 44.7977 32.6936 45.3365C32.9999 45.0286 33.4593 44.6438 33.4593 44.2589C33.4593 43.951 33.3062 43.6431 32.7702 43.6431C32.5405 43.6431 31.8514 43.7971 31.3155 43.7971C31.4686 43.4892 32.1577 42.4886 32.6936 41.7188C32.7702 42.0267 32.9233 42.3346 33.2296 42.5655C33.3062 42.1037 33.5359 40.6412 34.3015 39.7945C34.3781 40.4103 34.5312 40.9491 34.5312 42.2577C34.5312 45.3365 33.8421 47.5687 32.2342 47.9536C32.4639 48.3384 32.8468 48.6463 33.3062 48.6463C33.8421 48.6463 34.1484 48.0305 34.5312 47.4148C34.6844 47.8766 35.1437 48.9542 35.6031 48.9542C36.0625 48.9542 36.5219 47.8766 36.6751 47.4148C36.9813 48.0305 37.2876 48.6463 37.9001 48.6463C38.3595 48.6463 38.7423 48.3384 38.972 47.9536C37.4407 47.4917 36.6751 45.2596 36.6751 42.2577C36.6751 41.0261 36.7516 40.4103 36.9048 39.7945C37.5938 40.6412 37.9001 42.1037 37.9001 42.5655C38.2064 42.3346 38.3595 42.0267 38.4361 41.7188C39.0486 42.4116 39.6611 43.4122 39.8143 43.7971C39.2783 43.7971 38.5892 43.6431 38.3595 43.6431C37.8235 43.6431 37.6704 43.951 37.6704 44.2589C37.6704 44.7208 38.1298 45.1056 38.4361 45.3365C38.6658 44.7977 39.8143 44.8747 39.8143 44.8747C40.0439 44.8747 40.1205 44.8747 40.4268 44.8747C40.4268 45.0286 40.4268 45.2596 40.4268 45.4135C40.4268 45.6444 40.4268 45.7984 40.4268 46.0293C40.4268 46.722 40.4268 47.1069 39.8908 47.5687C39.9674 47.6457 40.2736 47.8766 40.6565 47.8766C41.4221 47.8766 41.5753 47.3378 41.5753 46.1063C41.5753 45.9523 41.5753 45.9523 41.5753 45.8753C41.9581 46.2602 42.4175 46.876 42.4175 47.4148C42.4175 47.4917 42.4175 47.6457 42.4175 47.7996C43.03 47.7996 43.4894 47.1839 43.4894 46.722C43.4894 46.1063 42.4941 45.2596 42.1878 44.9517C42.2644 44.9517 42.2644 44.9517 42.2644 44.9517C43.3363 44.9517 43.566 45.3365 43.6425 45.5674C43.9488 45.3365 44.1785 44.9517 44.1785 44.4129C44.1785 44.105 44.1019 43.7971 43.566 43.7971C43.03 43.7971 42.1878 43.8741 41.5753 43.951C41.1159 43.3353 40.2736 42.1037 39.8143 41.18C39.9674 41.18 40.1971 41.257 40.5799 41.257C40.733 41.257 40.9627 41.257 41.0393 41.18C39.2783 39.6406 37.747 37.6393 37.747 35.4071C37.747 35.0223 37.8235 34.7144 37.9767 34.2526C38.0532 34.2526 38.0532 34.2526 38.1298 34.2526L42.6472 41.4879C43.9488 43.6431 45.0207 43.5662 46.6286 43.5662C45.327 42.5655 44.4848 41.257 44.0254 40.5643L39.8143 33.7907C40.0439 33.7138 40.2736 33.6368 40.5033 33.5598L44.2551 39.5636C45.6332 41.7188 46.6286 41.6419 48.2365 41.6419C46.9349 40.6412 46.0926 39.3327 45.6332 38.64L42.0347 32.7901C42.2644 32.7131 42.4175 32.5592 42.6472 32.4052L45.6332 37.1775C47.0114 39.3327 48.0068 39.2557 49.6147 39.2557C48.313 38.2551 47.4708 36.9466 47.0114 36.2538L43.9488 31.4046C44.1019 31.2507 44.3316 31.0967 44.4848 30.8658L46.6286 34.3295C48.0068 36.4847 49.0021 36.4078 50.61 36.4078C49.3084 35.4071 48.4662 34.0986 48.0068 33.4059L45.4801 29.4033C45.6332 29.1724 45.7098 28.8645 45.7864 28.6336M26.8746 26.0935C26.8746 24.5541 27.9466 23.3995 28.3294 23.0916C28.406 23.0916 28.4825 23.1686 28.6357 23.1686C28.2528 23.6304 27.4872 24.4771 27.4872 25.6317C27.4872 27.8639 29.7841 29.7112 32.4639 29.7112C32.4639 29.8652 32.4639 30.0961 32.4639 30.327C32.4639 30.6349 32.4639 30.9428 32.5405 31.2506C29.5544 31.0967 26.8746 28.7106 26.8746 26.0935ZM30.9326 44.105C31.7749 44.1819 32.2343 44.105 32.4639 44.028C32.6171 44.028 32.6936 44.028 32.8468 44.028C33.0765 44.028 33.2296 44.028 33.2296 44.3359C33.2296 44.4898 32.9999 44.7977 32.8468 44.9517C32.5405 44.6438 32.0811 44.5668 31.4686 44.5668C31.1623 44.5668 30.7795 44.6438 30.5498 44.6438V44.7208C30.5498 44.8747 30.6264 45.1056 30.6264 45.4135V45.6444V45.9523C30.6264 46.6451 30.7029 47.1069 31.0092 47.4148C30.9326 47.4148 30.8561 47.4917 30.7795 47.4917C30.3201 47.4917 30.2435 47.2608 30.2435 46.0293C30.2435 45.7984 30.2435 45.5674 30.2435 45.3365V45.1056L30.167 45.1826C29.4779 45.7214 28.8654 46.5681 28.7888 47.2608C28.5591 47.1069 28.406 46.876 28.406 46.6451C28.406 46.2602 28.9419 45.7214 29.631 45.1056L30.0138 44.7208H29.8607C29.7076 44.7208 29.4779 44.6438 29.2482 44.6438C28.5591 44.6438 28.0997 44.7977 27.7934 45.1056C27.7169 44.9517 27.6403 44.6438 27.6403 44.4129C27.6403 44.2589 27.6403 44.1819 27.7169 44.1819C27.7934 44.105 27.87 44.105 27.9466 44.105C28.7122 44.105 29.7076 44.2589 30.0138 44.3359C30.0904 44.2589 31.5452 42.2576 31.928 41.18C32.0046 41.18 32.0811 41.1031 32.2342 41.1031C32.5405 41.1031 32.6171 41.334 32.6936 41.6419C31.7749 42.5655 31.1623 43.4892 30.9326 44.105ZM39.0486 40.9491C39.2017 40.9491 39.2783 40.9491 39.3549 41.0261C39.7377 42.1037 41.269 44.105 41.3456 44.1819C41.7284 44.105 42.6472 43.951 43.4128 43.951C43.4894 43.951 43.566 43.951 43.6425 44.028C43.7191 44.105 43.7191 44.1819 43.7191 44.2589C43.7191 44.4898 43.6425 44.7977 43.566 44.9517C43.2597 44.6438 42.8769 44.4898 42.1112 44.4898C41.8815 44.4898 41.6518 44.5668 41.4987 44.5668H41.4221H41.3456L41.7284 44.9517C42.3409 45.5674 42.9534 46.1832 42.9534 46.4911C42.9534 46.722 42.7237 47.0299 42.5706 47.1069C42.4941 46.4141 41.8815 45.5674 41.1924 45.0286L41.1159 44.9517V45.1826C41.1159 45.3365 41.1159 45.5674 41.1159 45.8753C41.1159 47.1839 40.9627 47.3378 40.5799 47.3378C40.5033 47.3378 40.4268 47.3378 40.3502 47.2608C40.5799 46.9529 40.733 46.5681 40.733 45.7984V45.4905V45.2596C40.733 44.9517 40.733 44.7208 40.8096 44.5668V44.4898H40.733C40.5033 44.4898 40.1205 44.4129 39.8143 44.4129C39.2017 44.4129 38.7423 44.4898 38.4361 44.7977C38.2064 44.6438 38.0532 44.3359 38.0532 44.1819C38.0532 43.951 38.2064 43.8741 38.4361 43.8741C38.5126 43.8741 38.6658 43.8741 38.8189 43.8741C39.1252 43.8741 39.508 43.951 40.3502 43.951H40.4268V43.8741C40.1971 43.2583 39.6611 42.3346 38.6658 41.257C38.6658 41.1031 38.7423 40.9491 39.0486 40.9491ZM35.6031 23.3995C35.5266 23.0146 35.2969 22.6298 35.0672 22.3219C34.8375 22.014 34.4547 21.7061 33.9187 21.7061C33.689 21.7061 33.3062 21.7831 33.0765 21.937C32.9999 21.7831 32.7702 21.3213 32.7702 21.1673C32.7702 21.0134 33.0765 20.7825 33.689 20.7825C35.0672 20.7825 35.8328 21.3982 35.8328 22.3989C35.8328 22.7837 35.6797 23.0916 35.6031 23.3995ZM36.1391 22.091C36.0625 21.7831 35.986 21.5522 35.8328 21.3213C35.8328 21.0903 35.986 20.7825 36.3688 21.0134C36.1391 21.2443 36.2922 21.6291 36.2922 21.6291C36.2922 21.6291 36.7516 21.3982 36.6751 21.0903C37.4407 21.2443 36.9048 22.168 36.1391 22.091ZM38.8189 31.1737C38.8189 30.8658 38.8955 30.5579 38.8955 30.25C38.8955 30.0961 38.8955 29.8652 38.8955 29.6342C41.4987 29.6342 43.7957 27.7099 43.7957 25.5547C43.7957 24.4771 43.1066 23.6304 42.6472 23.0916C42.7238 23.0916 42.8003 23.0146 42.9534 23.0146C43.3363 23.3225 44.4082 24.5541 44.4082 26.0166C44.3316 28.7106 41.805 31.0967 38.8189 31.1737Z" fill="black"/>
<path d="M63.4728 21.4751V47.7995H58.8789V21.4751" fill="black"/>
</svg>
