<svg width="141" height="54" viewBox="0 0 141 54" fill="none" xmlns="http://www.w3.org/2000/svg">
<path d="M55.4248 6.9064V7.75015H58.1811V16.2439H59.1936V7.8064H61.9498V6.9064H55.4248ZM64.0873 6.9064V16.2439H69.1499V15.4002H65.0998V11.8564H68.7561V11.0127H65.0998V7.8064H69.1499V6.9064H64.0873ZM76.0686 7.52515C76.9686 7.52515 77.7561 7.6939 78.4874 8.20015L78.8811 7.4689C77.9811 7.0189 77.1374 6.73765 76.0686 6.73765C73.3124 6.73765 71.1186 8.7064 71.1186 11.5752C71.1186 14.6127 73.3124 16.4127 76.0686 16.4127C77.0249 16.4127 78.0374 16.0752 78.8249 15.5689L78.4311 14.8939C77.6999 15.2877 76.8561 15.6252 76.0124 15.6252C73.7624 15.6252 72.1311 13.8252 72.1311 11.5752C72.1874 9.32515 73.7624 7.52515 76.0686 7.52515ZM81.2436 6.9064V16.2439H82.3124V11.7439H87.4312V16.2439H88.4437V6.9064H87.4312V10.9002H82.3124V6.9064H81.2436ZM92.8312 6.73765L91.7624 7.0189V16.3002H92.7749V8.2564L98.2874 16.4689L99.4124 16.1877V6.9064H98.4562V14.9502L92.8312 6.73765ZM103.125 16.3002H104.137V6.9064H103.125V16.3002ZM109.481 15.6814C108.75 15.6814 108.019 15.3439 107.512 15.0064L107.119 15.6814C107.85 16.1314 108.637 16.3564 109.594 16.3564C111.619 16.3564 112.575 15.0627 112.575 13.7127C112.575 12.3064 111.562 11.6877 110.494 11.1814L109.706 10.7877C109.031 10.4502 108.3 10.0002 108.3 9.10015C108.3 7.86265 109.312 7.3564 110.156 7.3564C111.056 7.3564 111.619 7.63765 112.125 8.0314L112.462 7.3564C111.731 6.96265 110.944 6.6814 110.044 6.6814C108.412 6.6814 107.231 7.6939 107.231 9.10015C107.231 11.0689 108.637 11.4064 110.044 12.0814C110.775 12.4189 111.45 12.9252 111.45 13.8814C111.45 15.0064 110.662 15.6814 109.481 15.6814ZM119.775 7.52515C120.675 7.52515 121.463 7.6939 122.194 8.20015L122.588 7.4689C121.688 7.0189 120.844 6.73765 119.775 6.73765C117.019 6.73765 114.825 8.7064 114.825 11.5752C114.825 14.6127 117.019 16.4127 119.775 16.4127C120.731 16.4127 121.744 16.0752 122.531 15.5689L122.138 14.8939C121.406 15.2877 120.562 15.6252 119.719 15.6252C117.469 15.6252 115.837 13.8252 115.837 11.5752C115.894 9.32515 117.469 7.52515 119.775 7.52515ZM125.231 6.9064V16.2439H126.3V11.7439H131.419V16.2439H132.431V6.9064H131.419V10.9002H126.3V6.9064H125.231ZM135.75 6.9064V16.2439H140.813V15.4002H136.763V11.8564H140.419V11.0127H136.763V7.8064H140.813V6.9064H135.75ZM63.8061 28.5065V22.3752H62.7373V28.3377C62.7373 30.419 61.7248 31.094 60.0936 31.094C58.3498 31.094 57.5623 30.1377 57.5623 28.3377V22.3752H56.4936V28.619C56.4936 30.7565 57.7311 31.8815 60.0373 31.8815C61.8936 31.8815 63.8061 31.319 63.8061 28.5065ZM67.8561 22.2064L66.7874 22.4877V31.769H67.7998V23.7252L73.3124 31.9377L74.4374 31.6565V22.3752H73.4811V30.419L67.8561 22.2064ZM77.6436 31.769H78.7124V22.3752H77.6436V31.769ZM81.6936 22.2627L80.6811 22.6002L84.2249 31.769H85.2374L88.8374 22.6002L87.8249 22.2627L84.7311 30.644L81.6936 22.2627ZM90.9187 22.3752V31.7127H95.9812V30.869H91.9312V27.3252H95.5874V26.4815H91.9312V23.2752H95.9812V22.4314H90.9187V22.3752ZM100.706 26.9315H99.4687V23.2189H100.987C102.619 23.2189 103.069 24.0064 103.069 25.0752C103.069 26.5377 101.944 26.9315 100.706 26.9315ZM101.269 22.3752H98.4562V31.7127H99.5249V27.719H100.369C101.044 27.719 101.437 28.0002 101.831 28.4502L102.225 28.9565L104.419 31.9377L105.319 31.3752L103.462 28.9002C103.125 28.4502 102.619 27.5502 102 27.4377V27.269C103.294 27.1002 104.025 26.369 104.025 24.8502C104.025 23.3877 103.012 22.3752 101.269 22.3752ZM109.031 31.2627C108.3 31.2627 107.569 30.9252 107.062 30.5877L106.669 31.2627C107.4 31.7127 108.187 31.9377 109.144 31.9377C111.169 31.9377 112.125 30.644 112.125 29.294C112.125 27.8877 111.112 27.269 110.044 26.7627L109.256 26.3689C108.581 26.0315 107.85 25.5814 107.85 24.6814C107.85 23.4439 108.862 22.9377 109.706 22.9377C110.606 22.9377 111.169 23.2189 111.675 23.6127L112.012 22.9377C111.281 22.5439 110.494 22.2627 109.594 22.2627C107.962 22.2627 106.781 23.2752 106.781 24.6814C106.781 26.6502 108.187 26.9877 109.594 27.6627C110.325 28.0002 111 28.5065 111 29.4627C111 30.5315 110.212 31.2627 109.031 31.2627ZM114.881 31.769H115.95V22.3752H114.881V31.769ZM117.975 22.3752V23.2189H120.731V31.7127H121.744V23.2752H124.5V22.4314H117.975V22.3752ZM129.281 23.3314L131.025 27.944H127.538L129.281 23.3314ZM133.5 31.6565L129.788 22.4314H128.719L124.894 31.6565L125.906 31.994L127.144 28.7315H131.194L132.431 31.994L133.5 31.6565ZM131.925 21.8127H130.969V23.0502H131.925V21.8127ZM127.538 21.8127H126.581V23.0502H127.538V21.8127ZM134.456 22.3752V23.2189H137.213V31.7127H138.225V23.2752H140.981V22.4314H134.456V22.3752ZM58.9686 46.394H57.6186V38.6877H59.1936C61.7811 38.6877 63.4686 40.0377 63.4686 42.4565C63.4686 44.9315 61.7248 46.394 58.9686 46.394ZM59.4186 37.844H56.5498V47.1815H59.0811C62.3436 47.1815 64.4811 45.5503 64.4811 42.4002C64.4811 40.094 63.1873 37.844 59.4186 37.844ZM70.2749 38.8002L72.0186 43.4128H68.5311L70.2749 38.8002ZM74.4936 47.069L70.8374 37.844H69.7686L65.9436 47.069L66.9561 47.4065L68.1936 44.144H72.2436L73.4811 47.4065L74.4936 47.069ZM79.3311 42.4002H78.0936V38.6315H79.6124C81.2436 38.6315 81.6936 39.419 81.6936 40.4877C81.6374 42.0065 80.5124 42.4002 79.3311 42.4002ZM79.8374 37.844H77.0249V47.1815H78.0936V43.1315H78.9374C79.6124 43.1315 80.0061 43.4127 80.3999 43.8627L80.7936 44.369L82.9874 47.3503L83.8874 46.7878L82.0311 44.3128C81.6936 43.8628 81.1874 42.9627 80.5686 42.8502V42.6815C81.8624 42.5127 82.5936 41.7815 82.5936 40.2627C82.6499 38.8565 81.5811 37.844 79.8374 37.844ZM89.6249 37.844H88.4999L85.9124 47.069L86.9249 47.3503L89.1187 39.2502L91.4812 47.1815H92.6624L95.0812 39.194L97.2749 47.3503L98.2874 47.069L95.5874 37.844H94.4624L92.0437 46.0003L89.6249 37.844ZM102.675 46.6753C101.944 46.6753 101.212 46.3378 100.706 46.0003L100.312 46.6753C101.044 47.1253 101.831 47.3503 102.787 47.3503C104.812 47.3503 105.769 46.0565 105.769 44.7065C105.769 43.3002 104.756 42.6815 103.687 42.1752L102.9 41.7815C102.225 41.444 101.494 40.994 101.494 40.094C101.494 38.8565 102.506 38.3502 103.35 38.3502C104.25 38.3502 104.812 38.6315 105.319 39.0252L105.656 38.3502C104.925 37.9565 104.137 37.6752 103.237 37.6752C101.606 37.6752 100.425 38.6877 100.425 40.094C100.425 42.0627 101.831 42.4002 103.237 43.0752C103.969 43.4128 104.644 43.919 104.644 44.8753C104.644 45.944 103.856 46.6753 102.675 46.6753ZM107.456 37.844V38.6877H110.212V47.1815H111.225V38.744H113.981V37.844H107.456ZM118.875 38.8002L120.619 43.4128H117.075L118.875 38.8002ZM123.094 47.1253L119.381 37.844H118.312L114.487 47.069L115.5 47.4065L116.737 44.144H120.788L122.025 47.4065L123.094 47.1253ZM127.65 46.394H126.3V38.6877H127.875C130.463 38.6877 132.15 40.0377 132.15 42.4565C132.15 44.9315 130.406 46.394 127.65 46.394ZM128.1 37.844H125.231V47.1815H127.763C131.025 47.1815 133.163 45.5503 133.163 42.4002C133.163 40.094 131.869 37.844 128.1 37.844ZM134.456 37.844V38.6877H137.213V47.1815H138.225V38.744H140.981V37.844H134.456Z" fill="#231F20"/>
<path d="M18.131 12.9813C18.131 13.2626 17.906 13.4876 17.6248 13.4876C17.3435 13.4876 17.1185 13.2626 17.1185 12.9813C17.1185 12.7001 17.3435 12.4751 17.6248 12.4751C17.906 12.4751 18.131 12.7001 18.131 12.9813Z" fill="#231F20"/>
<path d="M26.1746 14.1626C25.9496 14.2188 25.7246 14.3313 25.5559 14.3313C25.4996 14.3313 24.9371 14.2188 24.9934 14.3876C25.1621 14.8376 25.6684 14.8938 26.1184 15.0063C26.1184 15.0626 26.1184 14.5001 26.1746 14.1626Z" fill="#231F20"/>
<path d="M29.0998 15.9064C28.8185 15.7939 28.5373 15.6814 28.3123 15.4564C28.256 15.4002 28.031 15.0627 28.031 15.2877C27.9185 15.7939 28.0873 16.4689 28.481 16.8064C28.4248 16.8627 28.8748 16.2439 29.0998 15.9064Z" fill="#231F20"/>
<path d="M32.0248 17.3688C32.0248 17.5938 31.8561 17.7626 31.6311 17.7626C31.4061 17.7626 31.2373 17.5938 31.2373 17.3688C31.2373 17.1438 31.4061 16.9751 31.6311 16.9751C31.8561 16.9751 32.0248 17.1438 32.0248 17.3688Z" fill="#231F20"/>
<path d="M34.6124 14.2189C34.6124 14.5001 34.3874 14.7252 34.1061 14.7252C33.8249 14.7252 33.5999 14.5001 33.5999 14.2189C33.5999 13.9376 33.8249 13.7126 34.1061 13.7126C34.3874 13.7126 34.6124 13.9376 34.6124 14.2189Z" fill="#231F20"/>
<path d="M33.3184 15.7376C33.3184 15.9626 33.0934 16.1876 32.8684 16.1876C32.6434 16.1876 32.4184 15.9626 32.4184 15.7376C32.4184 15.5126 32.6434 15.2876 32.8684 15.2876C33.0934 15.2876 33.3184 15.5126 33.3184 15.7376Z" fill="#231F20"/>
<path d="M37.931 11.7438C37.481 11.9126 37.031 11.6313 36.8622 11.2376C36.6935 10.7876 36.9747 10.3375 37.3685 10.1688L37.5935 10.1125L38.156 11.6313L37.931 11.7438Z" fill="#231F20"/>
<path d="M38.606 26.6503C38.6622 27.3816 38.3247 28.0003 37.8747 28.0566C37.3685 28.1128 36.9185 27.5503 36.8622 26.8191C36.806 26.0878 37.1435 25.4691 37.6497 25.4128C38.0997 25.3566 38.5497 25.9191 38.606 26.6503Z" fill="#231F20"/>
<path d="M27.2433 53.6503C25.6683 53.6503 24.0371 53.5378 22.4621 53.2565C17.3433 52.4128 13.2371 50.219 11.7183 47.519C10.9308 46.169 10.2558 43.5253 14.0246 40.9378C13.9121 40.7128 13.7433 40.544 13.6308 40.319C13.3496 39.9253 13.0683 39.5315 12.7308 39.0815C12.7308 39.0815 12.7308 39.0815 12.7308 39.0253C12.6746 38.969 12.6746 38.9128 12.6183 38.8565C12.2245 38.3503 11.8308 37.844 11.437 37.3377C11.0433 38.4627 10.987 39.1378 11.662 40.1503C11.7183 40.2065 11.7183 40.2628 11.7183 40.319V40.3753C11.7183 40.3753 11.7183 40.4315 11.662 40.4315L7.89329 44.9315C7.83704 44.9878 7.78079 45.044 7.72454 45.044C7.66829 45.044 7.61204 45.044 7.55579 44.9878C6.48703 43.8065 5.53078 42.569 4.68703 41.2753C4.68703 41.2753 4.68703 41.219 4.63078 41.219C3.78703 39.9253 3.11202 38.6315 2.49327 37.2815C2.49327 37.2815 2.49327 37.2815 2.49327 37.2253V37.169C1.87452 35.7065 1.36827 34.1877 1.03077 32.669C1.03077 32.669 1.03077 32.669 1.03077 32.6127C0.749519 31.2065 0.524518 29.8002 0.468268 28.394C0.412018 26.6502 0.468267 24.9065 0.805768 23.1627V23.1065V23.0502C1.08702 21.5315 1.48077 20.0127 1.98702 18.4939C1.98702 18.4377 1.98702 18.4377 1.98702 18.4377C2.49327 17.0314 3.11203 15.6814 3.84328 14.3877C3.84328 14.3877 3.84328 14.3314 3.89953 14.3314C4.23703 13.7689 4.57453 13.2064 4.91203 12.6439C5.41828 11.9127 5.92453 11.1814 6.48704 10.5064C6.48704 10.5064 6.48703 10.4502 6.54328 10.4502C7.49954 9.26892 8.51204 8.20017 9.63704 7.18766L9.69329 7.13142C10.8745 6.11891 12.1121 5.16266 13.4058 4.37516C13.4058 4.37516 13.4621 4.31891 13.5183 4.31891C14.8121 3.53141 16.1621 2.8564 17.5683 2.2939C17.6808 2.23765 17.8496 2.1814 17.9621 2.12515C20.8308 1.0564 23.8121 0.493896 26.8496 0.493896C26.8496 0.493896 26.9058 0.493896 26.9621 0.493896C28.4808 0.493896 30.0558 0.606396 31.5746 0.887647H31.6309C33.1496 1.1689 34.6684 1.56265 36.1871 2.0689C36.2434 2.0689 36.2996 2.12515 36.3559 2.23765C36.3559 2.2939 36.3559 2.4064 36.3559 2.46265L32.3059 9.21267C32.3059 9.21267 32.3059 9.26892 32.2496 9.26892L32.1934 9.32517C32.1371 9.32517 32.1371 9.38142 32.0809 9.32517C32.0809 9.32517 32.0809 9.32517 32.0246 9.32517C30.7309 9.10017 29.9433 9.15642 29.4371 9.66267C30.6183 9.88767 31.8559 10.1689 33.0371 10.6189C34.1621 9.38142 35.3434 8.25642 36.6371 7.24391C36.6371 7.24391 36.6371 7.24392 36.6934 7.18766H36.7496C36.8059 7.18766 36.8059 7.18766 36.8621 7.18766C36.9184 7.18766 36.9184 7.18766 36.9746 7.24391L37.0309 7.30017C37.0309 7.30017 37.0309 7.30016 37.0309 7.35641L38.7184 12.3627L39.3371 14.2189V14.2752C39.3371 14.3314 39.3371 14.3314 39.3371 14.3877C39.3371 14.4439 39.2809 14.4439 39.2809 14.5002C39.2809 14.5002 39.2246 14.5002 39.2246 14.5564C39.1684 14.6127 39.0559 14.6689 38.9996 14.7252C39.5059 16.1877 42.8246 26.2565 43.8934 28.9565C44.0059 29.2377 44.1184 29.4627 44.1746 29.744C44.7934 31.2627 45.1871 32.3315 44.7371 33.0065C44.4559 33.4002 43.8934 33.6252 42.9934 33.7377C42.3184 34.4127 42.2621 34.5815 42.5996 35.0315C43.1621 35.819 43.1059 36.1565 42.1496 37.0002C42.5996 37.3377 42.7684 37.9003 42.5996 38.5753C42.5434 38.6878 42.4871 38.744 42.3746 38.744C41.8121 38.744 41.6434 38.9128 41.3059 39.3628C42.8246 40.8815 42.3746 42.0628 41.9246 42.6815C40.9121 43.9753 38.3246 44.7628 35.1184 44.6503V44.7065C34.7246 46.0003 34.4434 47.294 34.3309 48.5315C36.4684 49.1503 39.0559 49.9378 39.6746 50.5003C39.6746 50.5003 39.6746 50.5003 39.7309 50.5565L39.7871 50.6128C39.7871 50.669 39.7871 50.669 39.7871 50.7253C39.7871 50.7815 39.7871 50.7815 39.7309 50.8378L39.6746 50.894H39.6184C38.9996 51.1753 38.3246 51.5128 37.7059 51.7378C37.7059 51.7378 37.7059 51.7378 37.6496 51.7378C34.3309 52.9753 30.7871 53.6503 27.2433 53.6503ZM17.4558 51.2878C18.9746 51.9065 20.7183 52.4128 22.5746 52.7503C24.2621 53.0315 26.0058 53.144 27.6933 53.144C25.3871 52.244 21.1683 50.9503 18.9746 50.5003C18.5246 50.7815 18.0183 51.0628 17.4558 51.2878ZM19.5933 50.1065C22.2933 50.669 27.1308 52.244 28.8746 53.0878C29.9433 53.0315 31.0121 52.919 32.0246 52.7503C29.1558 51.794 23.2496 49.9378 20.6058 49.2628C20.3246 49.6003 19.9308 49.8815 19.5933 50.1065ZM20.9996 48.869C24.0933 49.6565 30.6184 51.7378 32.9809 52.5253C33.3184 52.469 33.6559 52.3565 33.9371 52.3003C33.4309 50.1065 33.6559 47.2378 34.4996 44.5378C31.7996 44.369 28.6496 43.5253 25.8371 41.7815C25.3308 42.1753 24.7121 42.344 24.0371 42.344C23.8683 42.344 23.6996 42.344 23.5871 42.2878C23.5871 43.8065 23.0808 46.619 20.9996 48.869ZM34.2184 50.6128C34.2746 51.1753 34.3309 51.7378 34.4434 52.244C35.2871 52.019 36.1309 51.7378 36.9184 51.4565C36.4684 51.2315 35.6809 50.9503 34.2184 50.6128ZM34.1621 50.0503C36.5246 50.669 37.2559 51.0065 37.4809 51.1753C37.9309 51.0065 38.4371 50.7815 38.8871 50.5565C38.1559 50.1628 36.4684 49.6003 34.1621 48.9253C34.1621 49.319 34.1621 49.7128 34.1621 50.0503ZM14.3058 41.3878C11.7745 43.1315 10.987 45.2128 12.1683 47.294C12.9558 48.7003 14.6433 49.994 16.7808 51.0065C17.5121 50.7253 18.1871 50.444 18.7496 50.0503C18.7496 50.0503 18.8058 50.0503 18.8058 49.994C19.3683 49.6565 19.8746 49.2628 20.2683 48.8128C20.2683 48.8128 20.2683 48.8128 20.3246 48.7565C22.5746 46.5065 23.0808 43.5815 23.0246 42.1753C22.5183 42.0065 22.0683 41.7253 21.7308 41.3315C21.7871 42.2315 21.7871 43.244 21.5621 44.2003C20.9996 46.5628 19.4246 48.419 16.9496 49.6565C16.8933 49.6565 16.8371 49.7128 16.7808 49.6565H16.7246C14.9808 49.094 13.6871 48.0253 13.0683 46.9565C13.0683 46.9565 13.0121 46.9003 13.0121 46.844C12.7871 46.4503 12.6183 46.0003 12.6183 45.6065C12.5058 44.7065 12.7871 43.469 14.6433 42.344C14.5871 42.0628 14.4746 41.8378 14.3621 41.5565C14.4183 41.5565 14.3621 41.444 14.3058 41.3878ZM15.3746 48.4753C15.8808 48.8128 16.3871 49.0378 16.8933 49.2065C19.1996 48.0253 20.6058 46.3378 21.1683 44.144C21.7871 41.6128 20.9996 38.9128 20.1558 37.619C19.8746 37.9002 19.5933 38.1815 19.2558 38.4627C20.3808 40.6003 20.6058 42.8503 19.8183 44.7065C19.0871 46.5065 17.5683 47.744 15.3746 48.4753ZM13.7996 47.069C14.0808 47.4628 14.4746 47.8003 14.8683 48.1378C17.1183 47.519 18.6933 46.2815 19.3683 44.5378C20.0996 42.8503 19.8746 40.769 18.8621 38.8003C18.5808 39.0253 18.2996 39.3065 18.0183 39.5315C18.9183 41.1065 18.9746 42.8503 18.1308 44.369C17.2308 45.944 15.5996 46.9565 13.7996 47.069ZM13.2371 45.6628C13.2933 46.0003 13.4058 46.2815 13.5183 46.5628C15.2621 46.5065 16.8933 45.6065 17.6808 44.144C18.4121 42.794 18.4121 41.2753 17.6246 39.869C17.2871 40.1503 16.9496 40.3753 16.5558 40.6565C16.9496 41.3315 17.2871 42.6253 16.7808 43.694C16.2746 44.7628 15.0371 45.4378 13.2371 45.6628ZM14.9246 42.9065C13.9121 43.5815 13.2933 44.3128 13.2371 45.1565C13.9121 45.1003 14.5308 44.9315 14.9808 44.7065C15.0371 44.0878 15.0371 43.469 14.9246 42.9065ZM5.19328 41.219C5.92453 42.344 6.76828 43.4128 7.72454 44.4815L11.212 40.319C10.987 39.9815 10.762 39.7003 10.537 39.3628L7.21829 42.6253C7.10579 42.7378 6.99328 42.7378 6.88078 42.6253C6.76828 42.5128 6.76828 42.4003 6.88078 42.2878L10.2558 38.9128C10.0308 38.5753 9.80579 38.2378 9.63704 37.844L5.19328 41.219ZM15.3183 42.5128C15.4871 43.0753 15.5433 43.7503 15.4871 44.4253C15.8808 44.144 16.1621 43.8628 16.3308 43.469C16.7808 42.5128 16.4433 41.444 16.1621 40.9378C15.7683 41.219 15.3746 41.444 14.9808 41.669C15.0933 41.9503 15.2058 42.1753 15.2621 42.4565C15.3183 42.4565 15.3183 42.5128 15.3183 42.5128ZM26.2308 41.444C29.0433 43.1315 32.3059 44.0878 35.4559 44.0878C38.2121 44.0878 40.5746 43.4128 41.4184 42.2878C42.2059 41.219 41.4746 40.2065 40.7434 39.4753C40.6309 39.419 40.6309 39.2503 40.6871 39.1378C41.0809 38.5753 41.3621 38.2378 42.0371 38.1253C42.0934 37.6753 41.9246 37.3377 41.5309 37.1127C40.7996 37.0565 39.7871 37.2815 38.8309 37.5627C38.4934 37.6753 38.1559 37.7315 37.7621 37.844C37.7621 37.9002 37.7059 37.9565 37.6496 38.0128C37.5371 38.069 37.3684 38.0127 37.3121 37.9002C37.1434 37.619 37.4809 36.8315 37.5934 36.719C37.7059 36.6065 37.8184 36.6065 37.9309 36.719C38.0434 36.8315 38.0434 36.944 37.9309 37.0565C37.8746 37.1127 37.8746 37.2252 37.8184 37.3377C38.0996 37.2815 38.3809 37.2252 38.6621 37.1127C39.6184 36.8877 40.6309 36.6065 41.4746 36.6627C42.4871 35.819 42.4309 35.7627 42.0371 35.2002C41.5309 34.5252 41.7559 34.019 42.2059 33.5127C40.5746 33.2877 39.7871 34.1315 39.7309 34.1315C39.6746 34.244 39.5059 34.244 39.3934 34.1877C39.3371 34.1877 38.6621 33.6815 38.6059 32.9502C38.5496 32.444 38.8309 31.9377 39.3371 31.4315C39.4496 31.319 39.5621 31.319 39.6746 31.4315C39.7871 31.544 39.7871 31.6565 39.6746 31.769C39.2809 32.1627 39.0559 32.5002 39.1121 32.894C39.1121 33.2315 39.3371 33.5127 39.5059 33.6815C39.8996 33.344 40.9121 32.7252 42.6559 33.119C43.4434 33.0627 43.8934 32.894 44.0621 32.6127C44.3434 32.1627 44.0059 31.1502 43.4434 29.8002C43.3309 29.5752 43.2184 29.294 43.1621 29.0127C42.7684 28.0002 42.0371 25.8627 41.2496 23.5565C38.9434 22.6565 35.8496 23.3315 33.8809 24.2315C33.3184 25.1315 32.4746 25.9752 31.3496 26.7627C31.1809 27.8877 30.7308 28.9002 29.9996 29.8565C28.8183 31.4315 27.0746 32.444 25.2183 32.669L25.1621 33.2315C26.0621 33.4565 26.7933 34.0752 27.1308 34.9752C27.5808 36.044 27.4121 37.2815 26.6808 38.1815C26.8496 38.519 26.9058 38.9128 26.9058 39.3065C27.0746 40.1503 26.7371 40.8815 26.2308 41.444ZM23.6433 36.8315C22.4621 37.0565 21.5058 38.069 21.5058 39.3628C21.5058 40.769 22.6308 41.894 24.0371 41.894C25.4433 41.894 26.5683 40.769 26.5683 39.3628C26.5683 37.9565 25.4433 36.8315 24.0371 36.8315C23.9246 36.7752 23.8121 36.8315 23.6433 36.8315ZM14.6433 40.9378C14.6996 41.0503 14.7558 41.1065 14.8121 41.219C15.7683 40.6565 16.6683 40.0378 17.5683 39.3065C17.9621 38.969 18.4121 38.6315 18.8058 38.294C18.8058 38.294 18.8058 38.294 18.8621 38.2378C19.8183 37.394 20.7183 36.4377 21.5621 35.4815C21.5621 35.4815 21.5621 35.4815 21.5621 35.4252C22.4058 34.469 23.2496 33.4002 24.0371 32.3877C24.4308 31.8252 24.8808 31.2627 25.2746 30.7002C26.2308 29.3502 27.1871 27.944 28.1433 26.594C28.9871 25.3002 29.8871 24.0627 30.7309 22.8815C33.0934 19.4502 35.5121 16.4689 38.3809 14.4439C38.4371 14.4439 38.4371 14.3877 38.4934 14.3877C38.4934 14.3877 38.4934 14.3877 38.5496 14.3877C38.6059 14.3314 38.7184 14.2752 38.7746 14.2189L38.3246 12.8689C33.7684 16.4127 30.3933 21.2502 27.1871 25.919C23.5308 31.2065 19.7621 36.6065 14.2496 40.319C14.3621 40.4878 14.4746 40.6565 14.6433 40.9378C14.6433 40.8815 14.6433 40.8815 14.6433 40.9378C14.6433 40.8815 14.6433 40.9378 14.6433 40.9378ZM2.99953 37.3377C3.56203 38.519 4.18078 39.7003 4.91203 40.8253L9.35579 37.5065C9.13079 37.1127 8.96204 36.719 8.73704 36.3815L5.02453 38.6315C4.91203 38.6878 4.74328 38.6878 4.68703 38.5753C4.63078 38.4628 4.63078 38.294 4.74328 38.2378L8.51204 35.9315C8.34329 35.594 8.23079 35.3127 8.06204 34.9752L2.99953 37.3377ZM13.2933 39.0253C13.5183 39.3065 13.7433 39.5878 13.9121 39.869C19.3683 36.2127 23.0808 30.8127 26.7371 25.5815C29.7183 21.3065 32.8121 16.8627 36.8059 13.3752L35.3996 13.0939C35.2871 13.0939 35.1746 12.9252 35.2309 12.8127L35.4559 10.9002C31.9684 14.4439 29.0996 19.0002 26.3433 23.3877C22.4058 29.6877 18.6933 35.594 13.2933 39.0253ZM7.04954 26.369C7.04954 26.5377 7.04954 26.7065 7.04954 26.9315C6.99329 30.9252 8.23079 34.9752 10.7058 38.744C10.7058 38.1253 10.8745 37.5628 11.1558 36.8877C9.80579 34.919 8.62454 32.3315 8.39954 28.2252C8.39954 28.1127 8.39954 28.0002 8.39954 27.8315C8.17454 21.9815 10.987 16.1314 15.7121 12.6439C17.0058 11.6877 18.3558 10.9564 19.7621 10.4502H19.8183C20.4933 10.1689 21.2246 10.0002 21.9558 9.83142C21.9558 9.83142 22.0121 9.83142 22.0683 9.83142C22.0683 9.83142 22.0683 9.83142 22.1246 9.83142C23.3621 9.55017 24.5996 9.43767 25.9496 9.43767C26.0621 9.43767 26.1746 9.43767 26.2871 9.43767C27.1308 9.43767 28.0308 9.49392 28.8746 9.66267C29.2683 9.15642 29.7746 8.93142 30.2808 8.81892C29.1558 8.53767 28.0871 8.31267 26.9058 8.25642H26.8496C26.2871 8.20017 25.6683 8.20017 25.1058 8.25642H25.0496C24.5996 8.25642 24.0933 8.31267 23.6433 8.36892H23.5871C23.0246 8.42517 22.4058 8.53767 21.8433 8.70642C21.3371 8.81892 20.8308 8.98767 20.3246 9.10017H20.2683C16.7246 10.2814 13.4621 12.6439 11.0995 15.6814C11.0995 15.6814 11.0995 15.7377 11.0433 15.7377C10.7058 16.1877 10.3683 16.6377 10.087 17.1439V17.2002C9.80579 17.5939 9.58079 17.9877 9.35579 18.4377C9.35579 18.4377 9.35579 18.4939 9.29954 18.4939C9.01829 19.0002 8.79329 19.4502 8.62454 19.9564C8.62454 19.9564 8.62454 20.0127 8.56829 20.0127C8.39954 20.4627 8.17454 20.969 8.06204 21.419V21.4752C7.89329 21.9252 7.78079 22.4315 7.66829 22.8815V22.9377C7.55579 23.444 7.44329 23.9502 7.38704 24.4002V24.4565C7.10579 25.1315 7.04954 25.7502 7.04954 26.369ZM12.4495 37.9002C12.6183 38.1253 12.8433 38.4065 13.0121 38.6315C18.3558 35.3127 22.0121 29.4065 25.9496 23.219C28.8746 18.6064 31.8559 13.8252 35.6246 10.1127C36.0746 9.66267 36.5246 9.26892 36.9746 8.87517L36.5809 7.80642C35.3996 8.76267 34.2746 9.88767 33.2621 11.0127L33.2059 11.0689C32.8121 11.4627 32.4746 11.9127 32.1371 12.3064L32.0809 12.3627C30.3934 14.4439 28.8183 16.7502 27.2433 19.1127C26.6808 20.0127 26.0621 20.969 25.4996 21.869C24.2058 23.894 22.9121 25.8627 21.5621 27.8315C21.0558 28.5627 20.5496 29.2377 20.0433 29.969C20.0433 29.969 20.0433 29.969 19.9871 30.0252C19.5933 30.5315 19.1996 31.0377 18.8058 31.544C18.8058 31.544 18.8058 31.544 18.7496 31.6002C18.1871 32.3315 17.5683 33.0065 17.0058 33.6815C17.0058 33.6815 17.0058 33.6815 16.9496 33.7377C15.5433 35.2565 14.0808 36.6627 12.4495 37.9002ZM20.4933 37.2815C20.7183 37.619 20.9433 38.0127 21.1683 38.519C21.3371 38.0127 21.5621 37.5628 21.9558 37.169C21.7871 36.8315 21.6746 36.4377 21.6183 36.1002C21.2246 36.494 20.8308 36.8877 20.4933 37.2815ZM25.8371 36.8877C26.1746 37.1128 26.3996 37.394 26.6246 37.7315C27.1308 37.0002 27.2433 36.1002 26.8496 35.2002C26.4558 34.244 25.6683 33.6815 24.6558 33.6815C24.5433 33.6815 24.4308 33.569 24.4308 33.4565C24.4308 33.344 24.5433 33.2315 24.6558 33.2315C24.7121 33.2315 24.7683 33.2315 24.8246 33.2315L24.8808 32.7815C24.7121 32.7815 24.4871 32.7815 24.3183 32.7815C23.9808 33.2315 23.6433 33.6815 23.3058 34.0752C23.3058 34.469 23.3621 34.8627 23.4183 35.2002C23.9808 34.7502 24.7121 34.694 25.2746 34.9752C25.8933 35.3127 26.1183 36.044 25.8371 36.8877ZM8.90579 29.4065C9.35579 33.2877 10.762 35.6502 12.1121 37.5065C13.0683 36.7752 13.9683 35.9877 14.8121 35.144C14.7558 35.0877 14.6433 35.0877 14.5871 35.0315C14.3058 34.8627 13.9683 34.7502 13.6871 34.5815C13.3496 34.9752 12.7871 35.5377 11.437 35.5377C11.3808 35.5377 11.2683 35.4815 11.2683 35.4252C11.212 35.369 11.212 35.2565 11.212 35.2002C11.3808 34.7502 11.3245 33.794 11.2683 33.0627C11.2683 32.7252 11.212 32.444 11.212 32.219C11.0995 32.0502 11.0433 31.8815 10.9308 31.7127C10.6495 31.769 10.2558 31.8252 9.74954 31.8252C9.63704 31.8252 9.58079 31.769 9.52454 31.6565C9.46829 31.544 9.52454 31.4315 9.58079 31.3752C10.1995 30.8127 10.2558 30.1377 10.312 29.2377C10.312 29.0127 10.3683 28.7315 10.3683 28.4502C10.087 28.619 9.52454 28.9565 8.90579 29.4065ZM1.48077 32.8377C1.81827 34.1877 2.21202 35.5377 2.77452 36.8877L7.94954 34.469C7.83704 34.1315 7.72454 33.794 7.61204 33.4565L3.39328 34.694C3.28078 34.7502 3.11202 34.6377 3.11202 34.5252C3.05577 34.4127 3.16828 34.244 3.28078 34.244L7.44329 33.0065C7.33079 32.5565 7.16204 32.1065 7.04954 31.6565L1.48077 32.8377ZM21.9558 35.6502C22.0121 35.9877 22.1246 36.4377 22.2933 36.8315C22.5746 36.6065 22.9121 36.494 23.2496 36.3815C23.0808 35.9315 22.9121 35.3127 22.7996 34.5815C22.5746 34.9752 22.2933 35.3127 21.9558 35.6502ZM24.0371 36.3252C24.5433 36.3252 24.9933 36.4377 25.3871 36.6627C25.5558 36.1002 25.4433 35.6502 25.0496 35.4252C24.6558 35.2002 24.0371 35.2565 23.5871 35.7627C23.6433 35.9877 23.6996 36.2127 23.8121 36.3815C23.8683 36.3252 23.9808 36.3252 24.0371 36.3252ZM11.7745 32.9502V33.0065C11.8308 33.6815 11.887 34.469 11.7745 34.9752C12.6183 34.919 13.0121 34.5815 13.2933 34.3002C12.7308 33.9627 12.2245 33.569 11.7745 32.9502ZM11.7183 31.994C12.6746 33.5127 13.7433 34.0752 14.8683 34.5815C14.9808 34.6377 15.1496 34.694 15.2621 34.7502C15.5996 34.4127 15.9933 34.019 16.3308 33.6252C13.7996 33.2315 12.7871 31.9377 12.337 30.8127C11.9995 31.094 11.7745 31.319 11.437 31.4877C11.5495 31.7127 11.6058 31.8815 11.7183 31.994ZM12.6746 30.419C13.1246 31.994 14.5308 33.0065 16.6683 33.2877C17.0621 32.894 17.3996 32.444 17.7371 32.0502C16.7246 32.3315 15.7683 32.1627 14.9808 31.6002C13.9683 30.869 13.4621 29.6315 13.6871 28.3377C13.9683 26.4815 15.5433 24.9065 18.0746 23.9502C17.6246 23.7815 17.1746 23.6127 16.7246 23.444H16.6683C16.6121 23.444 16.6121 23.3877 16.5558 23.3877C14.0246 24.5127 12.1683 27.494 12.5621 29.969C12.5621 30.0815 12.6183 30.194 12.6746 30.419C12.6746 30.3627 12.6746 30.3627 12.6746 30.419ZM0.862018 28.1127C0.862018 28.2252 0.862018 28.3377 0.862018 28.4502C0.918269 29.8002 1.08702 31.094 1.36827 32.3877L6.93704 31.2065C6.88079 30.8127 6.76828 30.419 6.71203 30.0252L2.32452 30.419C2.21202 30.419 2.09952 30.3065 2.04327 30.194C2.04327 30.0815 2.15577 29.969 2.26827 29.9127L6.65579 29.519C6.59953 29.069 6.54328 28.619 6.54328 28.2252L0.862018 28.1127ZM25.6121 30.9815C25.3308 31.4315 24.9933 31.8252 24.7121 32.219C24.8808 32.219 24.9933 32.219 25.1621 32.219C25.1621 32.219 25.1621 32.219 25.2183 32.219C27.0183 32.0502 28.7058 31.094 29.8308 29.5752C31.1246 27.8315 31.5184 25.6377 30.8996 23.444C30.6184 23.8377 30.3371 24.2877 29.9996 24.6815C30.3933 26.9877 29.2121 29.9127 25.6121 30.9815ZM18.8621 24.1752C16.1621 25.019 14.4746 26.594 14.1933 28.394C14.0246 29.519 14.4183 30.5877 15.3183 31.2065C16.1621 31.8252 17.2871 31.8252 18.4121 31.2627C18.8058 30.8127 19.1433 30.3065 19.5371 29.8002C19.6496 28.9002 19.5933 27.3252 17.8496 26.5377C17.3433 26.819 17.0058 27.044 16.7246 27.3815C17.2871 27.494 17.6246 27.719 17.8496 27.8877C18.1871 28.2252 18.4121 28.6752 18.4121 29.1252C18.4121 29.8002 17.9058 30.5877 16.8933 30.5877C16.1058 30.5877 15.4871 29.969 15.4871 29.069C15.4871 28.9002 15.4871 28.2815 15.9933 27.494C15.9933 27.4377 16.0496 27.4377 16.0496 27.3815C16.7246 26.4815 18.2433 25.469 21.3933 25.0752C20.7183 24.794 19.9871 24.5127 19.1433 24.2877C19.0871 24.2315 18.9746 24.2315 18.8621 24.1752ZM10.987 28.169C10.9308 28.5627 10.8745 28.9565 10.8745 29.294C10.8183 30.0815 10.762 30.7565 10.3683 31.319C10.6495 31.319 10.8745 31.2627 11.0433 31.2065C11.0433 31.2065 11.0433 31.2065 11.0995 31.2065C11.4933 31.094 11.7745 30.8127 12.2245 30.3627C12.1683 30.2502 12.1683 30.0815 12.1683 29.969C11.7745 27.3815 13.5183 24.4002 16.1058 23.0502C15.7683 22.8815 15.4871 22.7127 15.2058 22.544C14.8683 22.8252 14.5308 23.0502 14.1933 23.3315C14.1933 23.3315 14.1933 23.3315 14.1371 23.3877C13.5183 23.894 13.0121 24.4002 12.5621 24.9065C12.5621 24.9627 12.5058 24.9627 12.5058 24.9627C12.337 25.1877 12.1683 25.3565 12.0558 25.5815C12.0558 25.6377 11.9995 25.6377 11.9995 25.694C11.3808 26.5377 11.0995 27.3815 10.987 28.169C10.987 28.1127 10.987 28.1127 10.987 28.169C10.987 28.1127 10.987 28.169 10.987 28.169ZM29.5496 25.3002C29.2121 25.8065 28.8746 26.3127 28.5371 26.7627C27.7496 27.944 26.9621 29.1252 26.1183 30.2502C28.0871 29.519 29.7746 27.719 29.5496 25.3002ZM16.3308 27.8315C16.0496 28.2815 15.9371 28.6752 15.9371 29.0127C15.9371 29.6315 16.3308 30.0815 16.8933 30.0815C17.6246 30.0815 17.9621 29.6315 17.9621 29.1252C17.9621 28.7877 17.7933 28.5065 17.5683 28.2252C17.2308 28.0002 16.7808 27.8315 16.3308 27.8315ZM18.4121 26.3127C19.4246 26.9315 20.0433 27.8877 20.0433 29.1252C20.3808 28.6752 20.7183 28.2252 21.0558 27.719C20.9433 27.2127 20.4371 26.369 19.8183 25.8627C19.2558 25.9752 18.8058 26.144 18.4121 26.3127ZM8.84954 28.2815C8.84954 28.5065 8.84954 28.6752 8.90579 28.9002C9.41204 28.5627 10.1433 28.0565 10.537 27.944C10.6495 27.3252 10.8183 26.7065 11.212 26.0315C11.1558 26.0315 11.1558 26.0877 11.0995 26.0877C11.0995 26.0877 11.0995 26.0877 11.0433 26.0877C9.97454 26.6502 9.01829 27.8877 8.84954 28.2815ZM0.862018 27.6065L6.54328 27.719C6.54328 27.4377 6.54328 27.1565 6.54328 26.9315C6.54328 26.819 6.54328 26.7065 6.54328 26.594L2.15577 26.0877C2.04327 26.0877 1.93077 25.9752 1.93077 25.8065C1.93077 25.6377 2.04327 25.5815 2.21202 25.5815L6.54328 26.0877C6.54328 25.5815 6.59953 25.1315 6.65579 24.6252L1.14327 23.5002C0.974519 24.8502 0.862018 26.2565 0.862018 27.6065ZM8.90579 25.1877C8.79329 25.919 8.79329 26.7065 8.79329 27.494C9.01829 27.2127 9.35579 26.819 9.69329 26.4815L8.90579 25.1877ZM20.3808 25.7502C20.8308 26.2002 21.1683 26.7627 21.3933 27.2127C21.7308 26.7065 22.0683 26.2002 22.4621 25.6377C22.4058 25.5815 22.2933 25.5252 22.1808 25.469C21.5058 25.5252 20.8871 25.6377 20.3808 25.7502ZM31.5746 24.7377C31.6309 25.244 31.6309 25.694 31.5746 26.144C32.4746 25.469 33.1496 24.794 33.6559 24.0065C33.6559 23.9502 33.7121 23.9502 33.7121 23.894C34.5559 22.4877 34.7809 20.8565 34.3871 18.7752C34.1059 19.1127 33.7684 19.5065 33.4871 19.844C33.6559 21.869 33.0371 23.3877 31.5746 24.7377ZM9.01829 24.4002L10.087 26.0877C10.2558 25.919 10.4245 25.8065 10.6495 25.694L10.0308 24.4002C9.97454 24.2877 10.0308 24.119 10.1433 24.0627L11.3245 23.5002C11.212 23.219 11.0995 22.994 11.0433 22.6565C10.5933 22.769 9.86204 23.1065 9.24329 23.5002C9.13079 23.8377 9.07454 24.119 9.01829 24.4002ZM10.5933 24.4002L11.0995 25.469C11.2683 25.3565 11.4933 25.3002 11.662 25.244C11.7745 25.0752 11.887 24.9065 12.0558 24.7377C11.887 24.5127 11.7183 24.2315 11.5495 23.9502L10.5933 24.4002ZM18.4121 23.5002C18.6933 23.6127 19.0308 23.669 19.3121 23.7815C20.6058 24.1752 21.8433 24.569 22.6871 25.244C23.0246 24.6815 23.4183 24.1752 23.7558 23.6127C22.6871 23.3877 20.9433 23.444 19.5371 23.5002C19.1433 23.5002 18.7496 23.5002 18.4121 23.5002ZM11.8308 23.5002C11.9995 23.8377 12.1683 24.119 12.337 24.344C12.6746 23.9502 13.0683 23.5565 13.5746 23.1627C12.7308 22.544 11.8308 21.7565 11.3245 20.8002C11.2683 21.3627 11.2683 21.869 11.3808 22.319C11.3808 22.319 11.3808 22.319 11.3808 22.3752C11.4933 22.769 11.662 23.1627 11.8308 23.5002ZM1.25577 22.994L6.76829 24.119C6.82454 23.7252 6.88078 23.3877 6.99329 22.994L2.77452 21.644C2.66202 21.5877 2.54952 21.4752 2.60577 21.3627C2.66202 21.2502 2.77452 21.1377 2.88702 21.194L7.10579 22.4877C7.21829 22.094 7.27454 21.7565 7.38704 21.419L2.32452 18.8877C1.81827 20.2377 1.48077 21.644 1.25577 22.994ZM31.1809 22.9377C31.2934 23.3315 31.4059 23.7252 31.4621 24.119C32.4746 23.1065 32.9809 21.9252 32.9809 20.519C32.4184 21.3065 31.7996 22.094 31.1809 22.9377ZM34.8934 22.319C34.7809 22.769 34.6684 23.219 34.4434 23.6127C36.4121 22.8815 39.1121 22.3752 41.2496 23.0502C40.3496 20.3502 39.3934 17.5377 38.8309 15.9064C38.8309 18.8877 37.3684 21.3627 34.8934 22.319ZM21.4496 22.9377C22.4621 22.9377 23.3621 22.994 24.0371 23.1627C24.2621 22.769 24.5433 22.3752 24.7683 21.9815C23.5308 21.5877 21.6746 21.5877 19.7058 21.644C17.7933 21.7002 15.8246 21.7002 14.3058 21.3065C14.5871 21.5877 14.8683 21.8127 15.2058 21.9815C15.2058 21.9815 15.2621 21.9815 15.2621 22.0377C15.7121 22.319 16.1621 22.6002 16.6683 22.769H16.7246C16.7808 22.8252 16.8371 22.8252 16.9496 22.8815C17.3433 22.994 18.4121 22.9377 19.5371 22.9377C20.1558 22.994 20.8308 22.9377 21.4496 22.9377ZM11.887 17.2564C10.7058 18.9439 9.86204 20.8565 9.35579 22.8815C9.86204 22.6002 10.4245 22.319 10.8745 22.2065C10.762 21.4752 10.762 20.6877 11.0433 19.844C11.0995 19.7315 11.212 19.6752 11.2683 19.6752C11.3808 19.6752 11.4933 19.7877 11.4933 19.9002C11.662 21.1377 12.8996 22.094 13.9121 22.8815C14.1371 22.7127 14.4183 22.4877 14.6433 22.319C14.1371 21.9815 13.6871 21.5315 13.2933 21.0252L13.2371 20.969C12.6183 20.1815 12.1683 19.2252 11.9433 17.9877C11.9433 17.9877 11.9433 17.9877 11.9433 17.9314C11.9433 17.7064 11.9433 17.4814 11.887 17.2564ZM35.0621 20.3502C35.0621 20.8565 35.0621 21.3065 35.0059 21.7565C37.3121 20.6877 38.6059 18.1002 38.3246 15.0627C37.9309 15.3439 37.5371 15.6814 37.1434 16.0189C37.3121 17.7627 36.6934 19.1127 35.0621 20.3502ZM21.2246 21.194C22.6871 21.194 24.0371 21.2502 25.0496 21.5877C25.2746 21.2502 25.4996 20.9127 25.6683 20.5752C24.2058 20.0127 22.2371 20.069 20.1558 20.069C17.3433 20.1252 14.4746 20.1815 12.6746 18.7189C12.8996 19.4502 13.2371 20.069 13.6308 20.6315C15.0933 21.2502 17.4558 21.2502 19.6496 21.194C20.2121 21.194 20.7183 21.194 21.2246 21.194ZM2.49327 18.4377L7.55579 20.969C7.66829 20.6315 7.83704 20.2377 7.94954 19.9002L4.06828 17.5377C3.95578 17.4814 3.89953 17.3127 4.01203 17.2002C4.06828 17.0877 4.23703 17.0314 4.34953 17.1439L8.17454 19.5065C8.34329 19.1127 8.51204 18.7189 8.73704 18.3814L4.18078 14.8939C3.50578 16.0189 2.94327 17.2002 2.49327 18.4377ZM21.6746 19.6189C23.3058 19.6189 24.7683 19.7314 25.9496 20.1814C26.1746 19.844 26.3996 19.5064 26.6246 19.1689C24.0933 18.3252 21.6183 18.3814 19.4808 18.4377C17.7933 18.4939 16.2183 18.4939 14.8683 18.1002H14.8121C13.9121 17.8189 13.1808 17.3127 12.5058 16.4689C12.4495 16.5252 12.3933 16.6377 12.337 16.6939C12.337 17.0877 12.3933 17.4814 12.4495 17.8752C13.9121 19.7877 17.0621 19.7314 20.0996 19.6752C20.6621 19.6189 21.1683 19.6189 21.6746 19.6189ZM34.7809 18.3814C34.8934 18.8877 34.9496 19.3377 35.0059 19.7877C36.1871 18.8314 36.7496 17.7627 36.6934 16.4689C36.0184 17.0314 35.3996 17.7064 34.7809 18.3814ZM24.8808 18.2127C25.5558 18.3252 26.2308 18.4939 26.9058 18.7189C28.4246 16.4127 29.9433 14.2189 31.5746 12.1939C31.1246 11.6877 30.6183 11.6314 30.2246 11.8002C29.8308 11.9689 29.4933 12.4752 29.7183 13.3752C29.7746 13.4877 29.6621 13.6564 29.5496 13.6564C29.4371 13.7127 29.2683 13.6002 29.2683 13.4877C29.1558 13.1502 29.1558 12.8127 29.2121 12.5314C28.7058 12.3627 28.2558 12.4752 27.9746 12.8127C27.7496 13.0939 27.6933 13.6002 28.0308 14.1064C28.1433 13.9939 28.2558 13.9939 28.3683 14.1064C28.4808 14.2189 28.4808 14.3314 28.3683 14.4439L28.1996 14.6127C28.1996 14.6127 28.1996 14.6127 28.1996 14.6689L26.4558 16.5252L24.8808 18.2127ZM23.6996 18.0439C23.9246 18.0439 24.0933 18.1002 24.3183 18.1002L26.0058 16.3002C25.7808 15.4002 25.8933 14.3877 26.0621 13.4877C26.0621 13.4877 26.0621 13.4877 26.0621 13.4314L26.1183 13.2064C26.1183 13.0939 26.2871 12.9814 26.3996 12.9814C26.5121 12.9814 26.6246 13.0939 26.6246 13.2627C27.0183 13.2064 27.2996 13.0939 27.4683 12.8127C27.6371 12.4752 27.6371 12.0814 27.4121 11.7439C27.3558 11.6877 27.2996 11.5752 27.1871 11.5189C26.9621 11.3502 26.6246 11.2939 26.2871 11.4064C26.1746 11.4064 26.0058 11.3502 26.0058 11.2377C26.0058 11.1252 26.0621 10.9564 26.1746 10.9564C26.5121 10.9002 26.7933 10.9002 27.0746 11.0127C27.0183 10.4502 26.7933 10.0564 26.3996 9.94392C26.3433 9.94392 26.2871 9.94392 26.2308 9.88767C26.1183 9.88767 26.0621 9.88767 25.9496 9.88767C25.5558 9.94392 25.2183 10.1127 25.0496 10.4502C24.8246 10.8439 24.9933 11.2939 25.4996 11.7439C25.6121 11.8564 25.6121 11.9689 25.4996 12.0814C25.3871 12.1939 25.2746 12.1939 25.1621 12.0814C24.8246 11.8002 24.6558 11.5189 24.5433 11.2939C23.8683 11.4064 23.8121 11.8564 23.8121 12.0814C23.8121 12.4752 24.0933 12.9814 24.4308 13.0939V13.0377C24.4871 12.9252 24.5996 12.8127 24.7121 12.8689C24.8246 12.9252 24.9371 13.0377 24.8808 13.1502L24.8246 13.3752L23.6996 18.0439ZM22.1246 17.9314C22.4621 17.9314 22.8558 17.9877 23.2496 17.9877L24.3746 13.5439C23.7558 13.3752 23.3621 12.7002 23.3621 12.0252C23.3621 11.5189 23.6433 10.9002 24.4871 10.7877C24.4871 10.5064 24.5433 10.2814 24.6558 10.1689C24.7121 10.0564 24.7683 10.0002 24.8808 9.88767C24.0371 9.94392 23.2496 10.0564 22.4058 10.2252L22.6871 13.0377C22.6871 13.1502 22.5746 13.2627 22.4621 13.3189C22.3496 13.3189 22.2371 13.2064 22.1808 13.0939V12.9252L21.1683 12.1939C20.8871 12.4189 20.7183 12.7564 20.7183 13.0939C20.7183 13.7689 21.2808 14.2752 21.8996 14.2752C22.0121 14.2752 22.1246 14.2752 22.2371 14.2189V14.1064C22.2371 13.9939 22.3496 13.8814 22.4621 13.8252C22.5746 13.8252 22.6871 13.9377 22.7433 14.0502V14.2752C22.7433 14.2752 22.7433 14.2752 22.7433 14.3314L22.9121 15.9064V15.9627C22.9121 16.0189 22.9121 16.0189 22.8558 16.0752L22.7996 16.1314H22.7433C22.3496 16.1877 21.8996 16.1877 21.5058 16.1314C21.4496 16.1877 21.3933 16.1877 21.3933 16.2439C21.3371 16.6939 21.5058 17.3127 22.1246 17.9314ZM15.0933 17.5939C16.3308 17.9314 17.7933 17.9314 19.4246 17.8752C20.0433 17.8752 20.7183 17.8752 21.3933 17.8752C20.9996 17.3689 20.8308 16.9189 20.7746 16.5814C20.3246 16.7502 19.6496 16.8627 18.9746 16.8627C17.3433 16.8627 15.9371 16.3564 15.2058 15.5127H15.1496C14.9808 16.0189 14.9808 17.0877 15.0933 17.5939ZM4.34953 14.3877L8.90579 17.8752C9.07454 17.5939 9.24329 17.2564 9.41204 16.9752L6.09328 13.7689C5.98078 13.6564 5.98078 13.5439 6.09328 13.4314C6.20578 13.3189 6.31828 13.3189 6.43078 13.4314L9.69329 16.5814C9.91829 16.1877 10.1995 15.8502 10.4808 15.4564L6.65579 11.0127C6.14953 11.6314 5.69953 12.2502 5.30578 12.8689C4.96828 13.3752 4.63078 13.8814 4.34953 14.3877ZM12.8433 16.0189C13.3496 16.6939 13.9121 17.1439 14.5871 17.4252C14.4746 16.8064 14.4746 15.9627 14.6433 15.4002L13.5746 15.1189C13.3496 15.4002 13.0683 15.6814 12.8433 16.0189ZM15.4871 15.1752C16.2746 16.0752 17.7371 16.4127 18.9183 16.4127C18.9183 16.4127 18.9183 16.4127 18.9746 16.4127C19.7058 16.4127 20.3808 16.3002 20.7746 16.0752C20.2683 15.8502 19.7621 15.5689 19.3683 15.1752C17.7371 15.5689 16.2183 14.3877 15.5996 13.2627C15.0371 13.7127 14.4746 14.2189 13.9121 14.7252L14.9808 15.0064C14.9808 15.0064 14.9808 15.0064 15.0371 15.0064L15.3183 15.0627C15.3183 15.0627 15.3746 15.0627 15.3746 15.1189C15.4871 15.1189 15.4871 15.1752 15.4871 15.1752ZM26.4558 13.7127C26.3433 14.3877 26.2871 15.1189 26.3996 15.8502L27.6933 14.4439C27.4683 14.1064 27.3558 13.8252 27.2996 13.4877C27.0746 13.6564 26.7933 13.7127 26.4558 13.7127ZM19.7058 14.7252C20.3246 15.4564 21.3371 15.9064 22.3496 15.7939L22.2371 14.7252C22.0683 14.7814 21.9558 14.7814 21.8433 14.7814C20.8871 14.7814 20.1558 14.0502 20.1558 13.0939C20.1558 12.6439 20.3246 12.1939 20.6621 11.8564C20.6058 11.8002 20.6058 11.6877 20.6621 11.5752C20.7183 11.4627 20.8871 11.4627 20.9996 11.5189L21.9558 12.1939L21.8433 10.2814C21.2246 10.4502 20.6058 10.6189 19.9871 10.8439C19.0308 11.9127 18.7496 13.1502 19.3683 14.2189C19.4246 14.3877 19.5371 14.5564 19.7058 14.7252C19.6496 14.7252 19.7058 14.7252 19.7058 14.7252ZM6.93704 10.6189L10.762 15.0627C10.987 14.7814 11.2683 14.4439 11.4933 14.1627L8.62454 10.2252C8.56829 10.1127 8.56829 9.94392 8.68079 9.88767C8.79329 9.83142 8.96204 9.83142 9.01829 9.94392L11.8308 13.7689C12.1121 13.4877 12.3933 13.1502 12.7308 12.8689L9.69329 7.63767C8.73704 8.65017 7.78079 9.60642 6.93704 10.6189ZM16.0496 12.9814C16.4996 13.8252 17.6808 14.9502 19.0871 14.7252C19.0308 14.6127 18.9746 14.5564 18.9183 14.4439C18.3558 13.4314 18.4121 12.2502 19.0871 11.2377C18.0183 11.6877 17.0058 12.2502 16.0496 12.9814ZM35.7371 12.7002L37.2559 13.0377C37.5371 12.8127 37.8184 12.5877 38.0996 12.3627L37.0871 9.38142C36.6934 9.71892 36.3559 10.0564 35.9621 10.3939L35.7371 12.7002ZM10.087 7.41267L13.1246 12.6439C13.4058 12.4189 13.6308 12.1939 13.9121 11.9689L11.9433 7.35641C11.887 7.24391 11.9433 7.07516 12.0558 7.01891C12.1683 6.96266 12.3371 7.01892 12.3933 7.13142L14.3621 11.6314C14.6996 11.3502 15.0933 11.1252 15.4308 10.8439L13.4621 4.93766C12.2245 5.66891 11.0995 6.51266 10.087 7.41267ZM27.4683 11.1814C27.5246 11.2377 27.6371 11.3502 27.6933 11.4064C27.8621 11.6314 27.9183 11.8564 27.9746 12.1377C28.3683 11.9127 28.8183 11.8564 29.3246 12.0252C29.4933 11.6877 29.7746 11.4064 29.9996 11.2939C30.6183 11.0127 31.3496 11.2377 31.8559 11.7439C32.0809 11.4627 32.3059 11.1814 32.5871 10.9002C30.7309 10.2814 28.8746 9.94392 27.1308 9.83142C27.3558 10.1689 27.4683 10.5627 27.4683 11.1814ZM13.7996 4.65641L15.8246 10.5627C16.1621 10.3377 16.4433 10.1689 16.7808 10.0002L15.5996 5.05016C15.5433 4.93766 15.6558 4.76891 15.7683 4.76891C15.8808 4.71266 16.0496 4.82516 16.0496 4.93766L17.1746 9.71892C17.5121 9.55017 17.8496 9.38142 18.2433 9.21267L17.3996 2.80015C16.1621 3.36265 14.9808 3.98141 13.7996 4.65641ZM17.8496 2.6314L18.6933 9.04392C19.0871 8.87517 19.4246 8.76267 19.8183 8.59392L19.6496 3.25015C19.6496 3.13765 19.7621 3.02515 19.8746 3.02515C19.9871 3.02515 20.0996 3.13765 20.0996 3.25015L20.2683 8.42517C20.6621 8.31267 20.9996 8.20017 21.3933 8.08767L21.8433 1.3939C20.5496 1.67515 19.2558 2.01265 18.0183 2.5189C18.0183 2.57515 17.9621 2.6314 17.8496 2.6314ZM30.4496 8.25642C30.9559 8.36892 31.4059 8.53767 31.8559 8.70642L35.6809 2.4064C34.3309 1.9564 32.9809 1.6189 31.6871 1.3939L28.8746 7.91892C29.2683 7.97517 29.6058 8.08767 29.9433 8.14392L32.6996 2.8564C32.7559 2.7439 32.9246 2.68765 33.0371 2.7439C33.1496 2.80015 33.2059 2.9689 33.1496 3.0814L30.4496 8.25642ZM22.4058 1.33765L21.9558 8.03142C22.4058 7.91892 22.8558 7.86267 23.2496 7.80642L24.0371 2.5189C24.0371 2.4064 24.2058 2.2939 24.3183 2.2939C24.4308 2.2939 24.5433 2.46265 24.5433 2.57515L23.7558 7.69392C24.0933 7.63767 24.4308 7.63767 24.7683 7.63767L26.5121 0.943897C25.1621 1.00015 23.7558 1.11265 22.4058 1.33765ZM27.1308 7.69392C27.5246 7.75017 27.9183 7.75017 28.3683 7.86267L31.1809 1.33765C29.7746 1.11265 28.4246 1.00015 27.0746 1.00015L25.3308 7.69392C25.7808 7.69392 26.2308 7.69392 26.6808 7.69392L28.3121 2.4064C28.3683 2.2939 28.4808 2.1814 28.5933 2.23765C28.7058 2.2939 28.8183 2.4064 28.7621 2.5189L27.1308 7.69392ZM24.0371 40.7128C23.3058 40.7128 22.6871 40.094 22.6871 39.3628C22.6871 38.6315 23.3058 38.0128 24.0371 38.0128C24.7683 38.0128 25.3871 38.6315 25.3871 39.3628C25.3871 40.094 24.8246 40.7128 24.0371 40.7128ZM24.0371 38.4627C23.5308 38.4627 23.1371 38.8565 23.1371 39.3628C23.1371 39.869 23.5308 40.2628 24.0371 40.2628C24.5433 40.2628 24.9371 39.869 24.9371 39.3628C24.9371 38.8565 24.5433 38.4627 24.0371 38.4627ZM36.2434 28.169C34.6121 28.169 33.4309 27.7752 33.0371 27.6065C33.0371 27.6065 33.0371 27.6065 33.0371 27.6627C32.9246 27.7752 32.8121 27.7752 32.6996 27.719C32.5871 27.6065 32.5871 27.494 32.6434 27.3815C32.6996 27.269 34.5559 25.1315 38.9434 25.4127H38.9996C39.0559 25.4127 39.0559 25.469 39.1121 25.469L39.1684 25.5252C39.1684 25.5252 39.1684 25.5815 39.1684 25.6377C39.1684 25.9752 38.7184 26.0877 38.3809 26.2002H38.2684C38.1559 26.2565 37.9871 26.2002 37.9871 26.0315C37.9871 25.9752 37.9871 25.8627 38.0434 25.8065H37.6496C37.0309 25.8627 36.5246 25.919 36.0184 26.0315C35.9621 26.6502 36.0184 27.1565 36.1871 27.6065C36.6934 27.6065 37.2559 27.5502 37.8184 27.494C37.9309 27.494 38.0996 27.5502 38.0996 27.719C38.0996 27.8315 38.0434 28.0002 37.8746 28.0002C37.3121 28.169 36.7496 28.169 36.2434 28.169ZM33.4871 27.269C33.9371 27.3815 34.6684 27.6065 35.6809 27.6627C35.5684 27.2127 35.5121 26.7627 35.5121 26.2565C34.5559 26.5377 33.8809 26.9877 33.4871 27.269Z" fill="#231F20"/>
</svg>
