<svg width="32" height="32" viewBox="0 0 32 32" fill="none" xmlns="http://www.w3.org/2000/svg">
<path d="M15.6666 3V6.45453M24.6238 6.7094L22.1811 9.15214M28.3333 15.6666H24.8787M9.15214 22.1811L6.71094 24.6223M6.45453 15.6666H3M9.15214 9.15214L6.71094 6.71094M15.6666 26.0302V29.4848" stroke="#4F46E5" stroke-width="3" stroke-linecap="round" stroke-linejoin="round"/>
<path d="M19.0871 19.8547L22.5757 23.3432M19.0871 19.8547C19.5237 19.4181 19.8703 18.9 20.1066 18.3295C20.3429 17.759 20.4646 17.1476 20.4646 16.5301C20.4646 15.2831 19.9692 14.0871 19.0874 13.2053C18.2056 12.3235 17.0096 11.8281 15.7626 11.8281C14.5155 11.8281 13.3195 12.3235 12.4377 13.2053C11.5559 14.0871 11.0605 15.2831 11.0605 16.5301C11.0605 17.1476 11.1822 17.759 11.4185 18.3295C11.6548 18.9 12.0011 19.4183 12.4377 19.8549C12.8744 20.2916 13.3927 20.6379 13.9632 20.8742C14.5336 21.1105 15.1451 21.2321 15.7626 21.2321C16.38 21.2321 16.9915 21.1105 17.5619 20.8742C18.1324 20.6379 18.6505 20.2913 19.0871 19.8547Z" stroke="#4F46E5" stroke-width="3" stroke-linecap="round" stroke-linejoin="round"/>
</svg>
