<svg width="33" height="33" viewBox="0 0 33 33" fill="none" xmlns="http://www.w3.org/2000/svg">
<path d="M18.125 11.625H14.875V16.5H10V19.75H14.875V24.625H18.125V19.75H23V16.5H18.125M16.5 29.5C13.4832 29.5 10.5899 28.3016 8.45666 26.1684C6.32343 24.0351 5.125 21.1419 5.125 18.125C5.125 15.1082 6.32343 12.2149 8.45666 10.0817C10.5899 7.94846 13.4832 6.75002 16.5 6.75002C19.5168 6.75002 22.4101 7.94846 24.5433 10.0817C26.6766 12.2149 27.875 15.1082 27.875 18.125C27.875 21.1419 26.6766 24.0351 24.5433 26.1684C22.4101 28.3016 19.5168 29.5 16.5 29.5ZM16.5 3.50002C12.6212 3.50002 8.90128 5.04087 6.15856 7.78359C3.41584 10.5263 1.875 14.2462 1.875 18.125C1.875 22.0038 3.41584 25.7237 6.15856 28.4665C8.90128 31.2092 12.6212 32.75 16.5 32.75C20.3788 32.75 24.0987 31.2092 26.8414 28.4665C29.5842 25.7237 31.125 22.0038 31.125 18.125C31.125 14.2462 29.5842 10.5263 26.8414 7.78359C24.0987 5.04087 20.3788 3.50002 16.5 3.50002ZM32.75 6.29502L25.275 0.022522L23.1788 2.50877L30.6537 8.78127M9.805 2.50877L7.725 0.022522L0.25 6.27877L2.34625 8.76502L9.805 2.50877Z" fill="#4F46E5"/>
</svg>
