<svg width="37" height="37" viewBox="0 0 37 37" fill="none" xmlns="http://www.w3.org/2000/svg">
<path d="M5.04586 20.1744C5.97469 26.5979 11.5029 31.5331 18.1838 31.5331C19.1275 31.5331 20.0481 31.4346 20.9361 31.2474L24.9212 35.2324C22.8366 36.0605 20.5633 36.5157 18.1838 36.5157C8.74747 36.5157 0.983162 29.3571 0.0252753 20.1744H5.04586Z" fill="#4F46E5"/>
<path d="M5.01085 16.6016C5.82603 10.0516 11.4129 4.98265 18.1838 4.98265C25.5154 4.98265 31.459 10.9262 31.459 18.2579C31.459 20.101 31.0833 21.8564 30.4045 23.4517L34.1226 27.1698C35.5996 24.5339 36.4416 21.4942 36.4416 18.2579C36.4416 8.17433 28.2673 0 18.1838 0C8.6585 0 0.836896 7.29423 0 16.6016H5.01085Z" fill="#4F46E5"/>
<path fill-rule="evenodd" clip-rule="evenodd" d="M22.3622 27.377C21.0582 28.0031 19.597 28.3538 18.0538 28.3538C12.5498 28.3538 8.08789 23.892 8.08789 18.388C8.08789 12.884 12.5498 8.42212 18.0538 8.42212C23.5577 8.42212 28.0196 12.884 28.0196 18.388C28.0196 20.5359 27.3401 22.5252 26.1843 24.1525L35.3457 33.3139L31.8225 36.8372L22.3622 27.377ZM23.037 18.388C23.037 21.1401 20.8059 23.3712 18.0538 23.3712C15.3016 23.3712 13.0705 21.1401 13.0705 18.388C13.0705 15.6358 15.3016 13.4048 18.0538 13.4048C20.8059 13.4048 23.037 15.6358 23.037 18.388Z" fill="#312E81"/>
</svg>
