<svg width="34" height="33" viewBox="0 0 34 33" fill="none" xmlns="http://www.w3.org/2000/svg">
<path d="M26.834 25.2587C26.4007 23.9587 25.1507 23 23.6673 23H22.0007V18.125C22.0007 17.694 21.8251 17.2807 21.5125 16.976C21.1999 16.6712 20.776 16.5 20.334 16.5H10.334V13.25H13.6673C14.1093 13.25 14.5333 13.0788 14.8458 12.774C15.1584 12.4693 15.334 12.056 15.334 11.625V8.375H18.6673C19.5514 8.375 20.3992 8.03259 21.0243 7.4231C21.6495 6.8136 22.0007 5.98695 22.0007 5.125V4.45875C23.9948 5.24259 25.7644 6.4859 27.158 8.08223C28.5517 9.67857 29.5278 11.5804 30.0029 13.6249C30.478 15.6694 30.4379 17.7957 29.886 19.8218C29.3341 21.8479 28.2869 23.7135 26.834 25.2587ZM15.334 29.3862C8.75065 28.59 3.66732 23.13 3.66732 16.5C3.66732 15.4925 3.80065 14.5175 4.01732 13.5913L12.0007 21.375V23C12.0007 23.862 12.3518 24.6886 12.977 25.2981C13.6021 25.9076 14.4499 26.25 15.334 26.25M17.0007 0.25C14.812 0.25 12.6447 0.670319 10.6226 1.48696C8.6005 2.3036 6.76318 3.50056 5.21554 5.00951C2.08993 8.05698 0.333984 12.1902 0.333984 16.5C0.333984 20.8098 2.08993 24.943 5.21554 27.9905C6.76318 29.4994 8.6005 30.6964 10.6226 31.513C12.6447 32.3297 14.812 32.75 17.0007 32.75C21.4209 32.75 25.6602 31.038 28.7858 27.9905C31.9114 24.943 33.6673 20.8098 33.6673 16.5C33.6673 14.366 33.2362 12.2529 32.3986 10.2814C31.5611 8.30985 30.3334 6.51847 28.7858 5.00951C27.2381 3.50056 25.4008 2.3036 23.3787 1.48696C21.3566 0.670319 19.1893 0.25 17.0007 0.25Z" fill="#4F46E5"/>
</svg>
