<svg width="24" height="25" viewBox="0 0 24 25" fill="none" xmlns="http://www.w3.org/2000/svg">
<path fill-rule="evenodd" clip-rule="evenodd" d="M4 0.201721C2.93913 0.201721 1.92172 0.623149 1.17157 1.37329C0.421427 2.12344 0 3.14086 0 4.20172V20.2017C0 21.2626 0.421427 22.28 1.17157 23.0301C1.92172 23.7803 2.93913 24.2017 4 24.2017H20C21.0609 24.2017 22.0783 23.7803 22.8284 23.0301C23.5786 22.28 24 21.2626 24 20.2017V4.20172C24 3.14086 23.5786 2.12344 22.8284 1.37329C22.0783 0.623149 21.0609 0.201721 20 0.201721H4ZM6 2.20172C5.73478 2.20172 5.48043 2.30708 5.29289 2.49461C5.10536 2.68215 5 2.9365 5 3.20172V18.2017C5.00023 18.372 5.04395 18.5394 5.127 18.6881C5.21006 18.8367 5.3297 18.9617 5.47459 19.0512C5.61948 19.1407 5.78482 19.1917 5.95494 19.1993C6.12505 19.207 6.29431 19.1711 6.44667 19.0951L12 16.3204L17.5533 19.0977C17.7058 19.1738 17.8752 19.2097 18.0454 19.202C18.2156 19.1943 18.3811 19.1431 18.526 19.0535C18.6709 18.9639 18.7905 18.8387 18.8735 18.6899C18.9564 18.541 19 18.3735 19 18.2031V3.20172C19 2.9365 18.8946 2.68215 18.7071 2.49461C18.5196 2.30708 18.2652 2.20172 18 2.20172H6Z" fill="#4F46E5"/>
</svg>
