<svg width="22" height="29" viewBox="0 0 22 29" fill="none" xmlns="http://www.w3.org/2000/svg">
<path fill-rule="evenodd" clip-rule="evenodd" d="M2.5 0.201721H7C8.32608 0.201721 9.59785 0.728505 10.5355 1.66619C11.4732 2.60387 12 3.87564 12 5.20172V7.70172C12 9.08305 13.12 10.2017 14.5 10.2017H17C18.3261 10.2017 19.5979 10.7285 20.5355 11.6662C21.4732 12.6039 22 13.8756 22 15.2017V25.7017C22 27.0817 20.88 28.2017 19.5 28.2017H2.5C1.83696 28.2017 1.20107 27.9383 0.732233 27.4695C0.263392 27.0006 0 26.3648 0 25.7017V2.70172C0 1.32039 1.12 0.201721 2.5 0.201721ZM8 21.2017C8 20.9365 7.89464 20.6821 7.70711 20.4946C7.51957 20.3071 7.26522 20.2017 7 20.2017C6.73478 20.2017 6.48043 20.3071 6.29289 20.4946C6.10536 20.6821 6 20.9365 6 21.2017V22.2017C6 22.4669 6.10536 22.7213 6.29289 22.9088C6.48043 23.0964 6.73478 23.2017 7 23.2017C7.26522 23.2017 7.51957 23.0964 7.70711 22.9088C7.89464 22.7213 8 22.4669 8 22.2017V21.2017ZM11 17.2017C11.2652 17.2017 11.5196 17.3071 11.7071 17.4946C11.8946 17.6822 12 17.9365 12 18.2017V22.2017C12 22.4669 11.8946 22.7213 11.7071 22.9088C11.5196 23.0964 11.2652 23.2017 11 23.2017C10.7348 23.2017 10.4804 23.0964 10.2929 22.9088C10.1054 22.7213 10 22.4669 10 22.2017V18.2017C10 17.9365 10.1054 17.6822 10.2929 17.4946C10.4804 17.3071 10.7348 17.2017 11 17.2017ZM16 15.2017C16 14.9365 15.8946 14.6822 15.7071 14.4946C15.5196 14.3071 15.2652 14.2017 15 14.2017C14.7348 14.2017 14.4804 14.3071 14.2929 14.4946C14.1054 14.6822 14 14.9365 14 15.2017V22.2017C14 22.4669 14.1054 22.7213 14.2929 22.9088C14.4804 23.0964 14.7348 23.2017 15 23.2017C15.2652 23.2017 15.5196 23.0964 15.7071 22.9088C15.8946 22.7213 16 22.4669 16 22.2017V15.2017Z" fill="#4F46E5"/>
</svg>
