<svg width="24" height="27" viewBox="0 0 24 27" fill="none" xmlns="http://www.w3.org/2000/svg">
<path fill-rule="evenodd" clip-rule="evenodd" d="M13 2.20173C11.2351 2.1986 9.50851 2.71721 8.03738 3.69239C7.92805 3.76949 7.80437 3.82387 7.67365 3.85231C7.54293 3.88076 7.40783 3.88268 7.27636 3.85797C7.14488 3.83326 7.0197 3.78242 6.90822 3.70847C6.79674 3.63451 6.70124 3.53894 6.62736 3.42741C6.55349 3.31588 6.50274 3.19066 6.47812 3.05917C6.45351 2.92767 6.45553 2.79258 6.48406 2.66188C6.5126 2.53118 6.56707 2.40753 6.64425 2.29826C6.72142 2.18899 6.81974 2.09632 6.93338 2.02573C8.59133 0.92956 10.5153 0.303081 12.5008 0.212875C14.4863 0.122669 16.4592 0.572106 18.2097 1.51342C19.9602 2.45473 21.423 3.85275 22.4425 5.55888C23.4621 7.26501 24.0003 9.2155 24 11.2031C24 15.2217 23.2347 19.0657 21.84 22.5937C21.7403 22.8371 21.5487 23.0313 21.3068 23.1344C21.0648 23.2375 20.792 23.2411 20.5474 23.1445C20.3028 23.0479 20.1061 22.8588 19.9999 22.6182C19.8937 22.3776 19.8866 22.1049 19.98 21.8591C21.3195 18.4658 22.0049 14.8498 22 11.2017C22 8.81478 21.0518 6.52559 19.364 4.83777C17.6762 3.14994 15.387 2.20173 13 2.20173ZM5.20938 4.85373C5.31885 4.92636 5.41293 5.01986 5.48625 5.12887C5.55957 5.23788 5.61069 5.36027 5.63669 5.48904C5.6627 5.61782 5.66307 5.75046 5.63779 5.87938C5.61252 6.0083 5.56208 6.13097 5.48938 6.24039C4.51492 7.7113 3.99679 9.43733 4.00005 11.2017C4.00005 13.3524 3.38271 15.3617 2.31338 17.0591C2.17193 17.2836 1.94707 17.4428 1.68827 17.5015C1.42947 17.5603 1.15793 17.5138 0.933379 17.3724C0.708829 17.2309 0.549666 17.0061 0.490905 16.7473C0.432144 16.4885 0.478597 16.2169 0.620045 15.9924C1.52433 14.5584 2.00289 12.8971 2.00005 11.2017C2.00005 8.96173 2.67071 6.87373 3.82271 5.13506C3.89525 5.02549 3.98866 4.93128 4.09762 4.85783C4.20659 4.78438 4.32896 4.73313 4.45774 4.707C4.58652 4.68087 4.71919 4.68039 4.84816 4.70556C4.97713 4.73074 5.09988 4.78108 5.20938 4.85373ZM13 7.20173C11.9392 7.20173 10.9218 7.62315 10.1716 8.3733C9.42147 9.12344 9.00005 10.1409 9.00005 11.2017C9.00005 15.3351 7.43205 19.1044 4.86005 21.9431C4.7718 22.0404 4.66524 22.1194 4.54645 22.1756C4.42766 22.2318 4.29898 22.264 4.16774 22.2704C4.0365 22.2769 3.90528 22.2574 3.78156 22.2131C3.65785 22.1688 3.54407 22.1006 3.44671 22.0124C3.2501 21.8342 3.13234 21.5851 3.11934 21.3201C3.10633 21.055 3.19915 20.7957 3.37738 20.5991C5.7134 18.0273 7.00528 14.6761 7.00005 11.2017C7.00005 9.61043 7.63219 8.0843 8.75741 6.95909C9.88262 5.83387 11.4087 5.20173 13 5.20173C14.5913 5.20173 16.1175 5.83387 17.2427 6.95909C18.3679 8.0843 19 9.61043 19 11.2017C19 11.9311 18.9707 12.6551 18.9107 13.3697C18.889 13.6341 18.7631 13.8789 18.5608 14.0505C18.3585 14.222 18.0964 14.3061 17.832 14.2844C17.5677 14.2626 17.3228 14.1368 17.1513 13.9345C16.9798 13.7322 16.8956 13.4701 16.9174 13.2057C16.972 12.5457 17 11.8777 17 11.2017C17 10.1409 16.5786 9.12344 15.8285 8.3733C15.0783 7.62315 14.0609 7.20173 13 7.20173ZM13 10.2017C13.2653 10.2017 13.5196 10.3071 13.7072 10.4946C13.8947 10.6822 14 10.9365 14 11.2017C14.0077 16.2085 12.2194 21.0519 8.96005 24.8524C8.78766 25.054 8.54225 25.1788 8.27783 25.1994C8.0134 25.22 7.75161 25.1348 7.55005 24.9624C7.34848 24.79 7.22365 24.5446 7.20303 24.2802C7.1824 24.0157 7.26766 23.754 7.44005 23.5524C10.3896 20.1142 12.0076 15.7318 12 11.2017C12 10.9365 12.1054 10.6822 12.2929 10.4946C12.4805 10.3071 12.7348 10.2017 13 10.2017ZM17.3187 17.1124C17.5736 17.1853 17.7892 17.3564 17.918 17.5882C18.0467 17.82 18.0782 18.0934 18.0054 18.3484C17.2543 20.979 16.091 23.474 14.5587 25.7404C14.4852 25.8492 14.3909 25.9425 14.2813 26.0149C14.1717 26.0873 14.049 26.1374 13.92 26.1623C13.7911 26.1873 13.6585 26.1866 13.5298 26.1603C13.4011 26.134 13.2789 26.0826 13.17 26.0091C13.0612 25.9355 12.968 25.8413 12.8956 25.7317C12.8232 25.6221 12.7731 25.4993 12.7481 25.3704C12.7232 25.2414 12.7239 25.1088 12.7502 24.9801C12.7765 24.8515 12.8278 24.7292 12.9014 24.6204C14.3157 22.5291 15.3895 20.2267 16.0827 17.7991C16.1556 17.5441 16.3268 17.3286 16.5585 17.1998C16.7903 17.071 17.0638 17.0396 17.3187 17.1124Z" fill="#4F46E5"/>
</svg>
