<svg width="32" height="32" viewBox="0 0 32 32" fill="none" xmlns="http://www.w3.org/2000/svg">
<path d="M15.5 22C16.163 22 16.7989 21.7366 17.2678 21.2678C17.7366 20.7989 18 20.163 18 19.5C18 18.837 17.7366 18.2011 17.2678 17.7322C16.7989 17.2634 16.163 17 15.5 17C14.837 17 14.2011 17.2634 13.7322 17.7322C13.2634 18.2011 13 18.837 13 19.5C13 20.163 13.2634 20.7989 13.7322 21.2678C14.2011 21.7366 14.837 22 15.5 22Z" fill="#4F46E5"/>
<path fill-rule="evenodd" clip-rule="evenodd" d="M7.5 2H12C13.3261 2 14.5979 2.52678 15.5355 3.46447C16.4732 4.40215 17 5.67392 17 7V9.5C17 10.8813 18.12 12 19.5 12H22C23.3261 12 24.5979 12.5268 25.5355 13.4645C26.4732 14.4021 27 15.6739 27 17V27.5C27 28.88 25.88 30 24.5 30H7.5C6.83696 30 6.20107 29.7366 5.73223 29.2678C5.26339 28.7989 5 28.163 5 27.5V4.5C5 3.11867 6.12 2 7.5 2ZM15.5 24C16.38 24 17.2027 23.7467 17.896 23.3093L19.2933 24.7067C19.4829 24.8833 19.7336 24.9795 19.9927 24.9749C20.2518 24.9703 20.4989 24.8654 20.6822 24.6822C20.8654 24.4989 20.9703 24.2518 20.9749 23.9927C20.9795 23.7336 20.8833 23.4829 20.7067 23.2933L19.3107 21.896C19.842 21.0514 20.0775 20.0541 19.9801 19.061C19.8828 18.068 19.4581 17.1354 18.7729 16.41C18.0878 15.6846 17.1809 15.2075 16.195 15.0537C15.2091 14.9 14.2 15.0783 13.3265 15.5606C12.453 16.0429 11.7645 16.8019 11.3694 17.7181C10.9743 18.6344 10.8949 19.656 11.1438 20.6223C11.3926 21.5886 11.9556 22.4448 12.7442 23.0562C13.5327 23.6677 14.5022 23.9997 15.5 24Z" fill="#4F46E5"/>
<path d="M19 7.00005C19.0023 5.31812 18.3967 3.69201 17.2947 2.42139C19.5257 3.00801 21.5609 4.17669 23.1921 5.8079C24.8234 7.43912 25.992 9.47433 26.5787 11.7054C25.308 10.6034 23.6819 9.99772 22 10.0001H19.5C19.3674 10.0001 19.2402 9.94737 19.1464 9.85361C19.0527 9.75984 19 9.63266 19 9.50005V7.00005Z" fill="#4F46E5"/>
</svg>
